<svg id="Capa_1" enable-background="new 0 0 497 497" height="512" viewBox="0 0 497 497" width="512" xmlns="http://www.w3.org/2000/svg"><g><g><circle cx="84.933" cy="171.37" fill="#ffb357" r="35.308"/><circle cx="412.053" cy="171.368" fill="#ffce71" r="35.308"/></g><g fill="#7ce3ff"><path d="m103.386 267.547c-19.927 0-36.081 16.154-36.081 36.082s16.154 36.082 36.081 36.082c10.675 0 20.264-4.637 26.871-12.005 5.726-6.386 9.211-14.824 9.211-24.077-.001-19.927-16.155-36.082-36.082-36.082z"/><path d="m393.641 267.547c-19.927 0-36.081 16.154-36.081 36.082 0 9.245 3.478 17.678 9.196 24.063 6.607 7.377 16.203 12.019 26.885 12.019 19.927 0 36.081-16.154 36.081-36.082s-16.153-36.082-36.081-36.082z"/></g><path d="m276.927 21.344-16.726-16.456c-3.212-3.259-7.292-4.888-11.687-4.888s-9.107 1.629-12.319 4.888l-16.094 16.456c-7.678 7.648-15.316 18.835-15.316 30.701 0 28.777 21.306 45.921 43.729 45.921 18.569 0 34.423-11.579 40.766-27.907 2.837-7.304 2.964-12.912 2.964-18.014-.001-11.866-7.64-23.053-15.317-30.701z" fill="#ffb357"/><g><g><path d="m281.495 380.502h-53.255l-34.8 40.131v76.367h125.771 50.376c0-54.882-36.902-101.978-88.092-116.498z" fill="#b9f0ff"/><path d="m319.211 497c-30.004 0-58.74-12.099-79.709-33.559-10.324-10.566-18.318-22.969-23.708-36.412h-22.354v69.971z" fill="#ff8e9e"/></g><g><path d="m248.512 375.925c-14.276 0-27.981 2.493-40.712 7.055l-14.36 18.653v25.395h22.34c15.777-22.201 38.844-38.898 65.714-46.526-10.489-2.976-21.551-4.577-32.982-4.577z" fill="#7ce3ff"/><path d="m207.801 382.98c-46.785 16.766-80.361 61.56-80.361 114.02h66c0-20.623 5.215-40.072 14.377-57.111-.005-.002-.011-.005-.017-.007 2.396-4.458 5.063-8.749 7.98-12.853-5.555-13.858-8.332-28.825-7.979-44.049z" fill="#ea5b70"/></g></g><g><path d="m208.514 386.778c0-9.214 3.139-17.703 8.393-24.473h-33.969c-2.854 7.622-4.424 15.866-4.424 24.473 0 38.598 31.402 70 70 70v-30c-22.057 0-40-17.944-40-40z" fill="#ffb357"/><path d="m314.09 362.305h-33.97c5.254 6.77 8.393 15.259 8.393 24.473 0 22.056-17.944 40-40 40-12.183 5.979-12.757 23.502 0 30 38.598 0 70-31.402 70-70 .001-8.606-1.569-16.851-4.423-24.473z" fill="#ffce71"/></g><g><path d="m158.514 347.706c0 16.569-13.431 30-30 30s-30-13.431-30-30 13.431-50 30-50 30 33.431 30 50z" fill="#ffb357"/><path d="m398.514 347.706c0 16.569-13.431 30-30 30s-30-13.431-30-30 13.431-50 30-50 30 33.431 30 50z" fill="#ffce71"/></g><g><g><path d="m272.567 100.484h-27.722c-18.43 0-35.838 8.47-47.212 22.973l-94.247 120.172 94.247 120.172c11.374 14.502 28.782 22.965 47.212 22.965h27.722c38.771-6.48 72.307-28.354 94.189-59.076 10.26-14.405 17.959-30.755 22.432-48.375 2.908-11.457 4.453-23.327 4.453-35.685 0-71.959-52.369-131.685-121.074-143.146z" fill="#b9f0ff"/><path d="m151.494 243.629c0-71.957 52.372-131.683 121.073-143.145-7.825-1.306-15.859-1.984-24.055-1.984-80.15 0-145.127 64.976-145.127 145.129 0 12.355 1.521 24.234 4.426 35.685 4.474 17.632 12.179 33.987 22.444 48.391 26.32 36.932 69.484 61.05 118.256 61.05 8.196 0 16.229-.684 24.055-1.99-58.63-9.782-105.368-54.711-117.81-112.396-2.136-9.908-3.262-20.192-3.262-30.74z" fill="#7ce3ff"/></g><g fill="#ff8e9e"><ellipse cx="169.395" cy="313" rx="28.882" ry="23"/><ellipse cx="327.514" cy="313" rx="29" ry="23"/></g><g fill="#313d40"><path d="m186.065 276.5c-4.142 0-7.5 3.357-7.5 7.5v12c0 4.143 3.358 7.5 7.5 7.5s7.5-3.357 7.5-7.5v-12c0-4.143-3.358-7.5-7.5-7.5z"/><path d="m310.962 276.5c-4.142 0-7.5 3.357-7.5 7.5v12c0 4.143 3.358 7.5 7.5 7.5s7.5-3.357 7.5-7.5v-12c0-4.143-3.358-7.5-7.5-7.5z"/><path d="m269.906 284.988c-3.123-2.721-7.861-2.396-10.582.727-2.729 3.133-6.669 4.929-10.81 4.929s-8.081-1.796-10.81-4.929c-2.721-3.122-7.459-3.447-10.582-.727-3.123 2.722-3.448 7.459-.727 10.582 5.579 6.401 13.641 10.073 22.119 10.073s16.54-3.672 22.119-10.073c2.72-3.123 2.395-7.86-.727-10.582z"/></g></g><g><path d="m327.225 65.573c.002.027.004.054 0 0-24.548-13.298-51.858-19.991-79.014-19.99l-109.595 45.046v129.134h14.83c26.51-21.019 59.809-33.127 95.07-33.126 61.236.003 116.574 36.382 140.672 92.677 22.362-35.702 29.672-73.203 22.865-107.946-8.224-41.968-37.047-79.911-84.828-105.795z" fill="#ffce71"/><path d="m107.812 279.314c10.138-23.563 26.033-44.011 45.634-59.552v-22.812c0-64.853 33.769-117.529 94.765-151.368-80.504.004-149.79 54.584-163.279 125.788-6.366 33.608-.303 70.924 22.88 107.944z" fill="#ffb357"/></g><g><path d="m49.757 225.966c-6.007 22.418 7.297 45.461 29.715 51.467l8.42 2.256 19.92-.375 5.772-21.542c-5.807-.96-10.516-4.199-13.678-9.163s-4.064-11.04-2.478-16.708l2.471-9.224-45.962-12.315z" fill="#ffb357"/><path d="m70.269 261.997c-9.157-11.115-12.76-25.791-9.793-39.883 3.729 13.918 18.035 22.177 31.952 18.448 17.397-4.662 27.721-22.543 23.059-39.94-4.069-15.188-16.201-26.057-30.555-29.251-6.199-1.379-12.811-1.331-19.37.426-27.183 7.284-43.314 35.224-36.03 62.407 9.104 33.978 44.302 54.215 78.28 45.111-14.399.215-28.386-6.204-37.543-17.318z" fill="#ffce71"/></g><g><path d="m447.243 225.966c6.007 22.418-7.297 45.461-29.715 51.467l-8.42 2.256-19.92-.375-5.772-21.542c5.807-.96 10.516-4.199 13.678-9.163s4.064-11.04 2.478-16.708l-2.471-9.224 45.962-12.315z" fill="#ffce71"/><path d="m426.731 261.997c9.157-11.115 12.76-25.791 9.793-39.883-3.729 13.918-18.035 22.177-31.952 18.448-17.397-4.662-27.721-22.543-23.059-39.94 4.068-15.183 16.192-26.056 30.541-29.253 6.203-1.382 12.821-1.33 19.385.429 27.183 7.284 43.314 35.224 36.03 62.407-9.104 33.978-44.302 54.215-78.28 45.111 14.398.214 28.385-6.205 37.542-17.319z" fill="#ffb357"/></g><path d="m241.014 209.774v38.726c0 4.143 3.358 7.5 7.5 7.5s7.5-3.357 7.5-7.5v-38.726z" fill="#ea5b70"/><g><path d="m262.684 83.998 9.708 21.982 23.921-2.597c13.384-1.453 22.123 13.66 14.17 24.505l-14.213 19.385 14.213 19.385c7.952 10.846-.787 25.958-14.17 24.505l-23.921-2.597-9.708 21.982c-5.431 12.299-22.909 12.299-28.341 0l-9.708-21.982-23.921 2.597c-13.384 1.453-22.123-13.66-14.17-24.505l14.213-19.385-14.213-19.385c-7.952-10.846.787-25.958 14.17-24.505l23.921 2.597 9.708-21.982c5.432-12.299 22.91-12.299 28.341 0z" fill="#ffb357"/><g><path d="m259.451 123.412h-11.375l-15.312 23.862 15.312 23.862h11.375c9.035-4.148 15.313-13.269 15.313-23.862s-6.278-19.713-15.313-23.862z" fill="#ff8e9e"/><path d="m244.139 147.274c0-10.593 6.278-19.714 15.312-23.862-3.331-1.529-7.033-2.388-10.937-2.388-14.498 0-26.25 11.752-26.25 26.25 0 14.497 11.752 26.25 26.25 26.25 3.905 0 7.607-.859 10.937-2.388-9.035-4.148-15.312-13.269-15.312-23.862z" fill="#ea5b70"/></g></g><g><path d="m120.287 408.543-14.942 4.981c-9.2 3.066-15.405 11.676-15.405 21.372v21.762c0 11.046 8.954 20 20 20l40-25.743v-21c0-15.376-15.065-26.235-29.653-21.372z" fill="#7ce3ff"/><path d="m149.94 430.916c-8.249 0-15 6.741-15 15v5.743c-13.807 0-25 11.193-25 25h25c16.569 0 30-13.431 30-30v-.32c0-8.261-6.444-15.423-15-15.423z" fill="#b9f0ff"/></g><g><path d="m352.052 427.711c-11.046 0-20 8.954-20 20v21.762c0 9.697 6.205 18.306 15.405 21.373l14.942 4.981c2.406.802 4.819 1.173 7.188 1.173 11.96 0 22.465-9.705 22.465-22.546v-21z" fill="#7ce3ff"/><path d="m392.052 473.454c-8.249 0-15-6.741-15-15v-5.743c-13.807 0-25-11.193-25-25h25c16.569 0 30 13.431 30 30v.32c0 8.261-6.444 15.423-15 15.423z" fill="#b9f0ff"/></g></g></svg>