<svg id="Capa_1" enable-background="new 0 0 497 497" height="512" viewBox="0 0 497 497" width="512" xmlns="http://www.w3.org/2000/svg"><g><g><circle cx="95" cy="303.69" fill="#ff8e9e" r="95"/><path d="m497 303.69c0 52.467-42.533 95-95 95s-95-42.533-95-95c0-37.09 21.256-69.211 52.25-84.857 12.85-6.486 27.372-10.143 42.75-10.143 52.467 0 95 42.533 95 95z" fill="#ffb5c0"/></g><g><path d="m304.7 150.279h-93.363v232.134l37.163 37.163c77.381 0 140.5-62.718 140.5-140.5 0-57.611-34.681-107.115-84.3-128.797z" fill="#ffdbe0"/><path d="m220.4 266.901c0-57.612 34.681-94.939 84.3-116.621-17.211-7.521-36.216-11.702-56.2-11.702-77.596 0-140.5 62.904-140.5 140.5s62.904 140.5 140.5 140.5v-74.919c-17.634-23.478-28.1-46.135-28.1-77.758z" fill="#ffb5c0"/></g><g fill="#efedff"><path d="m211.088 394.448c-13.468 6.28-27.523 9.764-41.51 10.692-14.308.949-17.481 20.851-4.176 26.2 19.34 7.776 41.725 7.834 62.11-1.672z"/><path d="m285.912 394.448c13.468 6.28 27.523 9.764 41.51 10.692 14.308.949 17.481 20.851 4.176 26.2-19.34 7.776-41.725 7.834-62.11-1.672z"/></g><g><path d="m248.5 350.093c-23.52 0-41.378 21.172-37.412 44.355l12.412 72.552h25z" fill="#ffb5c0"/><path d="m248.5 350.093v116.907h25l12.412-72.552c3.966-23.183-13.892-44.355-37.412-44.355z" fill="#ffdbe0"/></g><g><path d="m263.5 497h-30c-16.568 0-30-13.432-30-30s13.432-30 30-30h30c16.568 0 30 13.432 30 30s-13.432 30-30 30z" fill="#ffb5c0"/><path d="m263.5 474.5h-30c-4.143 0-7.5-3.358-7.5-7.5s3.357-7.5 7.5-7.5h30c4.143 0 7.5 3.358 7.5 7.5s-3.357 7.5-7.5 7.5z" fill="#ff8e9e"/></g><g fill="#ffb5c0"><path d="m241 384.5h15c4.142 0 7.5-3.357 7.5-7.5s-3.358-7.5-7.5-7.5h-15c-4.142 0-7.5 3.357-7.5 7.5s3.358 7.5 7.5 7.5z"/><path d="m256 399.5h-15c-4.142 0-7.5 3.357-7.5 7.5s3.358 7.5 7.5 7.5h15c4.142 0 7.5-3.357 7.5-7.5s-3.358-7.5-7.5-7.5z"/></g><g><circle cx="84.919" cy="171.37" fill="#ffb357" r="35.308"/><circle cx="412.039" cy="171.368" fill="#ffce71" r="35.308"/></g><path d="m276.913 21.344-16.725-16.456c-3.213-3.259-7.292-4.888-11.688-4.888-4.395 0-9.107 1.629-12.319 4.888l-16.094 16.456c-7.678 7.648-15.316 18.835-15.316 30.701 0 28.777 21.306 45.921 43.729 45.921 18.569 0 34.423-11.579 40.766-27.907 2.837-7.304 2.964-12.912 2.964-18.014-.001-11.866-7.639-23.053-15.317-30.701z" fill="#ffb357"/><g><path d="m327.212 65.573c.001.027.003.054 0 0-24.548-13.298-51.858-19.991-79.014-19.99l-109.595 45.046v129.134h14.83c26.51-21.019 59.809-33.127 95.07-33.126 61.236.003 116.4 36.145 140.498 92.44 22.362-35.702 29.847-72.966 23.039-107.709-8.224-41.968-37.048-79.911-84.828-105.795z" fill="#ffce71"/><path d="m108 279.077c10.138-23.563 25.832-43.774 45.433-59.314v-22.812c0-64.853 33.769-117.529 94.765-151.368-80.504.004-149.79 54.584-163.279 125.788-6.367 33.607-.102 70.686 23.081 107.706z" fill="#ffb357"/></g><g><circle cx="143.5" cy="156.37" fill="#30cd9c" r="15"/><circle cx="353.5" cy="156.37" fill="#70dcba" r="15"/></g><g><path d="m49.743 225.966c-6.007 22.418 7.297 45.461 29.715 51.467l8.42 2.256 20.122-.612 5.571-21.305c-5.807-.96-10.516-4.199-13.678-9.163s-4.064-11.04-2.478-16.708l2.472-9.224-45.962-12.315z" fill="#ffb357"/><path d="m70.255 261.997c-9.157-11.115-12.76-25.791-9.793-39.883 3.729 13.918 18.035 22.177 31.952 18.448 17.397-4.662 27.721-22.543 23.059-39.94-4.069-15.188-16.201-26.057-30.555-29.251-6.199-1.379-12.811-1.331-19.37.426-27.183 7.284-43.314 35.224-36.03 62.407 9.104 33.978 44.503 53.978 78.481 44.874-14.398.215-28.587-5.967-37.744-17.081z" fill="#ffce71"/></g><g><path d="m447.23 225.966c6.007 22.418-7.297 45.461-29.715 51.467l-8.42 2.256-20.095-.612-5.598-21.305c5.807-.96 10.516-4.199 13.678-9.163s4.064-11.04 2.478-16.708l-2.471-9.224 45.962-12.315z" fill="#ffce71"/><path d="m426.718 261.997c9.157-11.115 12.76-25.791 9.793-39.883-3.729 13.918-18.035 22.177-31.952 18.448-17.397-4.662-27.721-22.543-23.059-39.94 4.068-15.183 16.192-26.056 30.541-29.253 6.203-1.382 12.821-1.33 19.384.429 27.183 7.284 43.314 35.224 36.03 62.407-9.104 33.978-44.476 53.978-78.454 44.874 14.398.214 28.56-5.968 37.717-17.082z" fill="#ffb357"/></g><g><path d="m263.5 100.398h-20l-45 58.102 45 58.102h20c25.849-6.678 45-30.195 45-58.102s-19.151-51.424-45-58.102z" fill="#ffce71"/><path d="m218.5 158.5c0-27.906 19.151-51.424 45-58.102 0-8.284-6.716-15-15-15s-15 6.716-15 15c-25.85 6.677-45.001 30.195-45.001 58.102 0 33.084 26.916 60 60 60 5.178 0 10.204-.66 15-1.898-25.848-6.678-44.999-30.196-44.999-58.102z" fill="#ffb357"/></g><g><path d="m261 131.229h-13l-17.5 27.271 17.5 27.271h13c10.325-4.741 17.5-15.165 17.5-27.271s-7.175-22.529-17.5-27.271z" fill="#70dcba"/><path d="m243.5 158.5c0-12.106 7.174-22.53 17.5-27.271-3.806-1.748-8.038-2.729-12.5-2.729-16.569 0-30 13.431-30 30 0 16.568 13.431 30 30 30 4.462 0 8.694-.982 12.5-2.729-10.326-4.741-17.5-15.165-17.5-27.271z" fill="#30cd9c"/></g><path d="m278.198 247.758c-4.142 0-7.5 3.357-7.5 7.5 0 9.777-6.271 18.114-15 21.21v-26.21c0-4.143-3.358-7.5-7.5-7.5s-7.5 3.357-7.5 7.5v26.21c-8.729-3.096-15-11.433-15-21.21 0-4.143-3.358-7.5-7.5-7.5s-7.5 3.357-7.5 7.5c0 20.678 16.822 37.5 37.5 37.5s37.5-16.822 37.5-37.5c0-4.143-3.358-7.5-7.5-7.5z" fill="#ea5b70"/><g><g><g><ellipse cx="170.943" cy="343.937" fill="#ff8e9e" rx="29.355" ry="23.377"/></g><g><ellipse cx="326.057" cy="343.937" fill="#ff8e9e" rx="29.355" ry="23.377"/></g></g></g><g fill="#313d40"><path d="m186.051 305.934c-4.143 0-7.5 3.358-7.5 7.5v12c0 4.142 3.357 7.5 7.5 7.5s7.5-3.358 7.5-7.5v-12c0-4.142-3.358-7.5-7.5-7.5z"/><path d="m310.948 305.934c-4.143 0-7.5 3.358-7.5 7.5v12c0 4.142 3.357 7.5 7.5 7.5s7.5-3.358 7.5-7.5v-12c0-4.142-3.357-7.5-7.5-7.5z"/></g></g></svg>