<svg id="Capa_1" enable-background="new 0 0 497 497" height="512" viewBox="0 0 497 497" width="512" xmlns="http://www.w3.org/2000/svg"><g><g><g><path d="m278.837 391.069c0-16.568-13.431-30-30-30s-30 13.432-30 30c-16.569 0-30 13.432-30 30s13.431 30 30 30c0 16.568 13.431 30 30 30s30-13.432 30-30c16.569 0 30-13.432 30-30s-13.431-30-30-30z" fill="#ff8e9e"/><circle cx="248.837" cy="421.069" fill="#ffce71" r="7.5"/></g><g><path d="m194.604 342.897c0-16.568-13.431-30-30-30s-30 13.432-30 30c-16.569 0-30 13.432-30 30s13.431 30 30 30c0 16.568 13.431 30 30 30s30-13.432 30-30c16.569 0 30-13.432 30-30s-13.431-30-30-30z" fill="#ffb5c0"/><circle cx="164.604" cy="382.897" fill="#ffce71" r="7.5"/></g><g><path d="m168.766 306.532c11.716-11.716 11.716-30.711 0-42.426-.293-.293-.598-.592-.914-.896-23.096-22.256-59.93-22.256-83.026 0-.316.304-.621.603-.914.896-11.716 11.716-11.716 30.711 0 42.426-11.716 11.716-11.716 30.711 0 42.426 11.716 11.716 30.711 11.716 42.426 0 11.716 11.716 30.711 11.716 42.426 0 11.717-11.715 11.717-30.71.002-42.426z" fill="#ff8e9e"/><circle cx="126.339" cy="306.532" fill="#ffce71" r="7.5"/></g><g><path d="m302.396 342.897c0-16.568 13.431-30 30-30s30 13.432 30 30c16.569 0 30 13.432 30 30s-13.431 30-30 30c0 16.568-13.431 30-30 30s-30-13.432-30-30c-16.569 0-30-13.432-30-30s13.431-30 30-30z" fill="#ffb5c0"/><circle cx="332.396" cy="382.897" fill="#fce3a0" r="7.5"/></g><g><path d="m328.234 306.532c-11.716-11.716-11.716-30.711 0-42.426.293-.293.598-.592.914-.896 23.096-22.256 59.93-22.256 83.026 0 .316.304.621.603.914.896 11.716 11.716 11.716 30.711 0 42.426 11.716 11.716 11.716 30.711 0 42.426-11.716 11.716-30.711 11.716-42.426 0-11.716 11.716-30.711 11.716-42.426 0-11.717-11.715-11.717-30.71-.002-42.426z" fill="#ff8e9e"/><circle cx="370.661" cy="306.532" fill="#fce3a0" r="7.5"/></g></g><g><path d="m205.064 342.897v15.138c0 16.163 11.652 29.725 27.011 31.447 5.817.652 11.5.948 16.387.949h.011c5.451 0 10.731-.321 15.667-.861 15.336-1.676 26.935-15.301 26.935-31.436v-15.236h-86.011z" fill="#d6948c"/><g><path d="m56.44 283.769c-13.546-1.746-24.203-12.421-25.926-25.97-6.515-51.203 36.893-94.85 88.367-88.421l23.131 2.889 2.915 23.128c6.489 51.474-37.369 94.963-88.487 88.374z" fill="#d6948c"/><path d="m60.275 254.015c22.626 2.916 43.002-9.915 51.342-29.123 3.363-7.745 4.705-16.555 3.547-25.745-16.253-2.03-31.383 3.766-41.615 14.265-9.962 10.223-15.269 24.912-13.274 40.603z" fill="#ffdbe0"/></g><g><path d="m440.489 283.769c13.546-1.746 24.203-12.421 25.926-25.97 6.515-51.203-36.893-94.85-88.367-88.421l-23.131 2.889-2.915 23.128c-6.488 51.474 37.37 94.963 88.487 88.374z" fill="#e8b5b1"/><path d="m436.655 254.015c-22.626 2.916-42.932-9.915-51.271-29.123-3.363-7.745-4.776-16.555-3.617-25.745 16.253-2.03 31.453 3.766 41.685 14.265 9.961 10.223 15.198 24.912 13.203 40.603z" fill="#ffdbe0"/></g><g><path d="m423.452 141.924c-10.299-7.198-23.35-11.479-38.068-11.479-3.426-16.301-15.336-28.829-30.505-33.874-17.158-5.708-34.895-10.153-53.066-13.054h-91.654v229.148h118.424c29.99-40.557 56.802-87.772 56.802-87.772 14.718 0 27.769-4.281 38.068-11.479 19.531-13.652 19.531-57.839-.001-71.49z" fill="#e8b5b1"/><path d="m301.813 83.516h-104.175c-19.028 2.894-37.589 7.091-55.517 13.054-15.121 5.029-27.069 17.526-30.505 33.874-14.717 0-27.768 4.28-38.068 11.479-19.531 13.652-19.532 57.838 0 71.489 10.3 7.199 23.35 11.479 38.068 11.479 0 0 26.811 47.215 56.802 87.772h91.741c-16.128-27.084-24.916-58.332-24.924-90.625-.013-53.866 24.489-104.904 66.578-138.522z" fill="#d6948c"/></g><g><path d="m308.86 287.76c-14.603-16.956-42.175-24.477-68.292-22.575v85.883h50.508c6.96-3.513 13.055-8.01 17.784-13.501 6.563-7.621 13.217-16.106 19.722-24.903-6.505-8.797-13.159-17.283-19.722-24.904z" fill="#f2d4d3"/><path d="m265.636 321.29c-11.555-17.072-20.042-36.063-25.069-56.105-20.848 1.519-40.771 9.04-52.427 22.575-6.563 7.621-13.217 16.106-19.722 24.904 6.505 8.797 13.159 17.283 19.722 24.903 21.531 25 71.25 29.496 102.936 13.501-9.62-9.022-18.153-19.011-25.44-29.778z" fill="#e8b5b1"/></g><g><path d="m103.533 180.888c-.734-18.401-13.234-33.597-29.985-38.965-4.217-1.351-8.703-2.08-13.339-2.08-10.011 0-17.9-8.939-23.294-18.943-2.436-4.519-6.984-7.503-12.11-7.788-5.908-.328-11.425 2.94-13.979 8.277-5.358 11.197-10.826 26.924-10.826 47.359v.001c0 23.771 18.585 43.802 42.341 44.638l37.501.032c9.938 0 18.687-6.525 21.56-16.039 1.67-5.53 2.348-11.078 2.131-16.492z" fill="#e8b5b1"/><path d="m486.173 121.39c-2.554-5.337-8.069-8.605-13.976-8.277h-.005c-5.125.284-9.671 3.269-12.107 7.788-5.393 10.004-13.282 18.943-23.294 18.943-23.052 0-42.406 18.012-43.324 41.045-.216 5.414.461 10.962 2.131 16.491 2.873 9.514 11.623 16.039 21.56 16.039l37.501-.032c23.756-.837 42.341-20.868 42.341-44.638v-.001c0-20.435-5.468-36.162-10.827-47.358z" fill="#f2d4d3"/></g><g fill="#d6948c"><circle cx="218.07" cy="312.897" r="15"/><circle cx="278.07" cy="312.897" r="15"/></g><g><g><g><g><ellipse cx="168.943" cy="239.471" fill="#ffdbe0" rx="29.355" ry="23.377"/></g><g><ellipse cx="328.057" cy="239.471" fill="#ffdbe0" rx="29.355" ry="23.377"/></g></g></g><g fill="#313d40"><path d="m186.051 205.468c-4.142 0-7.5 3.357-7.5 7.5v12c0 4.143 3.358 7.5 7.5 7.5s7.5-3.357 7.5-7.5v-12c0-4.142-3.358-7.5-7.5-7.5z"/><path d="m310.949 205.468c-4.142 0-7.5 3.357-7.5 7.5v12c0 4.143 3.358 7.5 7.5 7.5s7.5-3.357 7.5-7.5v-12c0-4.142-3.358-7.5-7.5-7.5z"/></g></g></g><g><g><g><circle cx="175.491" cy="83.516" fill="#2ed0fc" r="28.585"/><circle cx="205.491" cy="53.516" fill="#7ce3ff" r="28.585"/></g><g><circle cx="321.509" cy="83.516" fill="#ea5b70" r="28.585"/><circle cx="291.509" cy="53.516" fill="#ff8e9e" r="28.585"/></g></g><path d="m277.085 44.516c0 8.204-3.456 15.601-8.992 20.814-5.117 4.818-12.01 7.771-19.593 7.771-7.517 0-14.356-2.902-19.459-7.646-5.614-5.219-9.126-12.669-9.126-20.939 0-15.787 12.798-28.585 28.585-28.585s28.585 12.798 28.585 28.585z" fill="#7ce3ff"/></g><g><g><path d="m300.588 83.516c7.632-16.058-8.082-29.426-21.611-22.995l-10.883 4.809h-30l-32.092 70.569 31.216 70.943h30c12.224-3.2 23.791-9.57 33.371-19.15 28.766-28.768 28.766-75.409-.001-104.176z" fill="#fce3a0"/><path d="m245.79 178.446c-6.453-13.089-9.881-27.632-9.79-42.547.091-14.867 3.672-29.321 10.244-42.297 5.372-10.607 12.738-20.229 21.848-28.271l-3.886-10.927c-5.226-14.696-26.01-14.696-31.236 0l-3.93 11.052-10.839-4.934c-13.704-6.514-29.088 7.64-21.79 22.995-28.767 28.767-28.767 75.408 0 104.175 19.187 19.188 46.322 25.558 70.805 19.15-8.968-8.119-16.191-17.78-21.426-28.396z" fill="#ffce71"/></g><g><path d="m248.5 93.541c-.757 0-1.508.021-2.255.061l-40.245 42.297 39.79 42.547c.897.057 1.799.095 2.71.095 23.472 0 42.5-19.028 42.5-42.5s-19.028-42.5-42.5-42.5z" fill="#b9f0ff"/><path d="m246.245 93.602c-22.424 1.172-40.245 19.724-40.245 42.439 0 22.561 17.582 41.006 39.79 42.405-6.453-13.089-9.881-27.632-9.79-42.547.091-14.867 3.673-29.321 10.245-42.297z" fill="#7ce3ff"/></g><circle cx="248.5" cy="136.041" fill="#ea5b70" r="12.5"/></g></g></svg>