<svg id="Capa_1" enable-background="new 0 0 497.025 497.025" height="512" viewBox="0 0 497.025 497.025" width="512" xmlns="http://www.w3.org/2000/svg"><g><g><path d="m397.859 202.1 31.636-37.37c22.314-26.358 19.942-66.253-4.208-90.939-36.872-36.922-101.007-19.3-112.888 31.51l-63.887 95.731v177.481l208.859-74.103c23.568-8.362 39.614-31.412 39.654-56.42-.273-51.91-62.057-77.853-99.166-45.89z" fill="#b0ebd8"/><path d="m184.625 105.301c-11.881-50.81-76.017-68.432-112.888-31.51-24.15 24.686-26.522 64.582-4.208 90.939l37.527 44.328c-35.715-42.178-104.76-16.353-105.056 38.918.038 25.013 16.081 48.07 39.654 56.433l208.858 74.103v-178.497z" fill="#30cd9c"/><path d="m248.512.013c-44.821.158-78.646 42.169-68.441 85.813l68.441 292.686 68.441-292.686c10.206-43.644-23.62-85.655-68.441-85.813z" fill="#70dcba"/></g><g><path d="m270.036 318.99h-32.215l-35.148 77.564 59.395 68.58h32.215c14.84-12.718 24.229-31.511 24.229-52.473 0-31.104-24.839-67.255-48.476-93.671z" fill="#2ed0fc"/><g><path d="m234.888 396.554c0-24.642 16.434-53.461 35.148-77.564h-42.977c-23.474 26.425-48.546 63.233-48.546 93.671 0 39.403 31.519 69.35 70 69.352 17.5.001 33.499-6.362 45.771-16.878-33.502-4.922-59.396-32.867-59.396-68.581z" fill="#1cbbea"/></g></g><g><circle cx="195.707" cy="178.482" fill="#1cbbea" r="17.5"/><circle cx="248.546" cy="167.482" fill="#1cbbea" r="25"/><circle cx="301.317" cy="178.482" fill="#2ed0fc" r="17.5"/></g><g><g><path d="m339.723 215.788c-14.403-18.678-34.072-32.144-56.058-39.123h-44.231l-80.67 95.138 77.366 100.886h44.231c6.103-1.44 12.018-3.276 17.657-5.528 38.741-15.465 65.494-49.567 65.494-95.359 0-18.589-9.852-37.94-23.789-56.014z" fill="#2ed0fc"/><path d="m248.512 361.931c-32.605-17.205-54.363-48.923-54.363-90.128 0-37.569 28.215-79.316 74.297-91.223l15.219-3.915c-11.243-3.569-23.091-5.446-35.153-5.446-35.648 0-69.442 16.339-91.21 44.569-13.937 18.074-23.79 37.425-23.79 56.015 0 63.512 51.487 104.544 115 104.544 10.751 0 21.247-1.153 31.849-3.657-11.342-1.752-22.064-5.389-31.849-10.551z" fill="#1cbbea"/></g><g fill="#ff8e9e"><ellipse cx="179.768" cy="302.609" rx="25.605" ry="20.391"/><path d="m318.557 282.218c-14.142 0-25.606 9.129-25.606 20.391s11.464 20.391 25.606 20.391c14.141 0 25.605-9.129 25.605-20.391.001-11.262-11.463-20.391-25.605-20.391z"/></g><g fill="#313d40"><path d="m186.064 268.481c-4.142 0-7.5 3.357-7.5 7.5v12c0 4.143 3.358 7.5 7.5 7.5s7.5-3.357 7.5-7.5v-12c0-4.143-3.358-7.5-7.5-7.5z"/><path d="m310.961 268.481c-4.142 0-7.5 3.357-7.5 7.5v12c0 4.143 3.358 7.5 7.5 7.5s7.5-3.357 7.5-7.5v-12c0-4.143-3.358-7.5-7.5-7.5z"/></g></g><g><g><path d="m261.391 276.67h-18.857l.106 56.568h18.857l6.508-6.683c5.267-5.27 10.508-12.978 10.508-21.154-.001-14.062-7.357-24.087-17.122-28.731z" fill="#efedff"/></g><path d="m244.227 305.403c0-3.516.087-7.379 2.033-12.412 2.781-7.191 8.235-13.032 15.131-16.32-4.002-1.903-8.406-2.908-12.878-2.908-12.739 0-23.616 7.978-27.967 19.228-1.946 5.032-2.033 8.896-2.033 12.412 0 8.176 5.241 15.884 10.508 21.154l11.474 11.338c2.204 2.245 5.003 3.368 8.018 3.368s6.247-1.122 8.451-3.368l4.534-4.656-6.763-6.683c-5.268-5.27-10.508-12.977-10.508-21.153z" fill="#d4d4ff"/></g><path d="m233.512 467.012h-30c-8.284 0-15 6.716-15 15s6.716 15 15 15h30c8.284 0 15-6.716 15-15s-6.715-15-15-15z" fill="#d4d4ff"/><path d="m293.512 467.012h-30c-8.284 0-15 6.716-15 15s6.716 15 15 15h30c8.284 0 15-6.716 15-15s-6.715-15-15-15z" fill="#efedff"/><g><circle cx="248.258" cy="70.012" fill="#fce3a0" r="40"/><circle cx="248.258" cy="70.012" fill="#1cbbea" r="15"/></g><g><circle cx="119.423" cy="121.248" fill="#ffce71" r="37"/><circle cx="119.422" cy="121.248" fill="#1cbbea" r="7.5"/></g><g><circle cx="59.308" cy="247.953" fill="#ffce71" r="29"/><circle cx="59.308" cy="247.953" fill="#1cbbea" r="7.5"/></g><g><circle cx="377.602" cy="121.248" fill="#ffce71" r="37"/><circle cx="377.602" cy="121.248" fill="#1cbbea" r="7.5"/></g><g><circle cx="437.717" cy="247.953" fill="#ffce71" r="29"/><circle cx="437.717" cy="247.953" fill="#1cbbea" r="7.5"/></g></g></svg>