<svg id="Capa_1" enable-background="new 0 0 497 497" height="512" viewBox="0 0 497 497" width="512" xmlns="http://www.w3.org/2000/svg"><g><g><path d="m448.504 248.5 32.089-47.152c12.507-18.377 4.306-43.616-16.613-51.132l-53.673-19.284-1.753-57.009c-.683-22.219-22.151-37.818-43.493-31.601l-54.757 15.95-180.003 190.228 180.004 190.228 54.757 15.95c21.341 6.216 42.81-9.382 43.493-31.601l1.753-57.009 53.673-19.284c20.919-7.516 29.119-32.755 16.613-51.132z" fill="#fce3a0"/><path d="m310.305 58.272-34.925-45.091c-13.612-17.574-40.148-17.574-53.76 0l-34.925 45.091-54.757-15.95c-21.341-6.216-42.81 9.382-43.493 31.601l-1.753 57.009-53.672 19.284c-20.919 7.516-29.119 32.755-16.613 51.132l32.089 47.152-32.089 47.152c-12.507 18.377-4.306 43.616 16.613 51.132l53.673 19.284 1.753 57.009c.683 22.219 22.151 37.818 43.493 31.601l54.757-15.95 34.925 45.091c13.612 17.574 40.148 17.574 53.76 0l34.925-45.091c-105.054-105.06-105.054-275.396-.001-380.456z" fill="#ffce71"/></g><g><circle cx="360.567" cy="164.372" fill="#d4d4ff" r="70"/><circle cx="360.601" cy="164.339" fill="#ffb5c0" r="24.953"/></g><g><circle cx="136.433" cy="164.372" fill="#9ea2e3" r="70"/><circle cx="136.812" cy="164.752" fill="#ff8e9e" r="25.537"/></g><g><path d="m388.359 289.287c-2.91-17.684-11.531-35.948-20.73-53.071-16.774-31.223-44.204-58.652-77.061-71.843h-70.162v213.33l28.094 24.925c17.662 0 34.134-1.948 49.017-5.761 15.816-4.051 29.838-10.209 41.564-18.399 8.179-5.712 15.255-12.402 21.035-20.061 11.52-15.264 17.943-34.335 17.943-56.991 6.438 0 11.345-5.775 10.3-12.129z" fill="#d4d4ff"/><path d="m275.343 135.973-9.516 4.523-3.53-9.928c-2.308-6.491-8.053-9.737-13.797-9.737s-11.488 3.246-13.797 9.737l-3.53 9.928-9.516-4.523c-12.445-5.916-25.427 7.066-19.512 19.511l4.287 8.887c-32.857 13.191-60.287 40.621-77.062 71.844-9.199 17.124-17.821 35.388-20.73 53.071-1.046 6.354 3.861 12.129 10.301 12.129 0 22.654 6.422 41.725 17.94 56.988 21.864 28.972 62.091 44.224 111.618 44.224-9.146-19.637-15.045-40.16-17.836-60.876l17.836-15v-12.962l-18.972-18c4.112-48.554 24.985-95.362 61.04-131.417l4.286-8.889c5.916-12.444-7.066-25.426-19.51-19.51z" fill="#9ea2e3"/></g><g><g><g><ellipse cx="178.943" cy="321.914" fill="#ff8e9e" rx="29.355" ry="23.377"/></g><g><ellipse cx="318.056" cy="321.914" fill="#ff8e9e" rx="29.355" ry="23.377"/></g></g></g><g><path d="m248.5 331.83c-5.574 5.574-12.497 9.483-20 11.424v12.855c0 8.284 6.716 15 15 15h10c8.284 0 15-6.716 15-15v-12.855c-7.504-1.941-14.427-5.85-20-11.424z" fill="#efecf7"/><path d="m279.462 337.155c-8.693 0-16.913-3.044-23.462-8.614v-17.871h-15v17.884c-6.547 5.567-14.771 8.602-23.462 8.602-4.142 0-7.5 3.357-7.5 7.5s3.358 7.5 7.5 7.5c11.331 0 22.096-3.659 30.962-10.403 8.866 6.744 19.63 10.403 30.962 10.403 4.142 0 7.5-3.357 7.5-7.5s-3.358-7.501-7.5-7.501z" fill="#313d40"/><path d="m268.5 296.786c0-7.797-8.954-14.118-20-14.118s-20 6.321-20 14.118 8.954 17.882 20 17.882 20-10.085 20-17.882z" fill="#ff8e9e"/></g><g fill="#efedff"><path d="m146.43 351.232-28.74 14.636c-3.691 1.88-5.16 6.396-3.28 10.087 1.88 3.691 6.396 5.16 10.087 3.28l28.516-14.521c3.399-1.731 5.183-5.716 3.891-9.305-1.562-4.34-6.497-6.2-10.474-4.177z"/><path d="m141.511 329.608c-.123-4.105-3.704-7.27-7.811-7.27h-30.519c-4.142 0-7.5 3.358-7.5 7.5 0 4.142 3.358 7.5 7.5 7.5h30.834c4.218-.001 7.623-3.483 7.496-7.73z"/><path d="m361.348 322.337c-4.218 0-7.623 3.482-7.497 7.73.123 4.105 3.704 7.27 7.811 7.27h30.519c4.142 0 7.5-3.358 7.5-7.5 0-4.142-3.358-7.5-7.5-7.5z"/><path d="m338.746 354.716c-1.755 3.715.001 8.163 3.662 10.027l28.458 14.492c3.691 1.88 8.207.411 10.087-3.28 1.88-3.691.411-8.207-3.28-10.087l-28.74-14.636c-3.758-1.912-8.372-.358-10.187 3.484z"/></g><g fill="#313d40"><path d="m201 282.41c-4.142 0-7.5 3.357-7.5 7.5 0 4.136-3.364 7.5-7.5 7.5s-7.5-3.364-7.5-7.5c0-4.143-3.358-7.5-7.5-7.5s-7.5 3.357-7.5 7.5c0 12.406 10.093 22.5 22.5 22.5s22.5-10.094 22.5-22.5c0-4.142-3.358-7.5-7.5-7.5z"/><path d="m326 282.41c-4.142 0-7.5 3.357-7.5 7.5 0 4.136-3.364 7.5-7.5 7.5s-7.5-3.364-7.5-7.5c0-4.143-3.358-7.5-7.5-7.5s-7.5 3.357-7.5 7.5c0 12.406 10.093 22.5 22.5 22.5s22.5-10.094 22.5-22.5c0-4.142-3.358-7.5-7.5-7.5z"/></g><circle cx="248.5" cy="228.788" fill="#ff8e9e" r="7.5"/></g></svg>