<svg id="Capa_1" enable-background="new 0 0 497.052 497.052" height="512" viewBox="0 0 497.052 497.052" width="512" xmlns="http://www.w3.org/2000/svg"><g><g><path d="m68.526 142.49c0 78.695 80.589 142.49 180 142.49v-284.98c-99.411 0-180 63.795-180 142.49z" fill="#ffb357"/><path d="m248.526 0v284.98c99.411 0 180-63.795 180-142.49s-80.588-142.49-180-142.49z" fill="#ffce71"/></g><g><path d="m68.526 142.49c0 78.695 80.589 142.49 180 142.49v-284.98c-99.411 0-180 63.795-180 142.49z" fill="#ffb357"/><path d="m248.526 0v284.98c99.411 0 180-63.795 180-142.49s-80.588-142.49-180-142.49z" fill="#ffce71"/></g><g><path d="m273.244 147.892h-45v186.848 151.323h45 45.001v-90.214l-20-30 20-30v-187.957z" fill="#fce3a0"/><path d="m262.516 359.839c-8.958-8.958-13.99-21.107-13.99-33.776v-197.563h-69.718v148.782l20 30-20 30v28.567h69.718 20z" fill="#ffce71"/></g><g fill="#ffb357"><path d="m198.244 277.281h-19.437v48.781 11.219h19.437c16.568 0 30-13.432 30-30s-13.431-30-30-30z"/><path d="m298.526 335.849c-16.568 0-30 13.432-30 30s13.432 30 30 30h19.718v-60z"/></g><g><path d="m277.79 3.023-91.823 18.769v136.708l104.881 17.107c51.018-10.94 87.678-41.104 87.678-76.606 0-38.466-43.032-83.977-100.736-95.978z" fill="#fce3a0"/><path d="m222.526 92.4c0-30.497 21.363-64.484 55.264-89.377-9.406-1.956-19.201-3.023-29.264-3.023-71.797 0-130 54.265-130 99s58.203 81 130 81c14.818 0 29.054-1.548 42.322-4.393-41.385-18.637-68.322-48.96-68.322-83.207z" fill="#ffce71"/></g><g><path d="m284.146 218.138-20.62-20.62v-45.569h-30v45.569l-20.62 20.62c-5.858 5.857-5.858 15.355 0 21.213 5.857 5.857 15.355 5.857 21.213 0l14.407-14.407 14.407 14.407c2.929 2.929 6.768 4.394 10.606 4.394s7.678-1.465 10.606-4.394c5.86-5.858 5.86-15.356.001-21.213z" fill="#ff8e9e"/><path d="m277.437 133.164c-4.143 0-7.5 3.357-7.5 7.5 0 3.836-3.12 6.956-6.956 6.956-3.835 0-6.955-3.12-6.955-6.956 0-4.143-3.357-7.5-7.5-7.5s-7.5 3.357-7.5 7.5c0 3.836-3.12 6.956-6.955 6.956-3.836 0-6.956-3.12-6.956-6.956 0-4.143-3.357-7.5-7.5-7.5s-7.5 3.357-7.5 7.5c0 12.106 9.85 21.956 21.956 21.956 5.533 0 10.59-2.062 14.455-5.451 3.865 3.39 8.922 5.451 14.455 5.451 12.106 0 21.956-9.85 21.956-21.956 0-4.143-3.357-7.5-7.5-7.5z" fill="#313d40"/></g><g><g><g><ellipse cx="168.97" cy="121.36" fill="#ff8e9e" rx="29.355" ry="23.377"/></g><g><ellipse cx="328.083" cy="121.36" fill="#ff8e9e" rx="29.355" ry="23.377"/></g></g></g><g fill="#313d40"><path d="m196.077 93.356c-4.143 0-7.5 3.357-7.5 7.5v12c0 4.143 3.357 7.5 7.5 7.5s7.5-3.357 7.5-7.5v-12c0-4.142-3.357-7.5-7.5-7.5z"/><path d="m300.974 93.356c-4.143 0-7.5 3.357-7.5 7.5v12c0 4.143 3.357 7.5 7.5 7.5s7.5-3.357 7.5-7.5v-12c0-4.142-3.357-7.5-7.5-7.5z"/></g><g><path d="m268.526 397v98.64h50.658c3.697-.649 7.316-1.523 10.842-2.607 36.794-11.319 63.5-45.573 63.5-86.032v-10h-125z" fill="#d6948c"/><path d="m268.526 425.849v-28.849h-163.013v28.849c8.658 40.574 44.685 71.151 88.013 71.151 119.131 0 115.19.463 125.658-1.36 3.697-.649 7.311-1.536 10.838-2.621-30.923-9.523-54.683-35.247-61.496-67.17z" fill="#ce857a"/></g><g><path d="m407.026 365.849h-138.5l-38.5 31.151 38.5 28.849h138.5c16.569 0 30-13.432 30-30 0-16.569-13.431-30-30-30z" fill="#f2d4d3"/><path d="m268.526 365.849h-178.5c-16.569 0-30 13.431-30 30 0 16.568 13.431 30 30 30h178.5c-16.568-16.569-16.568-43.432 0-60z" fill="#e8b5b1"/></g></g></svg>