<svg id="Capa_1" enable-background="new 0 0 497 497" height="512" viewBox="0 0 497 497" width="512" xmlns="http://www.w3.org/2000/svg"><g><path d="m276.08 24.016c-3.438-3.439-8.13-4.843-12.604-4.244-.254-8.061-6.853-14.522-14.976-14.522s-14.721 6.461-14.976 14.522c-4.475-.599-9.167.805-12.605 4.244-5.858 5.858-5.857 15.355 0 21.213l16.975 16.974c5.817 5.839 15.363 5.852 21.215-.003l16.971-16.971c5.859-5.858 5.859-15.355 0-21.213z" fill="#30cd9c"/><g><path d="m248.5 125.123-164.168 255.667h328.336z" fill="#fc8a3d"/><g><path d="m248.5 49.456c-1.004 0-2.002.024-2.997.06l-45.38 27.05-34.456 55.724 34.456 55.724 45.38 27.05c.995.036 1.993.06 2.997.06 45.674 0 82.833-37.159 82.833-82.833s-37.159-82.835-82.833-82.835z" fill="#ffce71"/><g><path d="m209.484 132.29c0-32.681 13.861-62.119 36.018-82.773-44.291 1.584-79.836 38.103-79.836 82.773s35.545 81.189 79.836 82.773c-22.156-20.654-36.018-50.093-36.018-82.773z" fill="#ffb357"/></g></g><g><path d="m165.667 132.29c-1.004 0-2.002.024-2.997.06l-45.38 27.05-34.456 55.724 34.456 55.724 45.38 27.05c.995.036 1.993.06 2.997.06 45.674 0 82.833-37.159 82.833-82.833s-37.159-82.835-82.833-82.835z" fill="#ffce71"/><g><path d="m126.651 215.123c0-32.681 13.861-62.119 36.018-82.773-44.291 1.584-79.836 38.103-79.836 82.773s35.545 81.189 79.836 82.773c-22.157-20.654-36.018-50.092-36.018-82.773z" fill="#ffb357"/></g></g><g><path d="m331.333 132.29c-1.004 0-2.002.024-2.997.06l-45.38 27.05-34.456 55.723 34.456 55.724 45.38 27.05c.995.036 1.993.06 2.997.06 45.674 0 82.833-37.159 82.833-82.833s-37.158-82.834-82.833-82.834z" fill="#ffce71"/><g><path d="m292.318 215.123c0-32.681 13.861-62.119 36.018-82.773-44.291 1.584-79.836 38.103-79.836 82.773s35.545 81.189 79.836 82.773c-22.157-20.654-36.018-50.092-36.018-82.773z" fill="#ffb357"/></g></g><g><path d="m82.833 215.123c-1.004 0-2.002.024-2.997.06l-45.38 27.05-34.456 55.723 34.456 55.724 45.38 27.05c.995.036 1.993.06 2.997.06 45.674 0 82.833-37.159 82.833-82.833s-37.158-82.834-82.833-82.834z" fill="#ffce71"/><g><path d="m43.818 297.956c0-32.681 13.861-62.119 36.018-82.773-44.291 1.584-79.836 38.102-79.836 82.773 0 44.67 35.545 81.189 79.836 82.773-22.157-20.654-36.018-50.092-36.018-82.773z" fill="#ffb357"/></g></g><g><path d="m414.167 215.123c-1.004 0-2.002.024-2.997.06l-45.38 27.05-34.456 55.724 34.456 55.724 45.38 27.05c.995.036 1.993.06 2.997.06 45.674 0 82.833-37.159 82.833-82.833s-37.159-82.835-82.833-82.835z" fill="#ffce71"/><g><path d="m375.151 297.956c0-32.681 13.861-62.119 36.018-82.773-44.291 1.584-79.836 38.103-79.836 82.773s35.545 81.189 79.836 82.773c-22.157-20.654-36.018-50.092-36.018-82.773z" fill="#ffb357"/></g></g><g><path d="m248.5 215.123c-1.004 0-2.002.024-2.997.06l-45.38 27.05-34.456 55.724 34.456 55.724 45.38 27.05c.995.036 1.993.06 2.997.06 45.674 0 82.833-37.159 82.833-82.833s-37.159-82.835-82.833-82.835z" fill="#ffce71"/><g><path d="m209.485 297.956c0-32.681 13.861-62.119 36.018-82.773-44.291 1.584-79.836 38.103-79.836 82.773s35.545 81.189 79.836 82.773c-22.157-20.654-36.018-50.092-36.018-82.773z" fill="#ffb357"/></g></g><g fill="#fc8a3d"><circle cx="117.347" cy="292.991" r="7.5"/><circle cx="37.347" cy="272.991" r="7.5"/><circle cx="117.347" cy="192.991" r="7.5"/><circle cx="197.347" cy="182.991" r="7.5"/><circle cx="327.347" cy="222.991" r="7.5"/><circle cx="357.347" cy="172.991" r="7.5"/><circle cx="277.347" cy="112.991" r="7.5"/><circle cx="227.347" cy="82.991" r="7.5"/><circle cx="87.347" cy="332.991" r="7.5"/><circle cx="207.347" cy="310.991" r="7.5"/><circle cx="277.347" cy="330.991" r="7.5"/><circle cx="437.347" cy="320.991" r="7.5"/><circle cx="297.347" cy="280.991" r="7.5"/><circle cx="381.347" cy="305.991" r="7.5"/><circle cx="421.347" cy="265.991" r="7.5"/></g></g><g><g><path d="m467 361.75h-236.848l-50 30.878 67.63 99.122h115.718c43.24 0 79.352-30.228 88.017-70.527h15.483c16.568 0 30-13.314 30-29.737s-13.432-29.736-30-29.736z" fill="#ff8e9e"/><path d="m230.153 421.223c-16.569-16.423-16.569-43.05 0-59.473h-200.153c-16.569 0-30 13.313-30 29.737 0 16.423 13.431 29.737 30 29.737h15.483c8.665 40.299 44.777 70.527 88.017 70.527h183.652c-43.24-.001-78.335-30.229-86.999-70.528z" fill="#ea5b70"/></g><g><g><g><ellipse cx="328.057" cy="452.571" fill="#ffdbe0" rx="29.355" ry="23.377"/></g><g><ellipse cx="168.943" cy="452.571" fill="#ffdbe0" rx="29.355" ry="23.377"/></g></g></g></g><g fill="#313d40"><path d="m310.948 416.568c-4.143 0-7.5 3.358-7.5 7.5v12c0 4.142 3.357 7.5 7.5 7.5s7.5-3.358 7.5-7.5v-12c0-4.142-3.357-7.5-7.5-7.5z"/><path d="m186.052 416.568c-4.143 0-7.5 3.358-7.5 7.5v12c0 4.142 3.357 7.5 7.5 7.5s7.5-3.358 7.5-7.5v-12c0-4.142-3.358-7.5-7.5-7.5z"/><path d="m269.892 430.057c-3.122-2.721-7.859-2.396-10.582.727-5.727 6.57-15.898 6.563-21.619 0-2.72-3.123-7.458-3.448-10.582-.727-3.122 2.722-3.448 7.459-.727 10.582 11.704 13.43 32.543 13.417 44.236 0 2.722-3.123 2.396-7.861-.726-10.582z"/></g></g></svg>