<svg id="Capa_1" enable-background="new 0 0 497 497" height="512" viewBox="0 0 497 497" width="512" xmlns="http://www.w3.org/2000/svg"><g><path d="m256.121 131.682c5.15-1.004 9.188-5.042 10.192-10.192 3.171-16.27-1.54-33.774-14.148-46.382s-30.112-17.319-46.382-14.147c-5.15 1.003-9.188 5.042-10.192 10.192-3.171 16.27 1.54 33.774 14.148 46.382s30.112 17.319 46.382 14.147z" fill="#70dcba"/><path d="m145.267 391.159c0 25.315 20.522 45.837 45.837 45.837h114.792c25.315 0 45.837-20.521 45.837-45.837l-103.233-30z" fill="#ffb357"/><g><g><path d="m432.659 119.007c-7.613-8.15-20.553-9.153-29.111-1.473-11.084-9.941-27.699-9.923-38.762 0-11.084-9.941-27.699-9.922-38.762 0-11.084-9.941-27.699-9.923-38.762 0-11.083-9.941-27.698-9.922-38.762 0-11.083-9.94-27.698-9.924-38.762 0h-38.762v79.774h282.001v-38.149c0-21.494-13.477-32.83-20.318-40.152z" fill="#efedff"/><path d="m209.536 117.576.203-.042c-11.084-9.941-27.699-9.922-38.762 0-11.084-9.941-27.698-9.922-38.762 0-11.083-9.94-27.699-9.923-38.762 0-8.119-7.273-20.29-6.538-27.744.917-6.957 6.957-21.686 18.338-21.686 40.709v38.149h131.594v-38.149c0-20.157 14.174-37.534 33.919-41.584z" fill="#d4d4ff"/></g><g><circle cx="111.834" cy="133.15" fill="#9ea2e3" r="7.5"/><circle cx="150.834" cy="140.15" fill="#9ea2e3" r="7.5"/><g fill="#d4d4ff"><circle cx="208.834" cy="137.15" r="7.5"/><circle cx="324.834" cy="137.15" r="7.5"/><circle cx="383.834" cy="140.15" r="7.5"/><circle cx="267.834" cy="133.15" r="7.5"/></g></g></g><g><g><path d="m15.007 271.014c18.871 70.926 55.956 120.146 130.26 120.146h131.594v-166.079h-219.401z" fill="#ff6f4d"/><path d="m44.023 159.159c-28.994 0-49.474 27.82-42.733 55.637l11.714 48.343c.643 2.654 1.312 5.277 2.003 7.874 43.691-21.784 97.434-16.496 136.243 15.861l24.367-19.663v-108.052c-71.207 0-128.863 0-131.594 0z" fill="#ffb357"/></g><g><path d="m151.25 286.875c20.102 62.297 56.982 104.284 125.611 104.284h74.873c74.305 0 111.39-49.22 130.26-120.146v-45.933h-330.744z" fill="#ff8f71"/><path d="m495.711 214.797c6.735-27.796-13.716-55.637-42.733-55.637-4.522 0-159.503 0-277.36 0-28.994 0-49.474 27.82-42.733 55.637l11.714 48.343c1.985 8.19 4.193 16.114 6.653 23.735 2.915 2.431 5.751 5.007 8.487 7.743l.027.027c49.008 49.008 128.465 49.008 177.473 0l.027-.027c39.159-39.159 97.757-47.024 144.73-23.604.691-2.597 1.36-5.22 2.003-7.874z" fill="#ffce71"/></g></g><g fill="#ff8e9e"><ellipse cx="166.943" cy="243.874" rx="29.355" ry="23.377"/><ellipse cx="330.057" cy="243.874" rx="29.355" ry="23.377"/></g><g><path d="m285.667 237.325c-2.998-2.998-6.513-5.557-10.253-7.579-7.029 9.571-17.094 15.587-28.294 15.587-3.259 0-6.418-.525-9.439-1.482-.011 9.698 4.851 20.996 12.658 28.803 12.251 12.251 27.068 11.251 36.824 1.495 9.755-9.756 10.755-24.573-1.496-36.824z" fill="#ff8e9e"/><path d="m275.41 252.861-9.047-14.048-12.611 8.121 9.047 14.048c2.241 3.48 6.88 4.489 10.367 2.245 3.481-2.243 4.486-6.883 2.244-10.366z" fill="#ea5b70"/></g><g fill="#313d40"><path d="m334.035 219.509c-4.117-4.716-10.062-7.419-16.312-7.419-.007 0-.014 0-.02 0-6.258.006-12.206 2.721-16.319 7.449-2.718 3.125-2.389 7.862.736 10.58 1.42 1.236 3.173 1.842 4.919 1.842 2.095 0 4.179-.873 5.662-2.578 1.266-1.455 3.094-2.291 5.015-2.293h.006c1.919 0 3.746.832 5.013 2.284 2.725 3.121 7.463 3.44 10.582.718 3.121-2.725 3.442-7.462.718-10.583z"/><path d="m181.313 212.213c-.007 0-.014 0-.02 0-6.258.006-12.206 2.721-16.318 7.449-2.718 3.125-2.389 7.862.736 10.58 1.42 1.236 3.173 1.842 4.919 1.842 2.095 0 4.179-.873 5.662-2.578 1.266-1.455 3.094-2.291 5.015-2.293h.006c1.919 0 3.746.832 5.013 2.284 2.725 3.121 7.463 3.44 10.582.718 3.121-2.725 3.442-7.462.718-10.583-4.117-4.716-10.062-7.419-16.313-7.419z"/><path d="m280.403 222.627c-3.401-2.366-8.074-1.527-10.44 1.873-5.895 8.474-14.221 13.333-22.843 13.333s-16.949-4.859-22.843-13.333c-2.366-3.399-7.04-4.238-10.44-1.873s-4.239 7.039-1.874 10.439c8.739 12.562 21.553 19.767 35.157 19.767s26.417-7.205 35.157-19.767c2.365-3.4 1.526-8.074-1.874-10.439z"/></g></g></svg>