<svg id="Capa_1" enable-background="new 0 0 497 497" height="512" viewBox="0 0 497 497" width="512" xmlns="http://www.w3.org/2000/svg"><g><path d="m398.379 164.873c-1.922-7.006-7.514-12.471-14.666-14.334 1.226-6.806-1.013-13.768-5.998-18.653-4.985-4.887-12.088-7.081-19.03-5.88-3.012-6.059-8.554-10.542-15.195-12.293-6.641-1.752-13.73-.599-19.437 3.162h-152.376c-5.707-3.761-12.796-4.914-19.437-3.162-6.641 1.751-12.183 6.234-15.195 12.293-6.942-1.201-14.046.993-19.03 5.88-4.985 4.886-7.224 11.848-5.998 18.653-7.152 1.863-12.744 7.328-14.666 14.334-1.922 7.005.118 14.482 5.351 19.611-5.233 5.129-7.273 12.606-5.351 19.611s7.514 12.47 14.666 14.334c-1.226 6.805 1.013 13.768 5.998 18.653 4.985 4.887 12.088 7.081 19.03 5.88v130h221.64v-130c6.942 1.201 14.046-.993 19.03-5.88 4.985-4.886 7.224-11.849 5.998-18.653 7.152-1.864 12.744-7.329 14.666-14.334s-.118-14.482-5.351-19.611c5.233-5.129 7.273-12.606 5.351-19.611z" fill="#fc8a3d"/><g><g><path d="m467 331.292h-236.848l-50 30.878 67.63 99.122h115.718c43.24 0 79.352-30.228 88.017-70.527h15.483c16.568 0 30-13.314 30-29.737s-13.432-29.736-30-29.736z" fill="#b0ebd8"/><path d="m230.153 390.765c-16.569-16.423-16.569-43.05 0-59.473h-200.153c-16.569 0-30 13.313-30 29.737 0 16.423 13.431 29.737 30 29.737h15.483c8.665 40.299 44.777 70.527 88.017 70.527h183.652c-43.24-.001-78.335-30.229-86.999-70.528z" fill="#70dcba"/></g><g><g><g><ellipse cx="328.057" cy="422.113" fill="#ff8e9e" rx="29.355" ry="23.377"/></g><g><ellipse cx="168.943" cy="422.113" fill="#ff8e9e" rx="29.355" ry="23.377"/></g></g></g></g><g><path d="m225.403 259.693c-2-7.438-7.82-13.239-15.262-15.219 1.276-7.225-1.054-14.616-6.241-19.804s-12.58-7.517-19.804-6.241c-3.135-6.433-8.902-11.193-15.813-13.052s-14.288-.635-20.227 3.357h-20l-30.008 71.777 29.992 71.771h20c5.939 3.992 13.331 5.226 20.242 3.366 6.911-1.858 12.678-6.619 15.813-13.052 7.224 1.275 14.616-1.054 19.804-6.241 5.187-5.188 7.517-12.579 6.241-19.804 7.442-1.979 13.262-7.781 15.262-15.219 2-7.437-.123-15.375-5.568-20.82 5.446-5.444 7.569-13.383 5.569-20.819z" fill="#ffce71"/><path d="m179.639 269.029c0-16.026-8.207-30.136-20.647-38.355-.006-10.317-4.31-17.664-10.935-21.938-5.939-3.992-13.316-5.217-20.227-3.357-6.911 1.858-12.678 6.619-15.813 13.052-7.224-1.275-14.616 1.054-19.804 6.241-5.187 5.188-7.517 12.579-6.241 19.804-7.442 1.979-13.262 7.781-15.262 15.219-2 7.437.123 15.375 5.568 20.82-5.445 5.445-7.569 13.384-5.568 20.82 2 7.438 7.82 13.239 15.262 15.219-1.276 7.225 1.054 14.616 6.241 19.804s12.58 7.517 19.804 6.241c3.135 6.433 8.902 11.193 15.813 13.052s14.272.626 20.211-3.366c-16.394-11.193-17.8-33.235-5.167-46.488 20.297-.003 36.765-16.471 36.765-36.768z" fill="#ffb357"/><path d="m142.874 305.794c-12.292 0-23.984-12.393-23.984-26.066 0-10.672 8.682-19.354 19.354-19.354 4.142 0 7.5-3.357 7.5-7.5s-3.358-7.5-7.5-7.5c-18.942 0-34.354 15.411-34.354 34.355 0 22.645 18.422 41.066 41.067 41.066v-14.94c-.7-.001-1.395-.061-2.083-.061z" fill="#ffce71"/></g><g fill="#313d40"><path d="m310.948 386.11c-4.143 0-7.5 3.358-7.5 7.5v12c0 4.142 3.357 7.5 7.5 7.5s7.5-3.358 7.5-7.5v-12c0-4.142-3.357-7.5-7.5-7.5z"/><path d="m186.052 386.11c-4.143 0-7.5 3.358-7.5 7.5v12c0 4.142 3.357 7.5 7.5 7.5s7.5-3.358 7.5-7.5v-12c0-4.142-3.358-7.5-7.5-7.5z"/><path d="m269.892 399.599c-3.122-2.721-7.859-2.396-10.582.727-5.727 6.57-15.898 6.563-21.619 0-2.72-3.123-7.458-3.448-10.582-.727-3.122 2.722-3.448 7.459-.727 10.582 11.704 13.43 32.543 13.417 44.236 0 2.722-3.123 2.396-7.861-.726-10.582z"/></g><g><path d="m417.47 320.483c3.845-6.674 3.832-14.891-.031-21.553 6.011-4.207 9.59-11.081 9.59-18.417s-3.58-14.21-9.59-18.417c2.332-6.765 1.62-14.21-1.952-20.41-3.572-6.201-9.654-10.552-16.676-11.928l-14.142-14.142-71.973 29.536-29.542 71.957 14.142 14.142c1.377 7.022 5.732 13.122 11.933 16.694s13.645 4.284 20.41 1.952c4.206 6.01 11.08 9.59 18.417 9.59 7.336 0 14.21-3.579 18.417-9.59 6.662 3.863 14.88 3.875 21.553.031s10.785-10.935 10.785-18.635c7.7-.001 14.815-4.137 18.659-10.81z" fill="#ffce71"/><path d="m378.508 294.724c11.332-11.332 15.506-27.112 12.522-41.721 7.291-7.3 9.443-15.538 7.78-23.245-1.377-7.022-5.727-13.105-11.928-16.676-6.201-3.572-13.645-4.284-20.41-1.952-4.206-6.01-11.08-9.59-18.417-9.59-7.336 0-14.21 3.579-18.417 9.59-6.662-3.863-14.88-3.875-21.553-.031s-10.785 10.959-10.785 18.66c-7.701 0-14.816 4.112-18.66 10.785-3.845 6.674-3.832 14.891.031 21.553-6.011 4.207-9.59 11.081-9.59 18.417s3.58 14.21 9.59 18.417c-2.332 6.765-1.62 14.21 1.952 20.41 3.572 6.201 9.649 10.535 16.672 11.911-3.678-19.507 10.914-36.088 29.219-36.526 14.353 14.351 37.642 14.35 51.994-.002z" fill="#ffb357"/><path d="m326.515 294.725c-8.692-8.692-8.196-25.722 1.473-35.391 7.546-7.546 19.825-7.546 27.371-.001 2.929 2.929 7.677 2.929 10.607 0 2.929-2.929 2.929-7.678 0-10.607-13.394-13.394-35.189-13.394-48.584.001-16.012 16.012-16.012 42.065 0 58.077l10.564-10.565c-.495-.494-.945-1.027-1.431-1.514z" fill="#ffce71"/></g><g><path d="m177.616 154.652c-3.845-6.674-3.832-14.891.031-21.553-6.011-4.207-9.59-11.081-9.59-18.417s3.58-14.21 9.59-18.417c-2.332-6.765-1.62-14.21 1.952-20.41 3.572-6.201 9.654-10.552 16.676-11.928l14.142-14.142 71.973 29.536 29.542 71.957-14.142 14.142c-1.377 7.022-5.732 13.122-11.933 16.694s-13.645 4.284-20.41 1.952c-4.206 6.01-11.08 9.59-18.417 9.59-7.336 0-14.21-3.579-18.417-9.59-6.662 3.863-14.88 3.875-21.553.031s-10.785-10.959-10.785-18.66c-7.7 0-14.815-4.112-18.659-10.785z" fill="#ffb357"/><path d="m216.578 128.893c-11.332-11.332-15.506-27.112-12.522-41.721-7.291-7.3-9.443-15.538-7.78-23.245 1.377-7.022 5.727-13.105 11.928-16.676 6.201-3.572 13.645-4.284 20.41-1.952 4.206-6.01 11.08-9.59 18.417-9.59 7.336 0 14.21 3.579 18.417 9.59 6.662-3.863 14.88-3.875 21.553-.031s10.785 10.959 10.785 18.66c7.701 0 14.816 4.112 18.66 10.785 3.845 6.674 3.832 14.891-.031 21.553 6.011 4.207 9.59 11.081 9.59 18.417s-3.58 14.21-9.59 18.417c2.332 6.765 1.62 14.21-1.952 20.41-3.572 6.201-9.649 10.535-16.672 11.911 3.678-19.507-10.914-36.088-29.219-36.526-14.353 14.351-37.642 14.35-51.994-.002z" fill="#ffce71"/><path d="m268.571 128.894c8.692-8.692 8.196-25.722-1.473-35.391-7.546-7.546-19.825-7.546-27.371-.001-2.929 2.929-7.677 2.929-10.607 0s-2.929-7.678 0-10.607c13.394-13.394 35.189-13.394 48.584.001 16.012 16.012 16.012 42.065 0 58.077l-10.564-10.565c.495-.494.945-1.027 1.431-1.514z" fill="#ffb357"/></g></g></svg>