<svg id="Capa_1" enable-background="new 0 0 497 497" height="512" viewBox="0 0 497 497" width="512" xmlns="http://www.w3.org/2000/svg"><g><g><path d="m300.448 5.455h-50l-80.448 183.045v243.045h246.552c49.447-45.421 80.448-110.609 80.448-183.045 0-119.425-84.249-219.157-196.552-243.045z" fill="#d4d4ff"/><path d="m349.01 406.408-88.929-353.263c11.425-17.554 25.004-33.577 40.367-47.689-16.755-3.565-34.13-5.456-51.948-5.456-137.243 0-248.5 111.257-248.5 248.5s111.257 248.5 248.5 248.5c64.807 0 123.812-24.817 168.052-65.455-23.978-5.101-46.669-13.668-67.542-25.137z" fill="#9ea2e3"/></g><g><g><path d="m358.716 94.226c-6.416-5.938-14.606-9.036-23.096-9.36-13.366-.512-25.643-6.508-32.56-17.443-4.755-7.518-12.335-13.17-21.914-15.36-7.102-1.626-14.348-1.123-21.065 1.083l-80.081 41.354v172.434h52.645c2.007-1.164 4.097-2.188 6.261-3.04 11.245-4.429 20.512-13.695 24.942-24.938 4.767-12.096 14.668-22.005 26.764-26.769 11.25-4.43 20.519-13.702 24.948-24.952 4.858-12.341 15.153-22.065 27.445-27.071 5.185-2.111 10.097-5.31 14.366-9.579 16.175-16.174 16.785-42.07 1.345-56.359z" fill="#ffb39d"/><path d="m260.081 53.145c-2.349.771-4.634 1.747-6.824 2.919-11.973 6.401-25.99 6.984-37.475 1.575-8.11-3.819-17.837-4.675-27.588-1.688-9.763 2.991-17.86 9.317-23.276 17.297-7.657 11.28-20.092 18.799-33.23 20.091-9.293.914-18.569 5.091-25.934 12.455-7.365 7.365-11.542 16.642-12.455 25.935-1.292 13.138-8.81 25.572-20.09 33.229-7.979 5.415-14.307 13.514-17.299 23.279-2.953 9.641-2.154 19.358 1.639 27.493 5.425 11.637 4.656 25.753-1.707 37.911-4.379 8.367-5.985 18.07-3.821 27.538 2.191 9.586 7.845 17.171 15.367 21.926 10.935 6.914 16.926 19.193 17.438 32.558.325 8.488 3.424 16.678 9.361 23.093 14.289 15.44 40.185 14.83 56.358-1.344 4.265-4.265 7.461-9.172 9.573-14.352 5.014-12.296 14.737-22.598 27.082-27.459 11.245-4.429 20.512-13.695 24.942-24.938 3.914-9.932 11.293-18.383 20.503-23.729-8.196-24.657-12.645-51.025-12.645-78.434 0-49.929 14.737-96.41 40.081-135.355z" fill="#ff8f71"/></g><g><path d="m420.599 271.345c9.416-3.23 16.213-12.152 16.212-22.65-.001-10.494-6.793-19.413-16.203-22.646 2.999-2.012 5.536-4.677 7.395-7.896 3.201-5.544 4.05-12.001 2.393-18.184-2.717-10.137-11.585-16.991-21.512-17.679 14.95-17.105-.266-43.652-22.655-39.24 1.955-4.001 2.69-8.385 2.352-12.54-.029-.335-.076-.668-.118-1.001-4.227-33.677-54.997-23.34-46.971 8.847-7.893-1.97-16.589.105-22.762 6.277-6.172 6.172-8.246 14.868-6.277 22.762-7.894-1.969-16.59.105-22.762 6.277s-8.246 14.868-6.278 22.762c-7.893-1.969-16.589.105-22.761 6.277-6.173 6.173-8.247 14.868-6.278 22.762-7.894-1.969-16.59.106-22.762 6.278-2.847 2.847-4.811 6.233-5.919 9.827v164.83h123.317c4.647-5.533 6.573-12.937 5.183-20.045 8.942 4.374 20.057 2.871 27.479-4.552s8.926-18.537 4.552-27.479c9.77 1.91 20.117-2.418 25.365-11.509 3.199-5.542 4.05-11.999 2.394-18.181-.963-3.591-2.722-6.823-5.098-9.544 9.927-.688 18.796-7.543 21.512-17.681s-1.54-20.515-9.798-26.072z" fill="#efedff"/><path d="m225.693 241.578c-1.295 4.198-1.419 8.682-.358 12.935-7.893-1.97-16.589.104-22.762 6.277-6.172 6.172-8.246 14.868-6.277 22.762-7.894-1.969-16.59.105-22.762 6.277s-8.246 14.867-6.278 22.762c-7.893-1.969-16.589.105-22.761 6.277-6.173 6.173-8.247 14.868-6.278 22.762-13.684-3.412-27.513 5.574-29.532 19.956-2.619 19.271 17.221 33.089 34.226 24.781-4.409 22.372 22.037 37.62 39.232 22.651.668 9.918 7.463 18.775 17.687 21.517 6.182 1.656 12.639.807 18.183-2.394 3.22-1.859 5.885-4.396 7.896-7.396 1.199 3.486 3.159 6.623 5.713 9.177 4.339 4.339 10.328 7.026 16.934 7.027 10.484 0 19.395-6.78 22.635-16.176.853 1.27 1.826 2.455 2.91 3.54 1.472 1.471 3.147 2.759 4.998 3.827 5.543 3.2 11.999 4.05 18.179 2.394 6.183-1.656 11.35-5.62 14.55-11.163 1.852-3.208 2.89-6.724 3.138-10.314 2.715 2.368 5.955 4.104 9.538 5.064 6.181 1.656 12.638.806 18.179-2.394 2.477-1.43 4.587-3.248 6.327-5.32-61.975-34.051-107.851-93.758-123.317-164.829z" fill="#d4d4ff"/></g></g><g><g fill="#ff6f4d"><path d="m189.589 110.836c-5.857-5.858-15.355-5.858-21.213 0s-5.858 15.355 0 21.213l11.855 11.855c5.858 5.859 15.356 5.858 21.213 0 5.858-5.858 5.858-15.355 0-21.213z"/><path d="m180.232 190.836-11.855 11.855c-5.858 5.858-5.858 15.355 0 21.213 5.858 5.859 15.356 5.858 21.213 0l11.855-11.855c5.858-5.858 5.858-15.355 0-21.213s-15.356-5.858-21.213 0z"/><path d="m114.911 208.988c-8.284 0-15 6.716-15 15v16.766c0 8.284 6.716 15 15 15s15-6.716 15-15v-16.766c0-8.284-6.716-15-15-15z"/><path d="m304.911 125.988c-8.284 0-15 6.716-15 15v16.766c0 8.284 6.716 15 15 15s15-6.716 15-15v-16.766c0-8.284-6.716-15-15-15z"/></g><g fill="#18c08b"><path d="m248.569 98.877c0-4.143-3.358-7.5-7.5-7.5h-12c-4.142 0-7.5 3.357-7.5 7.5s3.358 7.5 7.5 7.5h12c4.142 0 7.5-3.357 7.5-7.5z"/><path d="m264.615 147.816-8.485-8.485c-2.929-2.929-7.678-2.929-10.606 0-2.929 2.929-2.929 7.678 0 10.606l8.485 8.485c1.464 1.464 3.384 2.196 5.303 2.196s3.839-.732 5.303-2.196c2.929-2.928 2.929-7.677 0-10.606z"/><path d="m116.13 161.331c-2.929-2.929-7.678-2.929-10.606 0-2.929 2.929-2.929 7.678 0 10.606l8.485 8.485c1.464 1.464 3.384 2.196 5.303 2.196s3.839-.732 5.303-2.196c2.929-2.929 2.929-7.678 0-10.606z"/><path d="m115.069 281.377c-4.142 0-7.5 3.357-7.5 7.5v12c0 4.143 3.358 7.5 7.5 7.5s7.5-3.357 7.5-7.5v-12c0-4.143-3.358-7.5-7.5-7.5z"/></g></g><g><path d="m174.009 345.331-8.485 8.485c-2.929 2.929-2.929 7.678 0 10.606s7.678 2.929 10.607 0l8.485-8.485c2.929-2.929 2.929-7.678 0-10.606s-7.679-2.929-10.607 0z" fill="#9ea2e3"/><g fill="#d4d4ff"><path d="m368.569 184.877c0-4.143-3.358-7.5-7.5-7.5h-12c-4.142 0-7.5 3.357-7.5 7.5s3.358 7.5 7.5 7.5h12c4.142 0 7.5-3.357 7.5-7.5z"/><path d="m382.069 287.377h-12c-4.142 0-7.5 3.357-7.5 7.5s3.358 7.5 7.5 7.5h12c4.142 0 7.5-3.357 7.5-7.5s-3.358-7.5-7.5-7.5z"/><path d="m315.069 351.377c-4.142 0-7.5 3.357-7.5 7.5v12c0 4.143 3.358 7.5 7.5 7.5s7.5-3.357 7.5-7.5v-12c0-4.143-3.358-7.5-7.5-7.5z"/></g></g><path d="m275.08 234.348c-3.438-3.439-8.13-4.843-12.604-4.244-.255-8.061-6.853-14.522-14.976-14.522s-14.721 6.461-14.976 14.522c-4.475-.599-9.167.805-12.605 4.244-5.858 5.858-5.857 15.355 0 21.213l16.975 16.974c5.817 5.839 15.363 5.852 21.215-.003l16.971-16.971c5.859-5.858 5.859-15.355 0-21.213z" fill="#30cd9c"/><g><g><g><g><ellipse cx="252.086" cy="373.814" fill="#ff8e9e" rx="30.834" ry="24.555" transform="matrix(.707 -.707 .707 .707 -190.492 287.74)"/></g><g><ellipse cx="370.265" cy="255.635" fill="#ff8e9e" rx="30.834" ry="24.555" transform="matrix(.707 -.707 .707 .707 -72.313 336.691)"/></g></g></g></g></g></svg>