<svg id="Capa_1" enable-background="new 0 0 497.004 497.004" height="512" viewBox="0 0 497.004 497.004" width="512" xmlns="http://www.w3.org/2000/svg"><g><path d="m199.56 260.59h97.88v97.88h-97.88z" fill="#fc8a3d"/><g><path d="m365.193 210.565c-4.429-71.205-41.109-136.46-99.365-177.276-10.413-7.296-24.244-7.296-34.657 0-1.97 1.38-3.911 2.794-5.831 4.229l-93.533 173.047 144.625 60.739c8.158-1.388 16.232-3.39 24.148-6.003l6.972-5.72h7.885c13.8-6.089 26.942-14.142 38.99-24.184 7.321-6.101 11.358-15.32 10.766-24.832z" fill="#ffce71"/><g fill="#ffb357"><path d="m222.218 54.79c.656-3.674 1.935-10.729 3.123-17.271-54.864 41.013-89.253 104.25-93.533 173.047-.592 9.511 3.445 18.731 10.766 24.832 6.128 5.108 12.539 9.704 19.174 13.789 34.745 21.389 75.674 28.757 114.685 22.117-22.12-28.283-38.733-61.074-48.342-95.644-10.875-39.123-13.008-80.937-5.873-120.87z"/><path d="m259.149 61.291c.718-4.08-2.007-7.969-6.087-8.687-4.079-.718-7.968 2.007-8.687 6.086-6.454 36.669-4.59 75.033 5.392 110.943 9.729 34.999 27.285 68.004 50.812 95.667 2.532-.836 5.049-1.732 7.546-2.693 2.456-.946 4.892-1.96 7.31-3.027l-1.656-1.9c-47.159-54.129-67.071-125.71-54.63-196.389z"/></g></g><g><path d="m233.446 300.569c-4.429-71.205-41.109-136.46-99.365-177.276-10.413-7.296-24.244-7.296-34.657 0-1.97 1.38-3.911 2.794-5.831 4.229l-93.533 173.047 144.625 60.739c8.158-1.388 16.232-3.39 24.148-6.003l6.972-5.72h7.885c13.8-6.089 26.942-14.142 38.99-24.184 7.321-6.101 11.357-15.32 10.766-24.832z" fill="#ffce71"/><g fill="#ffb357"><path d="m90.471 144.794c.656-3.674 1.935-10.729 3.123-17.271-54.864 41.012-89.254 104.249-93.534 173.046-.592 9.511 3.445 18.731 10.766 24.832 6.128 5.108 12.539 9.704 19.174 13.789 34.745 21.389 75.674 28.757 114.685 22.117-22.12-28.283-38.733-61.074-48.342-95.644-10.874-39.122-13.007-80.936-5.872-120.869z"/><path d="m127.402 151.295c.718-4.08-2.007-7.969-6.087-8.687-4.079-.718-7.968 2.007-8.687 6.086-6.454 36.669-4.59 75.033 5.392 110.943 9.729 34.999 27.285 68.004 50.812 95.667 2.532-.836 5.049-1.732 7.546-2.693 2.456-.946 4.892-1.96 7.31-3.027l-1.656-1.9c-47.159-54.128-67.071-125.71-54.63-196.389z"/></g></g><g><path d="m429.451 175.602c0-16.59-18.014-26.934-32.338-18.629h-21.575v80.094h73.009v-29.984c7.421-14.199-2.873-31.481-19.096-31.481z" fill="#d6948c"/><path d="m397.113 156.973c-8.934-12.765-27.885-12.785-36.833 0-14.017-4.831-29.047 3.649-32.211 18.023v32.07 30h57.469v-61.465c0-7.953 4.654-14.9 11.575-18.628z" fill="#ce857a"/><g fill="#bd7669"><circle cx="374.621" cy="178.702" r="7.5"/><circle cx="405.621" cy="189.702" r="7.5"/></g></g><g><path d="m496.947 300.569c-2.066-33.212-11.156-65.125-26.171-93.872-3.339-6.391-11.725-7.809-17.175-3.088-1.564 1.354-3.26 2.516-5.054 3.473-6.627 3.538-14.57 4.294-21.966 1.745-9.955 14.224-31.073 14.246-41.043 0-15.905 9.222-36.035-2.197-36.034-20.758l-85.943 112.5 144.625 60.739c8.158-1.388 16.232-3.39 24.148-6.003l6.972-5.72h7.885c13.8-6.089 26.942-14.142 38.99-24.184 7.32-6.101 11.357-15.32 10.766-24.832z" fill="#ffce71"/><g fill="#ffb357"><path d="m328.59 175.839c-3.879-6.894-13.358-7.786-18.266-1.697-27.296 36.218-43.879 80.053-46.764 126.427-.592 9.511 3.445 18.731 10.766 24.832 6.128 5.108 12.539 9.704 19.174 13.789 34.745 21.389 75.674 28.757 114.685 22.117-40.287-51.511-59.531-114.42-58.682-173.239-8.626.001-16.63-4.631-20.913-12.229z"/><path d="m445.535 347.685c-26.441-30.348-44.313-66.183-52.724-104.268-.867-3.927-4.656-6.482-8.611-5.756-4.125.757-6.836 4.78-5.935 8.876.967 4.397 2.052 8.767 3.257 13.1 9.729 34.999 27.285 68.004 50.812 95.667 2.532-.836 5.049-1.732 7.546-2.693 2.456-.946 4.892-1.96 7.31-3.027z"/></g></g><g><g><path d="m467 339.187h-236.848l-50 30.878 67.63 99.122h115.718c43.24 0 79.352-30.228 88.017-70.527h15.483c16.568 0 30-13.314 30-29.737s-13.432-29.736-30-29.736z" fill="#d4d4ff"/><path d="m230.153 398.66c-16.569-16.423-16.569-43.05 0-59.473h-200.153c-16.569 0-30 13.313-30 29.737 0 16.423 13.431 29.737 30 29.737h15.483c8.665 40.299 44.777 70.527 88.017 70.527h183.652c-43.24-.001-78.335-30.229-86.999-70.528z" fill="#9ea2e3"/></g><g><g><g><ellipse cx="328.057" cy="430.008" fill="#ff8e9e" rx="29.355" ry="23.377"/></g><g><ellipse cx="168.943" cy="430.008" fill="#ff8e9e" rx="29.355" ry="23.377"/></g></g></g></g><g fill="#313d40"><path d="m310.948 394.004c-4.143 0-7.5 3.358-7.5 7.5v12c0 4.142 3.357 7.5 7.5 7.5s7.5-3.358 7.5-7.5v-12c0-4.142-3.357-7.5-7.5-7.5z"/><path d="m186.052 394.004c-4.143 0-7.5 3.358-7.5 7.5v12c0 4.142 3.357 7.5 7.5 7.5s7.5-3.358 7.5-7.5v-12c0-4.142-3.358-7.5-7.5-7.5z"/><path d="m269.892 407.493c-3.122-2.721-7.859-2.396-10.582.727-5.727 6.57-15.898 6.563-21.619 0-2.72-3.123-7.458-3.448-10.582-.727-3.122 2.722-3.448 7.459-.727 10.582 11.704 13.43 32.543 13.417 44.236 0 2.722-3.123 2.396-7.86-.726-10.582z"/></g></g></svg>