<svg id="Capa_1" enable-background="new 0 0 497 497" height="512" viewBox="0 0 497 497" width="512" xmlns="http://www.w3.org/2000/svg"><g><path d="m467 295.997h-236.848l-50 30.878 67.63 99.122h115.718c43.24 0 79.352-30.228 88.017-70.527h15.483c16.568 0 30-13.314 30-29.737s-13.432-29.736-30-29.736z" fill="#ff8e9e"/><path d="m230.153 338.042v-42.045h-151.972-48.181c-16.569 0-30 13.313-30 29.737 0 16.423 13.431 29.737 30 29.737h15.483c8.665 40.299 44.777 70.527 88.017 70.527h183.652c-48.672-.001-86.999-40.1-86.999-87.956z" fill="#ea5b70"/><g><g fill="#313d40"><path d="m310.948 369.815c-4.143 0-7.5 3.358-7.5 7.5v12c0 4.142 3.357 7.5 7.5 7.5s7.5-3.358 7.5-7.5v-12c0-4.142-3.357-7.5-7.5-7.5z"/><path d="m186.052 369.815c-4.143 0-7.5 3.358-7.5 7.5v12c0 4.142 3.357 7.5 7.5 7.5s7.5-3.358 7.5-7.5v-12c0-4.142-3.358-7.5-7.5-7.5z"/><path d="m269.892 383.304c-3.122-2.721-7.859-2.396-10.582.727-5.727 6.57-15.898 6.563-21.619 0-2.72-3.123-7.458-3.448-10.582-.727-3.122 2.722-3.448 7.459-.727 10.582 11.704 13.43 32.543 13.417 44.236 0 2.722-3.123 2.396-7.861-.726-10.582z"/></g></g><g><g><path d="m436.107 202.546h-184.013v132.754l37.451 10.203c104.357 0 188.955-39.239 188.955-87.642 0-20.976-15.892-40.229-42.393-55.315z" fill="#fce3a0"/><path d="m265.926 311.163c-.762-14.987 6.977-29.126 20.012-36.56v-51.629h-257.508l-2.963 11.634c-7.928 31.128 15.592 61.389 47.713 61.389 8.615 23.649 17.652 42.045 60.845 42.045h91.126c23.903 5.071 36.388 7.461 64.393 7.461-13.721-6.072-22.855-19.353-23.618-34.34z" fill="#ffce71"/></g><g><g><g><g><path d="m201.061 78.903c23.904-5.071 50.479-7.9 78.484-7.9 104.357 0 183.955 39.238 183.955 87.642 0 20.977-10.892 40.23-37.393 55.316.565 5.713.103 11.296-1.496 16.671-10.602 35.639-67.514 51.856-138.672 43.972h-114.472v-176.263z" fill="#fff1d4"/></g><path d="m202.286 194.628c-15.976-36.836-16.418-78.559-1.225-115.725-71.158-7.883-128.07 8.333-138.672 43.972-1.599 5.375-2.061 10.958-1.496 16.671-26.501 15.086-42.393 34.339-42.393 55.316 0 48.403 84.598 87.642 188.955 87.642 28.004 0 54.58-2.829 78.484-7.9-37.517-14.306-67.676-43.14-83.653-79.976z" fill="#fce3a0"/></g><ellipse cx="135.499" cy="204.977" fill="#ffb357" rx="44.667" ry="25.251"/><g><path d="m256.726 115.578h-79.475c-6.312 4.718-10.061 10.593-10.061 16.964 0 15.548 22.296 28.152 49.799 28.152s49.799-12.604 49.799-28.152c-.001-6.371-3.75-12.246-10.062-16.964z" fill="#ffce71"/><path d="m216.988 133.531c19.413 0 35.644-7.677 39.738-17.953-9.091-6.795-23.505-11.187-39.738-11.187-16.232 0-30.646 4.392-39.738 11.187 4.094 10.275 20.325 17.953 39.738 17.953z" fill="#ffb357"/></g><ellipse cx="352.803" cy="186.868" fill="#ffce71" rx="31.69" ry="17.915"/><ellipse cx="411.005" cy="146.327" fill="#fce3a0" rx="22.636" ry="12.796"/><ellipse cx="266.136" cy="236.87" fill="#ffce71" rx="22.636" ry="12.796"/><ellipse cx="112.212" cy="137.273" fill="#ffce71" rx="22.636" ry="12.796"/><ellipse cx="320.462" cy="110.11" fill="#fce3a0" rx="22.636" ry="12.796"/></g><g fill="#ffb357"><circle cx="273.578" cy="186.517" r="6.791"/><circle cx="65.328" cy="177.462" r="6.791"/><circle cx="146.817" cy="105.028" r="6.791"/><circle cx="201.143" cy="249.897" r="6.791"/><circle cx="151.143" cy="307.897" r="6.791"/><circle cx="271.143" cy="317.897" r="6.791"/><circle cx="403.143" cy="287.897" r="6.791"/><circle cx="443.143" cy="257.897" r="6.791"/><circle cx="346.012" cy="231.788" r="6.791"/><circle cx="355.067" cy="141.245" r="6.791"/></g></g></g></g></svg>