<svg id="Capa_1" enable-background="new 0 0 496.988 496.988" height="512" viewBox="0 0 496.988 496.988" width="512" xmlns="http://www.w3.org/2000/svg"><g><path d="m109.988 95.585v15c4.136 0 7.5 3.364 7.5 7.5v15c0 4.142 3.357 7.5 7.5 7.5s7.5-3.358 7.5-7.5v-15c0-12.407-10.094-22.5-22.5-22.5z" fill="#d4d4ff"/><g><path d="m422.238 340.57c41.283 0 74.75-33.466 74.75-74.75 0-41.273-33.45-74.732-74.719-74.749h-25.439l-111.342-30-114.633 30-30.394 31.441v93.54l43.81 24.518 103.217 30 95.644-30s0 0 0-.001h39.106zm-27.753-53.713c2.355-14.56 4.153-29.374 4.984-43.705.231-3.974 3.502-7.082 7.483-7.082h15.286c16.703 0 30.236 13.837 29.737 30.65-.48 16.181-14.181 28.85-30.369 28.85h-19.723c-4.628 0-8.137-4.146-7.398-8.713z" fill="#efedff"/><path d="m170.855 191.07-75.867-30-91.856 30c-8.214 40.214 1.155 97.565 11.662 142.233.581 2.469 1.264 4.892 2.041 7.267l75.301 30 92.136-30c-11.165-45.556-22.082-107.068-13.417-149.5z" fill="#d4d4ff"/></g><g><path d="m391.666 173.655c-10.186-24.675-34.489-40.57-61.183-40.57h-93.283-42.327c-30.261 0-45.417 36.587-24.018 57.986h225.975c-1.28-6.251-2.971-12.104-5.164-17.416z" fill="#ffce71"/><path d="m69.47 133.084c-26.708 0-51.029 15.909-61.197 40.605-2.183 5.302-3.867 11.142-5.141 17.381h167.723c1.274-6.241 2.965-12.077 5.149-17.381 10.168-24.696 34.49-40.605 61.197-40.605z" fill="#ffb357"/></g><g><path d="m184.271 401.403h114.74c38.491 0 72.325-24.787 84.121-60.833h-198.861z" fill="#70dcba"/><path d="m100.956 401.403h126.593c-15.626 0-29.384-10.303-33.752-25.306-2.856-9.808-6.202-21.961-9.526-35.526h-167.436c11.794 36.044 45.629 60.832 84.121 60.832z" fill="#30cd9c"/></g><g><path d="m140.461 222.512-20.088-21.371h-30.429l-21.122 22.471v61.593l22.543 17.73c6.705 5.273 14.988 8.14 23.518 8.14 1.868 0 3.702-.149 5.491-.43 16.78-2.636 29.615-17.156 29.615-34.676v-29.411c-.001-8.937-3.408-17.536-9.528-24.046z" fill="#70dcba"/><path d="m90.757 275.968v-29.411c0-8.935 3.407-17.535 9.527-24.045l20.089-21.371-25.385-27.005-45.473 48.376c-6.12 6.51-9.527 15.109-9.527 24.045v29.411c0 19.389 15.718 35.106 35.106 35.106h39.787c1.868 0 3.702-.149 5.491-.43-16.779-2.636-29.615-17.156-29.615-34.676z" fill="#30cd9c"/></g><path d="m94.988 191.636c-4.143 0-7.5-3.358-7.5-7.5v-66.051c0-12.407 10.094-22.5 22.5-22.5 4.143 0 7.5 3.358 7.5 7.5s-3.357 7.5-7.5 7.5c-4.136 0-7.5 3.364-7.5 7.5v66.051c0 4.142-3.357 7.5-7.5 7.5z" fill="#d4d4ff"/><path d="m282.388 240.632c0-4.13-3.359-7.5-7.5-7.5h-1.889l1.339-1.34c1.42-1.41 2.2-3.3 2.2-5.3s-.78-3.89-2.2-5.3c-1.41-1.42-3.3-2.2-5.3-2.2-2.01 0-3.89.78-5.3 2.2l-1.351 1.35v-1.91c0-4.13-3.359-7.5-7.489-7.5-4.141 0-7.5 3.37-7.5 7.5v1.901l-1.341-1.341c-1.42-1.42-3.3-2.2-5.31-2.2-2 0-3.88.78-5.3 2.2-2.92 2.92-2.92 7.68 0 10.6l1.34 1.34h-1.89c-4.141 0-7.5 3.37-7.5 7.5 0 4.14 3.359 7.5 7.5 7.5h1.89l-1.34 1.34c-1.42 1.42-2.2 3.3-2.2 5.31 0 2 .78 3.88 2.2 5.3s3.3 2.2 5.3 2.2c2.01 0 3.89-.78 5.31-2.2l1.341-1.342v1.892c0 4.14 3.359 7.5 7.5 7.5 4.13 0 7.489-3.36 7.489-7.5v-1.9l1.351 1.35c1.41 1.42 3.3 2.2 5.3 2.2s3.89-.78 5.3-2.2c1.42-1.42 2.2-3.3 2.2-5.31 0-2-.78-3.88-2.2-5.3l-1.34-1.34h1.89c4.14 0 7.5-3.361 7.5-7.5z" fill="#1cbbea"/><g><g><g><g><ellipse cx="179.693" cy="305.443" fill="#ff8e9e" rx="25" ry="19.909"/></g><g><ellipse cx="330.096" cy="305.443" fill="#ff8e9e" rx="25" ry="19.909"/></g></g></g></g><g fill="#313d40"><path d="m192.446 270.908c-4.143 0-7.5 3.358-7.5 7.5v12c0 4.142 3.357 7.5 7.5 7.5s7.5-3.358 7.5-7.5v-12c0-4.142-3.357-7.5-7.5-7.5z"/><path d="m317.344 270.908c-4.143 0-7.5 3.358-7.5 7.5v12c0 4.142 3.357 7.5 7.5 7.5s7.5-3.358 7.5-7.5v-12c0-4.142-3.358-7.5-7.5-7.5z"/><path d="m276.287 284.397c-3.122-2.722-7.86-2.397-10.581.726-2.73 3.132-6.671 4.929-10.812 4.929s-8.08-1.796-10.81-4.928c-2.723-3.122-7.46-3.447-10.582-.727-3.122 2.722-3.448 7.459-.727 10.582 5.579 6.401 13.641 10.073 22.118 10.073s16.539-3.671 22.118-10.072c2.723-3.124 2.399-7.861-.724-10.583z"/></g></g></svg>