<svg id="Capa_1" enable-background="new 0 0 497 497" height="512" viewBox="0 0 497 497" width="512" xmlns="http://www.w3.org/2000/svg"><g><g><g fill="#ea5b70"><path d="m343.105 68.754c0-18.986-15.459-34.377-34.445-34.377-18.985 0-34.375 15.391-34.376 34.375v-34.375c-.001-18.986-15.393-34.377-34.378-34.377-18.986 0-34.377 15.391-34.377 34.377l-.004 34.377c0-18.986-15.387-34.377-34.373-34.377s-34.377 15.391-34.377 34.377v50h68.75 68.759 68.822v-50z"/><path d="m411.791 137.508c0-18.986-15.391-34.377-34.377-34.377-18.29 0-33.237 14.285-34.309 32.306l-.068 36.283 68.754-.002z"/></g><g fill="#ff8e9e"><path d="m237.94 66.788v7.772l36.343 14.192c0-58.798.024-54.814-.056-56.286-19.788-1.091-36.287 14.655-36.287 34.322z"/><path d="m306.694 101.165v3.39l36.411 14.199c0-58.989.049-48.748-.123-51.911-19.789-1.091-36.288 14.655-36.288 34.322z"/><path d="m169.186 101.165c0 .239-.001 1.411-.003 3.395l36.341 14.194c0-.019 0-51.911 0-51.911-19.999-1.087-36.338 14.783-36.338 34.322z"/><path d="m411.736 135.598c-.633-.034-1.269-.055-1.91-.055-14.6 0-27.066 9.106-32.05 21.946l34.016 14.23c0-17.974 0-31.564 0-34.21-.001-.642-.022-1.279-.056-1.911z"/></g></g><g><path d="m377.775 157.488c-12.558-.089-25.157 4.65-34.738 14.232l.068-36.283v-16.683l-36.411-14.199c-11.784.481-23.426 5.214-32.411 14.199v-30.002l-36.343-14.192c-11.776.477-23.426 5.203-32.416 14.194v30l-36.341-14.194c-11.773.478-23.42 5.205-32.409 14.194v81.062h246.918l28.098-28.098z" fill="#ffbd86"/><g><path d="m375.448 169.919v9.997c0 10.99-8.91 19.9-19.9 19.9h-12.511l.024-28.119c-.008.008-.016.015-.024.022.008-.008.016-.015.024-.022l.044-52.944c-9.993-9.993-23.322-14.726-36.411-14.199v75.361c0 10.99-8.91 19.9-19.9 19.9h-12.511v-81.062-30.001c-9.993-9.993-23.254-14.719-36.343-14.192v105.356c0 10.99-8.91 19.9-19.9 19.9h-12.515v-81.062c-9.994-9.994-23.251-14.721-36.341-14.194-.028 37.003-.272 361.216-.273 362.44h182.475v-15-51.595c36.454-24.754 60.406-66.544 60.406-113.929 0-3.109 0-71.591 0-114.757-9.401-9.401-21.695-14.14-34.016-14.23-1.498 3.856-2.328 8.045-2.328 12.43z" fill="#fed2a4"/></g></g><g><path d="m136.774 158.883c-28.479 0-51.565 23.087-51.565 51.565v30.051l103.131-.152c0-12.2 0-23.197 0-29.899 0-28.478-23.087-51.565-51.566-51.565z" fill="#ea5b70"/><g><path d="m188.34 300.218c0-11.738 0-37.782 0-59.87-28.535-28.366-74.66-28.318-103.131.152v45.976c0 47.171 23.738 88.792 59.914 113.588v66.936h148.552v-44.288c-59.619-8.948-105.335-60.381-105.335-122.494z" fill="#ffbd86"/></g></g><g><g><path d="m171 439.729h-13l-17.5 27.271 17.5 27.271h13c10.325-4.741 17.5-15.165 17.5-27.271s-7.175-22.53-17.5-27.271z" fill="#ff8e9e"/><path d="m153.5 467c0-12.106 7.174-22.53 17.5-27.271-3.806-1.748-8.038-2.729-12.5-2.729-16.569 0-30 13.431-30 30 0 16.568 13.431 30 30 30 4.462 0 8.694-.982 12.5-2.729-10.326-4.741-17.5-15.165-17.5-27.271z" fill="#ea5b70"/></g><g><path d="m231 439.729h-13l-17.5 27.271 17.5 27.271h13c10.325-4.741 17.5-15.165 17.5-27.271s-7.175-22.53-17.5-27.271z" fill="#ff8e9e"/><path d="m213.5 467c0-12.106 7.174-22.53 17.5-27.271-3.806-1.748-8.038-2.729-12.5-2.729-16.569 0-30 13.431-30 30 0 16.568 13.431 30 30 30 4.462 0 8.694-.982 12.5-2.729-10.326-4.741-17.5-15.165-17.5-27.271z" fill="#ea5b70"/></g><g><path d="m291 439.729h-13l-17.5 27.271 17.5 27.271h13c10.325-4.741 17.5-15.165 17.5-27.271s-7.175-22.53-17.5-27.271z" fill="#ff8e9e"/><path d="m273.5 467c0-12.106 7.174-22.53 17.5-27.271-3.806-1.748-8.038-2.729-12.5-2.729-16.569 0-30 13.431-30 30 0 16.568 13.431 30 30 30 4.462 0 8.694-.982 12.5-2.729-10.326-4.741-17.5-15.165-17.5-27.271z" fill="#ea5b70"/></g><g><path d="m351 439.729h-13l-17.5 27.271 17.5 27.271h13c10.325-4.741 17.5-15.165 17.5-27.271s-7.175-22.53-17.5-27.271z" fill="#ff8e9e"/><path d="m333.5 467c0-12.106 7.174-22.53 17.5-27.271-3.806-1.748-8.038-2.729-12.5-2.729-16.569 0-30 13.431-30 30 0 16.568 13.431 30 30 30 4.462 0 8.694-.982 12.5-2.729-10.326-4.741-17.5-15.165-17.5-27.271z" fill="#ea5b70"/></g></g><g><g><g><ellipse cx="185.244" cy="356.344" fill="#ff8e9e" rx="27.03" ry="21.525"/></g><g><ellipse cx="331.756" cy="356.344" fill="#ff8e9e" rx="27.03" ry="21.525"/></g></g></g><g fill="#313d40"><path d="m219.871 322.587c-3.123-2.722-7.86-2.397-10.581.726-2.095 2.403-5.117 3.782-8.293 3.782s-6.199-1.378-8.294-3.782c-2.721-3.122-7.459-3.446-10.581-.726-3.123 2.722-3.447 7.459-.726 10.582 4.943 5.672 12.088 8.926 19.601 8.926 7.512 0 14.656-3.253 19.6-8.926 2.721-3.123 2.397-7.86-.726-10.582z"/><path d="m334.878 322.587c-3.123-2.722-7.86-2.397-10.581.726-2.095 2.403-5.118 3.782-8.294 3.782s-6.198-1.378-8.293-3.782c-2.721-3.122-7.459-3.446-10.581-.726-3.123 2.722-3.447 7.459-.726 10.582 4.943 5.672 12.088 8.926 19.6 8.926 7.513 0 14.657-3.253 19.601-8.926 2.721-3.123 2.397-7.86-.726-10.582z"/><path d="m280.645 330.75c-3.124-2.722-7.862-2.396-10.582.727-2.938 3.372-7.181 5.306-11.64 5.306s-8.701-1.934-11.64-5.306c-2.723-3.122-7.46-3.448-10.582-.727-3.122 2.722-3.448 7.459-.727 10.582 5.788 6.642 14.152 10.451 22.948 10.451s17.16-3.809 22.948-10.451c2.723-3.123 2.397-7.86-.725-10.582z"/></g></g></svg>