<svg id="Capa_1" enable-background="new 0 0 497 497" height="512" viewBox="0 0 497 497" width="512" xmlns="http://www.w3.org/2000/svg"><g><g><path d="m315.012 36.28h-70l-93.891 167.169 78.463 111.806h185.566v-97.644c.001 0-44.328-119.424-100.138-181.331z" fill="#ff8e9e"/><path d="m221.121 203.449c12.933-35.761 49.711-118.973 93.891-167.169-19.526-21.66-40.458-36.281-61.388-36.28-68.884.005-137.753 151.603-156.503 203.449-19.634 54.297 20.609 111.806 78.463 111.806h124c-57.854 0-98.096-57.509-78.463-111.806z" fill="#ea5b70"/></g><g><g><g><g><ellipse cx="164.935" cy="163.72" fill="#ffdbe0" rx="30.834" ry="24.555"/></g><g><ellipse cx="332.065" cy="163.72" fill="#ffdbe0" rx="30.834" ry="24.555"/></g></g></g></g><g><path d="m444.442 228.51c-8.486-7.301-18.603-10.898-29.291-10.898-12.689 0-25.309 5.297-34.232 15.67-.152.177-.305.354-.457.53-25.733 29.784-63.346 46.638-102.707 46.638l-165.182.001v152.011l36.124 27.269h85.406v-35.651c82.676-19.552 158.612-66.364 215.113-132.046 16.223-18.862 14.085-47.301-4.774-63.524z" fill="#fed2a4"/><path d="m246.14 205.058c-3.419-3.379-7.248-6.09-11.32-8.152-16.903-8.56-38.072-5.788-52.198 8.336-98.2 98.201-75.069 75.052-97.621 97.663-14.228 14.267-22.428 33.544-22.429 54.007v65.548 37.269h81.145v-37.269c0-33.761 13.423-64.331 35.659-86.568l55.444-55.444 10.881-10.882c17.621-17.619 18.163-46.99.439-64.508z" fill="#ffbd86"/></g><g><g><path d="m89.686 425.852h-16.15l-21.74 33.879 21.74 33.878h16.15c12.827-5.889 21.74-18.839 21.74-33.878.001-15.04-8.912-27.989-21.74-33.879z" fill="#ff8e9e"/><path d="m67.946 459.731c0-15.039 8.913-27.989 21.74-33.879-4.729-2.171-9.985-3.39-15.529-3.39-20.583 0-37.269 16.686-37.269 37.269s16.686 37.269 37.269 37.269c5.544 0 10.8-1.22 15.529-3.391-12.828-5.889-21.74-18.839-21.74-33.878z" fill="#ea5b70"/></g><g><path d="m164.225 425.852h-16.15l-21.74 33.879 21.74 33.878h16.15c12.827-5.889 21.74-18.839 21.74-33.878 0-15.04-8.913-27.989-21.74-33.879z" fill="#ff8e9e"/><path d="m142.484 459.731c0-15.039 8.913-27.989 21.74-33.879-4.729-2.171-9.985-3.39-15.529-3.39-20.583 0-37.269 16.686-37.269 37.269s16.686 37.269 37.269 37.269c5.544 0 10.8-1.22 15.529-3.391-12.827-5.889-21.74-18.839-21.74-33.878z" fill="#ea5b70"/></g><g><path d="m238.764 425.852h-16.15l-21.74 33.879 21.74 33.878h16.15c12.827-5.889 21.74-18.839 21.74-33.878 0-15.04-8.913-27.989-21.74-33.879z" fill="#ff8e9e"/><path d="m217.023 459.731c0-15.039 8.913-27.989 21.74-33.879-1.503-.69-3.06-1.283-4.661-1.772-3.438-1.05-7.086-1.618-10.867-1.618-20.583 0-37.269 16.686-37.269 37.269s16.686 37.269 37.269 37.269c5.544 0 10.8-1.22 15.529-3.391-12.828-5.889-21.741-18.839-21.741-33.878z" fill="#ea5b70"/></g></g><g><g fill="#d34459"><circle cx="236" cy="36.533" r="7.5"/><circle cx="246" cy="86.533" r="7.5"/><circle cx="186" cy="96.533" r="7.5"/><circle cx="136" cy="186.533" r="7.5"/><circle cx="121" cy="229.533" r="7.5"/></g><g fill="#ea5b70"><g><circle cx="281" cy="189.533" r="7.5"/><circle cx="301" cy="239.533" r="7.5"/><circle cx="361" cy="209.533" r="7.5"/><circle cx="311" cy="99.533" r="7.5"/></g><g><circle cx="311" cy="437.533" r="7.5"/><circle cx="371" cy="477.533" r="7.5"/><circle cx="391" cy="397.533" r="7.5"/></g></g></g><g fill="#313d40"><path d="m182.904 132.281c-4.143 0-7.5 3.358-7.5 7.5v12c0 4.142 3.357 7.5 7.5 7.5s7.5-3.358 7.5-7.5v-12c0-4.142-3.357-7.5-7.5-7.5z"/><path d="m270.722 146.054c-3.125-2.721-7.862-2.396-10.582.727-6.165 7.074-17.121 7.067-23.279 0-2.723-3.123-7.46-3.447-10.582-.727-3.122 2.722-3.448 7.459-.727 10.582 12.143 13.934 33.766 13.92 45.896 0 2.722-3.123 2.396-7.861-.726-10.582z"/><path d="m316.412 130.04c-11.804 0-21.406 9.603-21.406 21.406 0 4.142 3.357 7.5 7.5 7.5s7.5-3.358 7.5-7.5c0-3.532 2.874-6.406 6.406-6.406s6.406 2.874 6.406 6.406c0 4.142 3.357 7.5 7.5 7.5s7.5-3.358 7.5-7.5c0-11.803-9.602-21.406-21.406-21.406z"/></g></g></svg>