<svg id="Capa_1" enable-background="new 0 0 497 497" height="512" viewBox="0 0 497 497" width="512" xmlns="http://www.w3.org/2000/svg"><g><g><g><path d="m334.488 388.25h-86.126l-30.96 15.541v73.919l30.96 15.541h86.126c28.995 0 52.5-23.505 52.5-52.5 0-28.997-23.505-52.501-52.5-52.501z" fill="#ffb39d"/></g><path d="m248.363 388.25h-85.875c-28.995 0-52.5 23.504-52.5 52.5 0 28.995 23.505 52.5 52.5 52.5h85.875c-28.995-28.995-28.995-76.005 0-105z" fill="#ff8f71"/></g><path d="m495.16 259.272c-2.814-11.795-8.815-22.917-17.811-31.956-58.48-58.759-139.425-95.136-228.877-95.136-13.073 0-25.963.782-38.63 2.292-73.985 8.822-140.286 42.66-190.216 92.813-9.024 9.064-15.017 20.206-17.813 32.023l246.658 185.344z" fill="#ff6f4d"/><g><path d="m233.363 197.25h30v78.77h-30z" fill="#efedff"/><g><ellipse cx="248.363" cy="150.25" fill="#ffce71" rx="45.666" ry="67"/><ellipse cx="248.363" cy="150.25" fill="#fce3a0" rx="15.666" ry="37"/></g></g><g fill="#fce3a0"><path d="m169.866 71.177c2.318 0 4.606-1.072 6.073-3.092 2.435-3.351 1.692-8.042-1.659-10.476l-32.932-23.927c-3.348-2.433-8.041-1.693-10.476 1.659-2.435 3.351-1.692 8.042 1.659 10.476l32.932 23.927c1.332.967 2.874 1.433 4.403 1.433z"/><path d="m355.987 33.682-32.933 23.926c-3.352 2.435-4.094 7.125-1.659 10.476 1.467 2.02 3.754 3.092 6.073 3.092 1.528 0 3.071-.466 4.402-1.433l32.933-23.926c3.352-2.435 4.094-7.125 1.659-10.476-2.432-3.35-7.123-4.092-10.475-1.659z"/><path d="m116.576 127.955h-50.697c-4.143 0-7.5 3.357-7.5 7.5s3.357 7.5 7.5 7.5h50.697c4.143 0 7.5-3.357 7.5-7.5s-3.357-7.5-7.5-7.5z"/><path d="m431.456 127.955h-50.697c-4.143 0-7.5 3.357-7.5 7.5s3.357 7.5 7.5 7.5h50.697c4.143 0 7.5-3.357 7.5-7.5s-3.357-7.5-7.5-7.5z"/><path d="m354.804 225.094-32.933-23.927c-3.349-2.434-8.041-1.692-10.476 1.659s-1.692 8.041 1.659 10.476l32.933 23.927c3.351 2.436 8.042 1.692 10.476-1.659s1.692-8.042-1.659-10.476z"/><path d="m175.464 201.167-32.932 23.927c-3.352 2.435-4.094 7.125-1.659 10.476 2.437 3.355 7.129 4.093 10.476 1.659l32.932-23.927c3.352-2.435 4.094-7.125 1.659-10.476s-7.125-4.095-10.476-1.659z"/><path d="m248.5 3.75c-4.143 0-7.5 3.358-7.5 7.5v28.5c0 4.142 3.357 7.5 7.5 7.5s7.5-3.358 7.5-7.5v-28.5c0-4.142-3.357-7.5-7.5-7.5z"/></g><g><g><path d="m495.16 259.272c-59.031 25.568-121.97 41.915-187.41 48.118-.931-19.997-24.594-37.41-41.745-47.458-10.854-6.359-24.283-6.36-35.137-.002-17.148 10.044-40.806 27.449-41.744 47.438l-29.793 29.792v52.454l138.543 50.667c80.652-14.445 149.256-63.622 189.795-131.5 9.125-15.28 11.417-33.051 7.491-49.509z" fill="#ffb39d"/></g><g><g><g><path d="m9.479 309.122c48.643 81.184 137.465 135.531 238.993 135.531 16.86 0 33.369-1.501 49.402-4.372-53.026-28.389-92.069-76.664-108.822-132.904-65.963-6.255-128.917-22.817-187.239-48.067-3.916 16.556-1.544 34.44 7.666 49.812z" fill="#ff8f71"/></g></g></g></g><circle cx="248.5" cy="307.672" fill="#ea5b70" r="15"/><g><g><g><g><ellipse cx="175.244" cy="380.094" fill="#ffdbe0" rx="27.03" ry="21.525"/></g><g><ellipse cx="321.756" cy="380.094" fill="#ffdbe0" rx="27.03" ry="21.525"/></g></g></g><g fill="#313d40"><path d="m209.871 346.337c-3.123-2.722-7.86-2.397-10.581.726-2.095 2.403-5.117 3.782-8.293 3.782s-6.199-1.378-8.294-3.782c-2.721-3.122-7.459-3.446-10.581-.726-3.123 2.722-3.447 7.459-.726 10.582 4.943 5.672 12.088 8.926 19.601 8.926 7.512 0 14.656-3.253 19.6-8.926 2.721-3.123 2.397-7.86-.726-10.582z"/><path d="m324.878 346.337c-3.123-2.722-7.86-2.397-10.581.726-2.095 2.403-5.118 3.782-8.294 3.782s-6.198-1.378-8.293-3.782c-2.721-3.122-7.459-3.446-10.581-.726-3.123 2.722-3.447 7.459-.726 10.582 4.943 5.672 12.088 8.926 19.6 8.926 7.513 0 14.657-3.253 19.601-8.926 2.721-3.123 2.397-7.86-.726-10.582z"/><path d="m270.645 354.5c-3.124-2.722-7.862-2.396-10.582.727-2.938 3.372-7.181 5.306-11.64 5.306s-8.701-1.934-11.64-5.306c-2.723-3.122-7.46-3.448-10.582-.727-3.122 2.722-3.448 7.459-.727 10.582 5.788 6.642 14.152 10.451 22.948 10.451s17.16-3.809 22.948-10.451c2.723-3.123 2.397-7.86-.725-10.582z"/></g></g></g></svg>