<svg id="Capa_1" enable-background="new 0 0 504.5 504.5" height="512" viewBox="0 0 504.5 504.5" width="512" xmlns="http://www.w3.org/2000/svg"><g><path d="m224.133 111.318h30v78.77h-30z" fill="#efedff"/><g><path d="m193.467 73.318c0 33.137 20.445 54 45.666 54s45.666-20.863 45.666-54-20.171-65.818-45.391-65.818-45.941 32.681-45.941 65.818z" fill="#ffce71"/><path d="m247.539 46.233c-.039-.064-.077-.128-.115-.191-3.757-6.199-12.824-6.199-16.581 0-.038.063-.076.126-.115.19-4.614 7.708-7.261 17.581-7.261 27.087 0 11.071 4.103 24 15.666 24s15.666-12.929 15.666-24c0-9.506-2.646-19.378-7.26-27.086z" fill="#fce3a0"/></g><g><path d="m395.153 296.033c-1.41-29.41-19.486-55.434-46.554-67.021-45.086-19.301-47.139-23.762-83.361-59.356h-30l-65.606 103.742 40.427 115.896h30 .001c38.582.516 74.978-6.047 105.911-17.803 31.001-11.78 50.769-42.333 49.182-75.458z" fill="#ffce71"/><path d="m199.632 273.398c4.904-42.776 29.061-80.976 65.606-103.742-14.074-13.829-38.143-13.85-52.239-.005-35.651 35.012-38.398 40.12-81.879 58.72-27.136 11.608-45.131 37.839-46.191 67.334-1.184 32.923 18.879 62.988 49.832 74.267 35.298 12.862 71.154 18.864 105.298 19.321-30.444-30.445-45.33-73.12-40.427-115.895z" fill="#ffb357"/></g><g><g><g><ellipse cx="159.851" cy="273.563" fill="#ff8e9e" rx="29.355" ry="23.377"/></g><g><ellipse cx="318.964" cy="273.563" fill="#ff8e9e" rx="29.355" ry="23.377"/></g></g></g><g fill="#313d40"><path d="m176.959 231.56c-4.143 0-7.5 3.357-7.5 7.5v12c0 4.143 3.357 7.5 7.5 7.5s7.5-3.357 7.5-7.5v-12c0-4.143-3.358-7.5-7.5-7.5z"/><path d="m301.856 231.56c-4.143 0-7.5 3.357-7.5 7.5v12c0 4.143 3.357 7.5 7.5 7.5s7.5-3.357 7.5-7.5v-12c0-4.143-3.357-7.5-7.5-7.5z"/><path d="m260.798 245.049c-3.122-2.722-7.861-2.396-10.581.728-5.724 6.568-15.9 6.562-21.619 0-2.721-3.124-7.459-3.448-10.581-.728-3.123 2.721-3.449 7.459-.728 10.581 11.7 13.429 32.545 13.418 44.236 0 2.723-3.122 2.397-7.86-.727-10.581z"/></g><g><g><path d="m414.891 316.879c-16.261-13.991-41.342-13.213-56.831 4.709-22.858 26.456-56.268 41.427-91.231 41.427l-146.726.001v117.261l27.665 24.223h80.286v-13.903c73.439-17.368 140.89-58.949 191.078-117.292 14.41-16.753 12.512-42.015-4.241-56.426z" fill="#db9e82"/><path d="m238.746 296.048c-3.037-3.001-6.438-5.41-10.055-7.241-15.015-7.603-33.818-5.141-46.366 7.405-87.228 87.229-66.682 66.666-86.713 86.751-12.639 12.673-19.922 29.796-19.923 47.973v58.224 15.34h72.078v-15.34c0-29.989 11.923-57.143 31.675-76.895l49.249-49.249 9.666-9.666c15.651-15.652 16.133-41.742.389-57.302z" fill="#c8866a"/></g></g><g fill="#fce3a0"><path d="m176.783 12.749-15.574-11.316c-3.349-2.435-8.04-1.692-10.476 1.659-2.435 3.351-1.692 8.041 1.659 10.476l15.574 11.315c3.351 2.436 8.042 1.692 10.476-1.659 2.435-3.35 1.692-8.041-1.659-10.475z"/><path d="m310.299 24.884 15.574-11.315c3.352-2.435 4.094-7.125 1.659-10.476-2.435-3.352-7.124-4.095-10.476-1.659l-15.574 11.315c-3.352 2.435-4.094 7.125-1.659 10.476 2.438 3.355 7.13 4.092 10.476 1.659z"/><path d="m167.966 109.571-15.574 11.316c-3.352 2.435-4.094 7.125-1.659 10.476 2.435 3.352 7.122 4.095 10.476 1.659l15.574-11.316c3.352-2.435 4.094-7.125 1.659-10.476s-7.124-4.092-10.476-1.659z"/><path d="m325.874 120.888-15.574-11.315c-3.349-2.435-8.04-1.692-10.476 1.659-2.435 3.351-1.692 8.041 1.659 10.476l15.574 11.315c3.351 2.436 8.042 1.692 10.476-1.659s1.692-8.042-1.659-10.476z"/><path d="m164.133 67.137c0-4.143-3.357-7.5-7.5-7.5h-27.5c-4.143 0-7.5 3.357-7.5 7.5s3.357 7.5 7.5 7.5h27.5c4.143 0 7.5-3.358 7.5-7.5z"/><path d="m349.133 59.637h-27.5c-4.143 0-7.5 3.357-7.5 7.5s3.357 7.5 7.5 7.5h27.5c4.143 0 7.5-3.357 7.5-7.5s-3.357-7.5-7.5-7.5z"/></g></g></svg>