<svg id="Capa_1" enable-background="new 0 0 497 497" height="512" viewBox="0 0 497 497" width="512" xmlns="http://www.w3.org/2000/svg"><g><g><g><path d="m156.468 149.683h-31.427v31.427l135.891 135.89h20 .426v-42.427s-79.948-79.948-124.89-124.89z" fill="#e8b5b1"/><path d="m280.932 317-145.891-145.89h-21v21l124.891 124.89z" fill="#d6948c"/></g><g><path d="m126.855 120.07c-.07-.07-.143-.134-.213-.203-.07.069-.144.133-.213.203h-14.262v48.165l12.875 12.875 31.427-31.427c-16.336-16.335-28.049-28.048-29.614-29.613z" fill="#efedff"/><path d="m126.429 162.497c-11.716-11.716-11.716-30.71 0-42.427.07-.07.143-.134.213-.203-11.732-11.507-30.567-11.443-42.213.203-11.716 11.716-11.716 30.711 0 42.427l29.613 29.613 21-21z" fill="#d4d4ff"/></g></g><g><g><path d="m361.748 213.321v-31.427h-31.427l-135.105 135.106h62.853c26.853-26.854 73.274-73.274 103.679-103.679z" fill="#e8b5b1"/><path d="m340.321 191.894v-21h-21l-124.89 124.89v21.216h20.785z" fill="#d6948c"/></g><g><path d="m391.361 183.708c.07-.07.134-.143.203-.213-.069-.07-.133-.144-.203-.213v-14.262h-48.165l-12.875 12.875 31.427 31.427c16.335-16.336 28.048-28.049 29.613-29.614z" fill="#efedff"/><path d="m348.934 183.282c11.716-11.716 30.71-11.716 42.427 0 .07.07.134.143.203.213 11.507-11.732 11.443-30.567-.203-42.213-11.716-11.716-30.711-11.716-42.427 0l-29.613 29.613 21 21z" fill="#d4d4ff"/></g></g><path d="m327.458 12.539c-3.1-2.417-6.763-4.609-10.17-6.451-45.957-22.025-93.603 19.391-94.129 65.339-.351 30.654 18.914 46.914 26.405 55.698 17.794 20.813 21.614 56.333 1.845 82.689-5.403 7.663-23.819 27.768-26.513 61.687h29.746c6.319-20.661 20.568-31.159 24.906-35.138 34.593-31.802 42.381-81.628 22.46-121.478-10.325-20.648-20.485-26.825-25.454-34.273-11.61-16.591-.364-45.931 28.081-50.519 6.521-.696 11.236-.02 14.927.683 5.068.963 10.691.381 13.242-4.265 2.597-4.732.165-9.675-5.346-13.972z" fill="#efedff"/><g><path d="m114.068 490.923 115.682-118.627h-150v104.664c0 17.939 21.794 26.807 34.318 13.963z" fill="#ffb357"/><path d="m269.75 372.296 115.681 118.627c12.525 12.844 34.319 3.976 34.319-13.963v-104.664z" fill="#ffce71"/></g><g><path d="m429.123 313.038h-.324-.013-226.393l-19.609 14.397v161.411h132.962c74.562-18.763 127.753-67.83 127.753-125.407.001-17.834-5.115-34.848-14.376-50.401z" fill="#ffce71"/><path d="m187.994 363.439c0-12.476 2.515-24.551 7.197-36.005 2.011-4.919 5.421-9.723 8.203-14.396h-1-134.192-.001.013-.338c-9.26 15.554-14.376 32.567-14.376 50.401 0 5.79.538 11.495 1.582 17.091 12.25 65.692 94.176 116.47 193.418 116.47 23.633 0 46.284-2.879 67.247-8.154-74.562-18.764-127.753-67.831-127.753-125.407z" fill="#ffb357"/></g><g><path d="m432 257-231.377-.001-30.373 9.682v40.561l30.7 9.759h231.05c16.569 0 30-13.432 30-30 0-16.57-13.431-30.001-30-30.001z" fill="#fce3a0"/><path d="m200.623 256.998-135.601.002c-16.569 0-30.022 13.431-30.022 30 0 16.568 13.431 30 30 30h135.95c-16.569-16.568-16.896-43.433-.327-60.002z" fill="#ffce71"/></g><g fill="#ff8e9e"><ellipse cx="171.244" cy="391.798" rx="27.03" ry="21.526"/><ellipse cx="326.756" cy="391.798" rx="27.03" ry="21.526"/></g><g><g fill="#313d40"><path d="m199.871 358.042c-3.122-2.723-7.86-2.397-10.582.726-4.393 5.041-12.195 5.037-16.585 0-2.722-3.124-7.459-3.448-10.582-.726-3.123 2.721-3.448 7.459-.726 10.581 10.371 11.9 28.839 11.89 39.201 0 2.722-3.122 2.397-7.86-.726-10.581z"/><path d="m334.879 358.042c-3.124-2.724-7.861-2.396-10.582.725-4.396 5.041-12.195 5.039-16.586.001-2.722-3.124-7.459-3.448-10.582-.726-3.123 2.721-3.448 7.459-.726 10.581 10.37 11.899 28.838 11.889 39.201.001 2.721-3.123 2.397-7.86-.725-10.582z"/><path d="m278.35 387.449c-3.123-2.722-7.86-2.396-10.582.727-10.243 11.755-28.457 11.745-38.691 0-2.722-3.121-7.459-3.448-10.582-.727s-3.448 7.459-.727 10.582c16.222 18.615 45.103 18.597 61.309 0 2.721-3.123 2.396-7.861-.727-10.582z"/></g><circle cx="235.142" cy="371.913" fill="#ffb357" r="7.5"/><circle cx="261.858" cy="371.913" fill="#ffb357" r="7.5"/></g></g></svg>