<svg id="Capa_1" enable-background="new 0 0 497 497" height="512" viewBox="0 0 497 497" width="512" xmlns="http://www.w3.org/2000/svg"><g><g><g><path d="m424.115 254.241c-15.578-65.869-48.458-127.46-94.4-178.353-18.835-20.866-51.761-20.352-70.093.958-13.799 16.041-14.778 39.265-2.837 56.733 15.343 22.445 23.7 49.294 23.7 77.01l.001 165.182h152.011l28.06-31.144v-90.386z" fill="#fed2a4"/><path d="m432.466 344.596c-49.705-1.081-93.876-41.144-93.876-99.1v-43.865c0-25.036-20.484-46.121-45.518-45.858-24.502.257-44.569 20.199-44.571 45.043l-20.002 47.184 20.001 56.527c0 66.963 54.283 121.244 121.247 121.244h90.811v-81.145z" fill="#ffbd86"/></g><g><path d="m237.377 76.846c-18.332-21.31-51.257-21.823-70.093-.958-45.941 50.893-78.822 112.484-94.4 178.353h-36.441v171.53h90.811c30.671 0 58.677-11.393 80.03-30.17l9.231-19.831.001-165.182c0-27.716 8.357-54.565 23.7-77.01 11.94-17.467 10.961-40.692-2.839-56.732z" fill="#ffbd86"/><path d="m248.5 200.816c-.002-24.844-20.069-44.786-44.571-45.043-25.034-.263-45.518 20.822-45.518 45.858v43.865 32.117c0 44.254 17.58 86.696 48.873 117.989 25.267-22.22 41.217-54.781 41.217-91.074v-103.712z" fill="#fed2a4"/></g></g><g><g><path d="m51.627 221.114h-15.792l-21.258 33.127 21.258 33.127h15.792c12.543-5.759 21.258-18.421 21.258-33.127s-8.715-27.368-21.258-33.127z" fill="#ff8e9e"/><path d="m30.369 254.241c0-14.706 8.715-27.368 21.258-33.127-4.624-2.123-9.764-3.315-15.184-3.315-20.127 0-36.443 16.315-36.443 36.442 0 20.126 16.316 36.443 36.443 36.443 5.421 0 10.561-1.193 15.184-3.316-12.543-5.759-21.258-18.421-21.258-33.127z" fill="#ea5b70"/></g><g><path d="m51.627 293.999h-15.792l-21.258 33.127 21.258 33.127h15.792c12.543-5.759 21.258-18.421 21.258-33.127s-8.715-27.368-21.258-33.127z" fill="#ff8e9e"/><path d="m30.369 327.126c0-14.706 8.715-27.368 21.258-33.127-4.624-2.123-9.764-3.315-15.184-3.315-20.127 0-36.443 16.315-36.443 36.442 0 20.126 16.316 36.443 36.443 36.443 5.421 0 10.561-1.193 15.184-3.316-12.543-5.759-21.258-18.421-21.258-33.127z" fill="#ea5b70"/></g><g><path d="m51.627 366.884h-15.792l-21.258 33.127 21.258 33.127h15.792c12.543-5.759 21.258-18.421 21.258-33.127s-8.715-27.368-21.258-33.127z" fill="#ff8e9e"/><path d="m30.369 400.011c0-14.706 8.715-27.368 21.258-33.127-4.624-2.123-9.764-3.315-15.184-3.315-20.127 0-36.443 16.315-36.443 36.442 0 20.126 16.316 36.443 36.443 36.443 5.421 0 10.561-1.193 15.184-3.316-12.543-5.759-21.258-18.421-21.258-33.127z" fill="#ea5b70"/></g></g><g><g><path d="m475.742 221.114h-15.792l-21.258 33.127 21.258 33.127h15.792c12.543-5.759 21.258-18.421 21.258-33.127s-8.715-27.368-21.258-33.127z" fill="#ff8e9e"/><path d="m454.484 254.241c0-14.706 8.715-27.368 21.258-33.127-4.624-2.123-9.764-3.315-15.184-3.315-20.127 0-36.443 16.315-36.443 36.443 0 20.126 16.316 36.443 36.443 36.443 5.421 0 10.561-1.193 15.184-3.316-12.543-5.76-21.258-18.422-21.258-33.128z" fill="#ea5b70"/></g><g><path d="m475.742 293.999h-15.792l-21.258 33.127 21.258 33.127h15.792c12.543-5.759 21.258-18.421 21.258-33.127s-8.715-27.368-21.258-33.127z" fill="#ff8e9e"/><path d="m454.484 327.126c0-14.706 8.715-27.368 21.258-33.127-4.624-2.123-9.764-3.315-15.184-3.315-20.127 0-36.443 16.315-36.443 36.443 0 20.126 16.316 36.443 36.443 36.443 5.421 0 10.561-1.193 15.184-3.316-12.543-5.76-21.258-18.422-21.258-33.128z" fill="#ea5b70"/></g><g><path d="m475.742 366.884h-15.792l-21.258 33.127 21.258 33.127h15.792c12.543-5.759 21.258-18.421 21.258-33.127s-8.715-27.368-21.258-33.127z" fill="#ff8e9e"/><path d="m454.484 400.011c0-14.706 8.715-27.368 21.258-33.127-4.624-2.123-9.764-3.315-15.184-3.315-20.127 0-36.443 16.315-36.443 36.443 0 20.126 16.316 36.443 36.443 36.443 5.421 0 10.561-1.193 15.184-3.316-12.543-5.76-21.258-18.422-21.258-33.128z" fill="#ea5b70"/></g></g></g></svg>