<svg id="Capa_1" enable-background="new 0 0 497 497" height="512" viewBox="0 0 497 497" width="512" xmlns="http://www.w3.org/2000/svg"><g><g><g><path d="m377.245 116.547-59.447-23.958-52.553 24-93.204 46.781v97.003 92.843 143.784h164.215c21.044 0 41.342-8.191 56.217-23.078 18.654-18.669 38.476-39.586 49.771-61.86v-211.95c-14.398-31.123-36.829-59.77-64.999-83.565z" fill="#fce3a0"/><path d="m248.5 472.913c-29.262-29.546-49.448-65.337-60.254-103.492-11.235-39.666-12.329-81.887-2.944-122.308 4.736-20.398 12.138-40.337 22.257-59.258 14.591-27.281 34.235-51.455 57.686-71.265l-65.192-24-80.352 24c-28.092 23.73-48.466 52.368-62.882 83.522v211.895c11.38 22.333 29.401 43.336 48.27 62.123 14.84 14.774 35.061 22.87 56.003 22.87h116.03c-9.83-7.331-20.005-15.387-28.622-24.087z" fill="#ffce71"/></g><g><g><path d="m374.463 54.91c20.232-20.232 5.987-54.91-22.626-54.91h-77.188l-74.596 55.802 65.192 60.787 112-.042c-.049-.041.049.041 0 0-18.728-15.794-20.105-44.315-2.782-61.637z" fill="#ff8e9e"/></g><path d="m268.078 54.906c-20.232-20.232-5.983-54.906 22.629-54.906h-145.544c-28.613 0-42.862 34.674-22.63 54.906 17.379 17.378 15.942 45.825-2.833 61.684h145.544c18.776-15.86 20.213-44.306 2.834-61.684z" fill="#ea5b70"/></g><g><path d="m442.245 200.111c-5.132 1.643-11.095 4.487-15.161 8.553l-76.917 76.918-76.918-76.918c-13.678-13.679-35.819-13.679-49.498 0l-38.449 38.449-13.26 23.261v72.843l16.204 26.204 35.505 35.505c13.678 13.679 35.819 13.679 49.498 0l76.918-76.918 76.917 76.918c3.069 3.069 11.43 5.444 15.161 7.136 33.689-66.435 31.001-144.942 0-211.951z" fill="#ff8f71"/><path d="m185.302 247.113-38.469 38.469-76.917-76.918c-4.065-4.065-7.965-6.91-13.097-8.553-30.927 66.838-33.943 145.284 0 211.895 3.682-1.688 10.062-4.046 13.096-7.081l76.918-76.918 41.413 41.413c-11.235-39.666-12.329-81.887-2.944-122.307z" fill="#ff6f4d"/></g></g><g fill="#ff8e9e"><path d="m169.289 157.22c-16.212 0-29.355 10.466-29.355 23.376s13.143 23.377 29.355 23.377 29.355-10.466 29.355-23.377-13.143-23.376-29.355-23.376z"/><path d="m328.402 157.22c-16.212 0-29.354 10.466-29.354 23.376s13.143 23.377 29.354 23.377c16.212 0 29.355-10.466 29.355-23.377s-13.142-23.376-29.355-23.376z"/></g><path d="m491.35 194.396c-6.187-3.787-12.972-6.694-20.178-8.549-1.855-7.207-4.763-13.991-8.55-20.179-4.611-7.534-15.407-7.534-20.017 0-3.787 6.188-6.806 13.001-8.662 20.208-7.206 1.855-13.878 4.734-20.066 8.52-3.767 2.305-5.651 6.157-5.65 10.008 0 3.851 1.884 7.703 5.65 10.008 6.187 3.787 12.975 6.708 20.182 8.563 1.855 7.206 4.759 13.977 8.546 20.165 4.61 7.534 15.406 7.534 20.017 0 3.786-6.188 6.69-12.959 8.546-20.165 7.206-1.855 13.994-4.776 20.181-8.563 7.534-4.61 7.535-15.405.001-20.016z" fill="#fff1d4"/><path d="m65.545 290.478c-4.879-2.986-10.229-5.279-15.911-6.741-1.463-5.683-3.756-11.032-6.742-15.911-3.636-5.941-12.149-5.941-15.784 0-2.986 4.879-5.279 10.229-6.742 15.911-5.682 1.463-11.031 3.755-15.911 6.741-2.97 1.818-4.455 4.855-4.455 7.892s1.485 6.074 4.456 7.892c4.879 2.986 10.231 5.289 15.914 6.752 1.463 5.682 3.753 11.021 6.739 15.901 3.635 5.941 12.148 5.941 15.784 0 2.986-4.879 5.275-10.218 6.739-15.901 5.682-1.463 11.035-3.766 15.913-6.752 5.94-3.636 5.94-12.148 0-15.784z" fill="#fad5cb"/><g fill="#313d40"><path d="m186.397 138.593c-4.143 0-7.5 3.357-7.5 7.5v12c0 4.143 3.357 7.5 7.5 7.5s7.5-3.357 7.5-7.5v-12c0-4.143-3.357-7.5-7.5-7.5z"/><path d="m311.295 138.593c-4.143 0-7.5 3.357-7.5 7.5v12c0 4.143 3.357 7.5 7.5 7.5s7.5-3.357 7.5-7.5v-12c0-4.143-3.357-7.5-7.5-7.5z"/><path d="m270.238 152.081c-3.122-2.722-7.86-2.396-10.582.727-5.727 6.57-15.899 6.565-21.62.001-2.721-3.124-7.459-3.448-10.581-.728-3.123 2.721-3.449 7.459-.728 10.581 11.678 13.403 32.518 13.445 44.237.001 2.722-3.122 2.397-7.86-.726-10.582z"/></g></g></svg>