<svg id="Capa_1" enable-background="new 0 0 497 497" height="512" viewBox="0 0 497 497" width="512" xmlns="http://www.w3.org/2000/svg"><g><g><path d="m301.083 40.681c-5.085-2.88-9.808-6.307-13.227-9.301h-42.57l-71.88 116.243 71.88 113.124h43.005c42.627-17.245 72.948-61.385 72.948-113.124.001-46.397-24.381-86.683-60.156-106.942z" fill="#e8b5b1"/><path d="m215.341 147.623c0-46.397 24.382-86.683 60.156-106.942 4.165-2.358 8.317-5.526 12.359-9.301-5.171-4.531-10.457-10.986-15.408-18.479-5.353-8.102-14.498-12.901-24.209-12.901-9.625 0-18.576 4.799-24.074 12.7-8.454 12.15-18.315 22.356-28.248 27.981-35.775 20.259-60.157 60.546-60.157 106.942 0 66.758 50.475 120.877 112.74 120.877 8.941 0 17.637-1.121 25.978-3.23 4.727-1.195 9.338-2.711 13.814-4.522-42.628-17.246-72.951-61.385-72.951-113.125z" fill="#d6948c"/></g><g><path d="m395.048 273.715c-10.948-21.511-28.002-41.312-49.42-57.759l-40.718-19.336-44.436 19.366-70.864 32.334v212.419h124.854c16 0 31.432-5.661 42.742-15.951 14.183-12.904 29.253-27.362 37.841-42.757 25.615-45.92 23.571-82.001.001-128.316z" fill="#fce3a0"/><path d="m260.474 215.985-59.675-19.351-50.984 19.351c-21.359 16.402-36.849 36.196-47.809 57.729-23.514 46.197-25.807 82.236 0 128.277 8.653 15.437 22.354 29.954 36.7 42.938 11.283 10.213 26.657 15.808 42.58 15.808h88.219c-7.187-4.872-15.364-10.776-21.762-16.648-92.035-84.48-47.413-181.918 12.731-228.104z" fill="#ffce71"/></g><g><path d="m225.86 186.692c10.931-14.752 2.653-37.247-15.18-42.921-7.872-2.544-13.269-9.981-12.4-18.31 1.992-18.266-17.411-34.345-35.931-30.344-8.904 2.037-17.248-2.259-23.216-8.858-11.792-13.038-26.964-10.155-36.775-.861s-12.856 23.665.909 34.834c6.967 5.653 11.502 13.557 9.351 21.991-4.225 17.542 12.75 35.921 32.035 34.034 8.794-.823 16.645 4.289 19.331 11.745 5.99 16.892 29.739 24.732 45.313 14.379 6.391-4.249 12.077-9.635 16.563-15.689z" fill="#18c08b"/><path d="m287.704 202.381c15.574 10.354 39.323 2.513 45.313-14.379 2.685-7.457 10.537-12.569 19.331-11.745 19.284 1.886 36.259-16.492 32.035-34.034-2.151-8.434 2.385-16.337 9.351-21.991 13.765-11.169 10.721-25.54.909-34.834s-24.983-12.177-36.775.861c-5.968 6.599-14.312 10.895-23.216 8.858-18.52-4.002-37.923 12.077-35.931 30.344.869 8.33-4.528 15.767-12.4 18.31-17.833 5.674-26.11 28.169-15.18 42.921 4.485 6.054 10.171 11.44 16.563 15.689z" fill="#70dcba"/><path d="m286.002 109.956c-8.336-4.468-16.208-12.989-15.455-21.547.496-5.636-1.788-10.285-5.055-13.979-9.35-10.574-24.635-10.574-33.985 0-3.266 3.694-5.551 8.343-5.055 13.979.753 8.558-7.119 17.079-15.455 21.547-17.152 9.458-18.982 33.526-2.938 44.967 7.287 5.243 9.138 14.008 5.226 20.993-8.931 15.762 2.736 36.951 22.724 40.023 7.263 1.116 11.274 4.506 12.491 8.831 1.217-4.325 5.228-7.715 12.491-8.831 19.987-3.072 31.654-24.261 22.724-40.023-3.911-6.985-2.06-15.751 5.226-20.993 16.044-11.441 14.213-35.509-2.939-44.967z" fill="#30cd9c"/></g><g><path d="m367.5 164.771h-116.233l-60.767 31.151 60.767 28.842c5.563 0 107.933.007 116.233.007 16.569 0 30-13.432 30-30 0-16.569-13.431-30-30-30z" fill="#ff8f71"/><path d="m251.267 164.771h-121.767c-16.569 0-30 13.431-30 30 0 16.568 13.431 30 30 30h121.767c-16.568-16.569-16.568-43.432 0-60z" fill="#ff6f4d"/></g><g><path d="m342.75 452h-84.147l-38.603 23.364 38.603 21.636h84.147c12.426 0 22.5-10.074 22.5-22.5 0-12.427-10.074-22.5-22.5-22.5z" fill="#ff8f71"/><path d="m258.603 452h-104.353c-12.426 0-22.5 10.073-22.5 22.5 0 12.426 10.074 22.5 22.5 22.5h104.353c-12.427-12.426-12.427-32.574 0-45z" fill="#ff6f4d"/></g><g><g fill="#ff8e9e"><path d="m168.943 281.747c-16.212 0-29.355 10.466-29.355 23.376s13.143 23.377 29.355 23.377 29.355-10.466 29.355-23.377-13.142-23.376-29.355-23.376z"/><path d="m328.057 281.747c-16.212 0-29.354 10.466-29.354 23.376s13.143 23.377 29.354 23.377c16.212 0 29.355-10.466 29.355-23.377s-13.143-23.376-29.355-23.376z"/></g><g fill="#313d40"><path d="m186.052 263.12c-4.143 0-7.5 3.357-7.5 7.5v12c0 4.143 3.357 7.5 7.5 7.5s7.5-3.357 7.5-7.5v-12c0-4.143-3.358-7.5-7.5-7.5z"/><path d="m310.949 263.12c-4.143 0-7.5 3.357-7.5 7.5v12c0 4.143 3.357 7.5 7.5 7.5s7.5-3.357 7.5-7.5v-12c0-4.143-3.357-7.5-7.5-7.5z"/><path d="m269.892 276.608c-3.122-2.722-7.86-2.396-10.582.727-5.727 6.57-15.899 6.565-21.62.001-2.721-3.124-7.459-3.448-10.581-.728-3.123 2.721-3.449 7.459-.728 10.581 11.678 13.403 32.518 13.445 44.237.001 2.722-3.122 2.398-7.86-.726-10.582z"/></g></g><path d="m287.404 405.701c-2.751-4.514-2.974-10.377-.745-19.604.918-3.796.139-7.632-2.137-10.522-2.44-3.101-6.26-4.809-10.753-4.809h-17.769v-15.363c8.406 1.722 18.538 2.378 27.742-3.232 3.537-2.155 4.656-6.771 2.501-10.308-2.156-3.538-6.772-4.659-10.308-2.501-4.514 2.753-10.375 2.975-19.604.745-3.798-.917-7.632-.14-10.522 2.137-3.101 2.44-4.809 6.259-4.809 10.752v17.771h-15.363c1.721-8.403 2.377-18.538-3.232-27.742-2.157-3.538-6.771-4.658-10.308-2.501-3.537 2.155-4.656 6.771-2.501 10.308 2.751 4.514 2.974 10.377.745 19.604-.881 3.644-.066 7.408 2.233 10.33 2.465 3.132 6.448 5.001 10.656 5.001h17.77v15.363c-8.404-1.72-18.537-2.377-27.742 3.232-3.537 2.155-4.656 6.771-2.501 10.308 1.413 2.318 3.882 3.598 6.411 3.598 1.33 0 2.678-.354 3.896-1.097 4.515-2.752 10.38-2.974 19.606-.744 3.641.875 7.408.065 10.33-2.235 3.13-2.465 4.999-6.448 4.999-10.655v-17.77h15.363c-1.721 8.403-2.377 18.538 3.232 27.742 1.413 2.318 3.882 3.598 6.411 3.598 1.33 0 2.678-.354 3.896-1.097 3.539-2.156 4.659-6.772 2.503-10.309z" fill="#ea5b70"/></g></svg>