<svg id="Capa_1" enable-background="new 0 0 497 497" height="512" viewBox="0 0 497 497" width="512" xmlns="http://www.w3.org/2000/svg"><g><path d="m467 106.834c-4.764 0-366.352 0-370.517 0-53.201 0-96.483 43.283-96.483 96.484v176.662l78.626 106.312 38.228 10.542h350.146c16.569 0 30-13.432 30-30 0-4.844 0-323.866 0-330 0-16.568-13.431-30-30-30z" fill="#676fb2"/><g fill="#ff8e9e"><path d="m452 211.834c-33.137 0-60-26.863-60-60h-269.055v270h269.055c0-33.137 26.863-60 60-60z"/><circle cx="452" cy="151.834" r="15"/><circle cx="451.5" cy="421.834" r="15"/></g><g fill="#fce3a0"><path d="m411.394 261.228-68.787-68.787c-14.133-14.133-37.073-14.14-51.213 0l-67.894 67.893-67.894-67.894v188.787l67.894-67.894 67.894 67.894c14.133 14.133 37.073 14.14 51.213 0l68.787-68.787c14.133-14.132 14.139-37.072 0-51.212z"/><circle cx="223.5" cy="200.334" r="15"/><circle cx="223.5" cy="373.334" r="15"/></g><g><path d="m176.67 80.352c0-44.215-35.972-80.187-80.187-80.187l-50 141.169 50 142.162 80.187 80.187.229-122.441z" fill="#8288cb"/><path d="m96.483.166c-50.031 0-91.286 38.279-96.025 87.087-.3 3.093-.458 6.226-.458 9.396v283.331l78.626 106.312h30.894v-55.459l67.149-67.15-80.187-80.187v-283.33z" fill="#676fb2"/></g><path d="m497 466.834h-380.146c-47.891 0-86.854-38.962-86.854-86.854 0-36.659 29.824-66.484 66.483-66.484 27.673 0 50.187 22.514 50.187 50.187 0 20.484-16.665 37.15-37.149 37.15-8.284 0-15 6.716-15 15s6.716 15 15 15c37.026 0 67.149-30.124 67.149-67.15 0-44.215-35.972-80.187-80.187-80.187-53.201 0-96.483 43.283-96.483 96.484 0 64.434 52.421 116.854 116.854 116.854h350.146c16.569 0 30-13.431 30-30z" fill="#4c5699"/><g fill="#313d40"><path d="m254.551 267.191c-4.143 0-7.5 3.358-7.5 7.5v12c0 4.142 3.357 7.5 7.5 7.5s7.5-3.358 7.5-7.5v-12c0-4.142-3.357-7.5-7.5-7.5z"/><path d="m379.449 267.191c-4.143 0-7.5 3.358-7.5 7.5v12c0 4.142 3.357 7.5 7.5 7.5s7.5-3.358 7.5-7.5v-12c0-4.142-3.358-7.5-7.5-7.5z"/><path d="m338.392 280.68c-3.125-2.721-7.862-2.396-10.582.727-5.727 6.569-15.898 6.564-21.621-.001-2.721-3.122-7.459-3.447-10.581-.726-3.123 2.722-3.447 7.459-.726 10.582 11.705 13.429 32.543 13.416 44.236-.001 2.722-3.122 2.396-7.86-.726-10.581z"/></g><g fill="#ff8e9e"><circle cx="317" cy="230.334" r="15"/><circle cx="317" cy="343.334" r="15"/></g></g></svg>