<svg id="Capa_1" enable-background="new 0 0 497 497" height="512" viewBox="0 0 497 497" width="512" xmlns="http://www.w3.org/2000/svg"><g><path d="m494.071 241.429-14.896-14.896c-5.826-5.826-9.099-13.727-9.099-21.966v-.001c0-17.157-15.292-34.403-32.449-34.403 12.061-12.062 10.961-35.131-1.2-47.092-5.94-5.843-9.282-13.824-9.282-22.148v-21.068c0-5.523-4.477-10-10-10h-21.066c-8.239 0-16.14-3.273-21.966-9.099l-.001-.001c-12.132-12.132-35.14-13.514-47.272-1.382l-78.34 189.127 78.339 189.127c12.061 12.062 35.131 10.961 47.092-1.2 5.843-5.94 13.824-9.282 22.148-9.282h21.066c5.523 0 10-4.477 10-10v-21.066c0-8.239 3.273-16.141 9.099-21.966l.001-.001c12.132-12.132 13.514-35.14 1.382-47.272 17.057 0 32.592-17.091 32.45-34.147-.069-8.332 3.211-16.338 9.098-22.225l14.896-14.896c3.906-3.906 3.906-10.238 0-14.143z" fill="#b9f0ff"/><path d="m292.692 26.923c-8.332.069-16.338-3.211-22.225-9.098l-14.896-14.896c-3.905-3.905-10.237-3.905-14.142 0l-14.896 14.896c-5.826 5.826-13.727 9.099-21.966 9.099h-.001c-17.157 0-34.404 15.292-34.404 32.449-12.061-12.062-35.131-10.961-47.092 1.2-5.843 5.94-13.824 9.282-22.148 9.282h-21.067c-5.523 0-10 4.477-10 10v21.066c0 8.239-3.273 16.141-9.099 21.966l-.001.001c-12.132 12.132-13.514 35.14-1.382 47.272-17.057 0-32.592 17.091-32.45 34.147.069 8.332-3.211 16.338-9.098 22.225l-14.896 14.897c-3.905 3.905-3.905 10.237 0 14.143l14.896 14.896c5.826 5.826 9.099 13.727 9.099 21.966v.001c0 17.157 15.292 34.403 32.449 34.403-12.061 12.062-10.961 35.131 1.2 47.092 5.94 5.843 9.282 13.824 9.282 22.148v21.066c0 5.523 4.477 10 10 10h21.066c8.239 0 16.14 3.273 21.966 9.099l.001.001c12.132 12.132 35.14 13.514 47.272 1.382 0 17.057 17.091 32.592 34.147 32.45 8.332-.069 16.338 3.211 22.225 9.098l14.896 14.896c3.905 3.905 10.237 3.905 14.142 0l14.896-14.896c5.826-5.826 13.727-9.099 21.966-9.099h.001c17.157 0 34.404-15.292 34.404-32.449l.001-378.254c.002-17.056-17.089-32.591-34.146-32.449z" fill="#7ce3ff"/><path d="m437.627 320.534-6.641-16.033c-2.597-6.271-2.597-13.316 0-19.586v-.001c5.409-13.058-.793-31.004-13.85-36.413 12.982-5.377 19.417-23.282 13.932-36.218-2.679-6.32-2.707-13.447-.083-19.783l6.641-16.033c1.741-4.204-.255-9.022-4.458-10.764l-16.033-6.641c-6.27-2.597-11.252-7.579-13.849-13.85v-.001c-5.409-13.058-22.484-21.363-35.542-15.954 5.377-12.982-2.733-30.192-15.759-35.462-6.363-2.574-11.422-7.595-14.047-13.931l-6.641-16.033c-1.741-4.204-6.56-6.2-10.763-4.458l-16.033 6.641c-6.271 2.597-13.316 2.597-19.586 0h-.001c-13.058-5.409-31.005.793-36.413 13.851l-40 168.636 40 168.636c5.377 12.982 23.281 19.417 36.218 13.932 6.32-2.679 13.447-2.707 19.783-.083l16.033 6.642c4.203 1.741 9.022-.255 10.763-4.458l6.641-16.034c2.597-6.27 7.579-11.252 13.85-13.85h.001c13.058-5.408 21.363-22.484 15.954-35.542 12.982 5.377 30.193-2.733 35.462-15.759 2.574-6.363 7.595-11.422 13.93-14.046l16.033-6.641c4.203-1.742 6.199-6.56 4.458-10.764z" fill="#70dcba"/><path d="m212.282 65.932c-6.32 2.679-13.447 2.707-19.783.082l-16.033-6.641c-4.203-1.741-9.022.255-10.763 4.458l-6.641 16.034c-2.597 6.27-7.579 11.252-13.85 13.849l-.001.001c-13.058 5.408-21.363 22.484-15.954 35.542-12.982-5.377-30.193 2.733-35.462 15.759-2.574 6.362-7.595 11.422-13.93 14.046l-16.033 6.641c-4.203 1.741-6.199 6.56-4.458 10.763l6.641 16.033c2.597 6.271 2.597 13.316 0 19.586v.001c-5.408 13.058.793 31.004 13.851 36.413-12.982 5.377-19.417 23.282-13.932 36.218 2.679 6.32 2.707 13.447.083 19.783l-6.641 16.033c-1.741 4.204.255 9.022 4.458 10.764l16.033 6.641c6.27 2.597 11.252 7.579 13.849 13.85v.001c5.409 13.058 22.484 21.363 35.542 15.954-5.377 12.982 2.733 30.192 15.759 35.462 6.363 2.574 11.423 7.595 14.047 13.931l6.641 16.033c1.741 4.204 6.56 6.199 10.763 4.458l16.033-6.641c6.271-2.597 13.316-2.597 19.586 0h.001c13.058 5.409 31.005-.793 36.413-13.851v-337.271c-5.378-12.981-23.282-19.416-36.219-13.932z" fill="#30cd9c"/><path d="m193.297 95.63c-1.585-3.827-5.971-5.645-9.799-4.059-3.827 1.585-5.645 5.972-4.059 9.799l55.204 133.272-133.273-55.202c-3.823-1.586-8.213.232-9.799 4.059s.231 8.214 4.059 9.799l133.273 55.202-133.273 55.203c-3.827 1.585-5.645 5.972-4.059 9.799 1.196 2.889 3.988 4.632 6.932 4.632.956 0 1.929-.185 2.867-.573l133.273-55.203-55.203 133.272c-1.586 3.827.231 8.214 4.059 9.799.938.39 1.91.573 2.867.573 2.942 0 5.735-1.744 6.932-4.632l55.204-133.272v-39.195z" fill="#18c08b"/><path d="m401.37 303.703-133.272-55.203 133.272-55.203c3.827-1.585 5.645-5.972 4.059-9.799-1.585-3.828-5.971-5.643-9.799-4.059l-133.272 55.203 55.203-133.272c1.586-3.827-.231-8.214-4.059-9.799-3.823-1.588-8.214.232-9.799 4.059l-55.204 133.272v39.195l55.204 133.272c1.196 2.889 3.988 4.632 6.932 4.632.956 0 1.929-.185 2.867-.573 3.827-1.585 5.645-5.972 4.059-9.799l-55.203-133.272 133.272 55.203c.938.39 1.91.573 2.867.573 2.943 0 5.735-1.744 6.932-4.632 1.586-3.826-.231-8.213-4.059-9.798z" fill="#30cd9c"/><g fill="#ffce71"><g><path d="m265.62 115.917c-4.035-4.035-10.577-6.053-17.12-6.053s-13.085 2.018-17.12 6.053c-15.684 15.683-23.526 36.24-23.526 56.796s7.842 41.112 23.526 56.796c4.035 4.035 10.577 6.053 17.12 6.053s13.085-2.018 17.12-6.053c15.684-15.683 23.526-36.24 23.526-56.796s-7.842-41.112-23.526-56.796z"/><path d="m265.62 267.492c-4.035-4.035-10.577-6.053-17.12-6.053s-13.085 2.018-17.12 6.053c-15.684 15.683-23.526 36.24-23.526 56.796s7.842 41.112 23.526 56.796c4.035 4.035 10.577 6.053 17.12 6.053s13.085-2.018 17.12-6.053c15.684-15.683 23.526-36.24 23.526-56.796s-7.842-41.113-23.526-56.796z"/></g><g><path d="m381.083 265.62c4.035-4.035 6.053-10.577 6.053-17.12s-2.018-13.085-6.053-17.12c-15.683-15.684-36.24-23.526-56.796-23.526s-41.112 7.842-56.796 23.526c-4.035 4.035-6.053 10.577-6.053 17.12s2.018 13.085 6.053 17.12c15.683 15.684 36.24 23.526 56.796 23.526s41.113-7.842 56.796-23.526z"/><path d="m229.509 265.62c4.035-4.035 6.053-10.577 6.053-17.12s-2.018-13.085-6.053-17.12c-15.683-15.684-36.24-23.526-56.796-23.526s-41.112 7.842-56.796 23.526c-4.035 4.035-6.053 10.577-6.053 17.12s2.018 13.085 6.053 17.12c15.683 15.684 36.24 23.526 56.796 23.526s41.112-7.842 56.796-23.526z"/></g></g><g fill="#fce3a0"><g><path d="m354.356 166.855c0-5.706-3.199-11.759-7.825-16.385s-10.679-7.825-16.385-7.825c-22.18 0-42.26 8.99-56.796 23.526-14.535 14.535-23.526 34.616-23.526 56.796 0 5.706 3.199 11.759 7.825 16.385s10.679 7.825 16.385 7.825c22.18 0 42.26-8.99 56.796-23.526s23.526-34.616 23.526-56.796z"/><path d="m247.177 274.035c0-5.706-3.199-11.759-7.825-16.385s-10.679-7.825-16.385-7.825c-22.18 0-42.26 8.99-56.796 23.526-14.535 14.535-23.526 34.616-23.526 56.796 0 5.706 3.199 11.759 7.825 16.385s10.679 7.825 16.385 7.825c22.18 0 42.26-8.99 56.796-23.526s23.526-34.616 23.526-56.796z"/></g><g><path d="m330.145 354.356c5.706 0 11.759-3.199 16.385-7.825s7.825-10.679 7.825-16.385c0-22.18-8.99-42.26-23.526-56.796s-34.616-23.526-56.796-23.526c-5.706 0-11.759 3.199-16.385 7.825s-7.825 10.679-7.825 16.385c0 22.18 8.99 42.26 23.526 56.796s34.616 23.526 56.796 23.526z"/><path d="m222.966 247.177c5.706 0 11.759-3.199 16.385-7.825s7.825-10.679 7.825-16.385c0-22.18-8.99-42.26-23.526-56.796-14.535-14.535-34.616-23.526-56.796-23.526-5.706 0-11.759 3.199-16.385 7.825s-7.825 10.679-7.825 16.385c0 22.18 8.99 42.26 23.526 56.796 14.535 14.536 34.616 23.526 56.796 23.526z"/></g></g><g fill="#ffce71"><path d="m171.787 314.606c-2.929 2.93-2.929 7.678 0 10.607 1.465 1.464 3.385 2.196 5.304 2.196s3.839-.732 5.304-2.196l38.605-38.605-10.607-10.608z"/><path d="m325.213 314.606-38.605-38.606-10.608 10.608 38.605 38.605c1.465 1.464 3.385 2.196 5.304 2.196s3.839-.732 5.304-2.196c2.929-2.93 2.929-7.678 0-10.607z"/><path d="m325.213 171.787c-2.93-2.928-7.678-2.928-10.607 0l-38.606 38.606 10.608 10.607 38.605-38.605c2.929-2.93 2.929-7.678 0-10.608z"/><path d="m171.787 171.787c-2.929 2.93-2.929 7.678 0 10.607l38.606 38.606 10.607-10.607-38.605-38.605c-2.93-2.928-7.678-2.928-10.608-.001z"/></g><g fill="#ffb357"><path d="m147.513 241c-4.143 0-7.5 3.357-7.5 7.5s3.357 7.5 7.5 7.5h38.371l.012-15z"/><path d="m248.5 140.013c-4.143 0-7.5 3.357-7.5 7.5v39.749h15v-39.749c0-4.143-3.357-7.5-7.5-7.5z"/><path d="m241 309.806v39.682c0 4.143 3.357 7.5 7.5 7.5s7.5-3.357 7.5-7.5v-39.682z"/><path d="m349.488 241h-41.023v15h41.023c4.143 0 7.5-3.357 7.5-7.5s-3.358-7.5-7.5-7.5z"/></g><g><path d="m248.5 173.5c-.909 0-1.813.022-2.714.054l-41.089 24.492-31.197 50.454 31.198 50.454 41.089 24.492c.901.032 1.805.054 2.714.054 41.355 0 75-33.645 75-75s-33.646-75-75.001-75z" fill="#ffb39d"/><g><path d="m213.174 248.5c0-29.59 12.55-56.245 32.612-74.946-40.103 1.434-72.286 34.499-72.286 74.946 0 40.446 32.184 73.511 72.286 74.946-20.061-18.701-32.612-45.356-32.612-74.946z" fill="#ff8f71"/></g></g><g fill="#313d40"><path d="m206.052 231.429c-4.143 0-7.5 3.357-7.5 7.5v12c0 4.143 3.357 7.5 7.5 7.5s7.5-3.357 7.5-7.5v-12c0-4.143-3.357-7.5-7.5-7.5z"/><path d="m290.948 231.429c-4.143 0-7.5 3.357-7.5 7.5v12c0 4.143 3.357 7.5 7.5 7.5s7.5-3.357 7.5-7.5v-12c0-4.143-3.357-7.5-7.5-7.5z"/><path d="m266.428 245.706c-3.123-2.722-7.859-2.396-10.582.727-1.855 2.129-4.532 3.35-7.346 3.35s-5.49-1.221-7.346-3.35c-2.723-3.122-7.46-3.447-10.582-.727-3.123 2.722-3.447 7.46-.727 10.582 4.705 5.398 11.504 8.494 18.654 8.494s13.949-3.096 18.654-8.494c2.722-3.122 2.398-7.86-.725-10.582z"/></g></g></svg>