<svg id="Capa_1" enable-background="new 0 0 497 497" height="512" viewBox="0 0 497 497" width="512" xmlns="http://www.w3.org/2000/svg"><g><g><path d="m148.5 97.5c-11.507 0-21.501 6.479-26.533 15.988-.43.812-.824 1.647-1.179 2.501-1.474 3.544-2.288 7.433-2.288 11.511v205.987h-45c-16.57 0-30 13.434-30 30v133.513h75l160-169.631v-229.869z" fill="#2ed0fc"/><path d="m428.5 333.487h-50v-205.987c0-4.078-.814-7.966-2.288-11.511-4.514-10.856-15.222-18.489-27.712-18.489h-70c-16.566 0-30 13.43-30 30v205.987h-100c-16.57 0-30 13.434-30 30v133.513h340v-133.513c0-16.565-13.429-30-30-30z" fill="#7ce3ff"/></g><g><g><path d="m158.5 4c-4.142 0-7.5 3.358-7.5 7.5v18.5h15v-18.5c0-4.142-3.358-7.5-7.5-7.5z" fill="#fc8a3d"/><ellipse cx="158.5" cy="37.5" fill="#ffb357" rx="20" ry="15"/><g><path d="m179.713 59.089c-5.321-3.991-12.143-6.169-19.102-6.535l-32.111 22.446 32.111 22.446c6.96-.366 13.782-2.544 19.102-6.535 5.858-4.394 8.787-10.152 8.787-15.911s-2.929-11.517-8.787-15.911z" fill="#ffce71"/><path d="m147.591 75c0-8.27 4.428-16.434 13.02-22.446-.703-.037-1.407-.054-2.111-.054-16.562 0-30 10.062-30 22.5 0 12.422 13.416 22.5 30 22.5.704 0 1.408-.017 2.111-.054-8.339-5.835-13.02-13.916-13.02-22.446z" fill="#ffb357"/></g></g><g><path d="m248.5 4c-4.142 0-7.5 3.358-7.5 7.5v18.5h15v-18.5c0-4.142-3.358-7.5-7.5-7.5z" fill="#fc8a3d"/><ellipse cx="248.5" cy="37.5" fill="#ffb357" rx="20" ry="15"/><g><path d="m269.713 59.089c-5.321-3.991-12.143-6.169-19.102-6.535l-32.111 22.446 32.111 22.446c6.96-.366 13.782-2.544 19.102-6.535 5.858-4.394 8.787-10.152 8.787-15.911s-2.929-11.517-8.787-15.911z" fill="#ffce71"/><path d="m237.591 75c0-8.27 4.428-16.434 13.02-22.446-.703-.037-1.407-.054-2.111-.054-16.562 0-30 10.062-30 22.5 0 12.422 13.416 22.5 30 22.5.704 0 1.408-.017 2.111-.054-8.339-5.835-13.02-13.916-13.02-22.446z" fill="#ffb357"/></g></g><g><path d="m338.5 4c-4.142 0-7.5 3.358-7.5 7.5v18.5h15v-18.5c0-4.142-3.358-7.5-7.5-7.5z" fill="#fc8a3d"/><ellipse cx="338.5" cy="37.5" fill="#ffb357" rx="20" ry="15"/><g><path d="m359.713 59.089c-5.321-3.991-12.143-6.169-19.102-6.535l-32.111 22.446 32.111 22.446c6.96-.366 13.782-2.544 19.102-6.535 5.858-4.394 8.787-10.152 8.787-15.911s-2.929-11.517-8.787-15.911z" fill="#ffce71"/><path d="m327.591 75c0-8.27 4.428-16.434 13.02-22.446-.703-.037-1.407-.054-2.111-.054-16.562 0-30 10.062-30 22.5 0 12.422 13.416 22.5 30 22.5.704 0 1.408-.017 2.111-.054-8.339-5.835-13.02-13.916-13.02-22.446z" fill="#ffb357"/></g></g></g><g><path d="m283.952 133.322-18.909 18.909c-7.514 7.514-12.506 16.604-15.005 26.214l20.312 35.635h30.781l20.665-20.665c9.893-11.572 3.015-29.469-12.014-31.514l1.374-1.374c7.512-7.512 7.512-19.692 0-27.204-7.512-7.513-19.692-7.513-27.204-.001z" fill="#fce3a0"/><path d="m321.796 193.415c-15.682 15.682-41.107 15.682-56.789 0l-14.648-16.15c-1.268 4.877-1.859 10.056-1.859 15.086l-10 23.636 10 17.911h16.543l16.645 16.646c9.456 9.456 24.762 9.535 34.315.178 4.728-4.63 7.088-11.026 7.088-17.643 0-2.755 1.051-5.51 3.153-7.613 11.462-11.46 6.872-26.776-4.448-32.051z" fill="#ffce71"/><path d="m246.683 177.438c-.015-.056-.031-.111-.046-.167-2.592-9.174-7.472-17.832-14.679-25.039l-18.909-18.909c-7.512-7.512-19.692-7.512-27.204 0s-7.512 19.692 0 27.204l1.374 1.374c-15.029 2.045-21.906 19.942-12.014 31.515l.002.002 20.663 20.663h30.781l20.287-35.59c-.084-.352-.166-.704-.255-1.053z" fill="#ffce71"/><path d="m246.937 178.49c-.083-.351-.165-.703-.254-1.052-.015-.056-.031-.111-.046-.167l-14.644 16.145c-15.681 15.681-41.104 15.682-56.786.002-.001-.001-.002-.001-.002-.002-11.321 5.275-15.91 20.591-4.448 32.052 2.102 2.103 3.153 4.857 3.153 7.613 0 6.617 2.36 13.013 7.088 17.643 9.553 9.357 24.859 9.277 34.315-.178l16.645-16.646h16.542v-41.547c0-4.697-.503-9.361-1.563-13.863z" fill="#ffb357"/></g><g><g><path d="m38.142 33.962c-20.099 11.604-26.986 37.305-15.382 57.404l4.359 7.549 14.351 13.821 19.314-11.151c-3.428-4.785-4.467-10.405-3.193-16.151s4.933-10.68 10.062-13.567l8.27-4.775-23.791-41.208z" fill="#7ce3ff"/><path d="m27.168 73.944c1.385-14.334 9.214-27.26 21.277-35.126-7.204 12.478-2.929 28.434 9.549 35.638 15.598 9.005 35.542 3.661 44.547-11.936 7.862-13.617 6.97-29.881-.922-42.289-3.408-5.358-8.118-10-13.998-13.395-24.371-14.072-55.534-5.721-69.605 18.65-17.588 30.464-7.01 69.662 23.454 87.25-10.334-10.029-15.686-24.458-14.302-38.792z" fill="#2ed0fc"/></g><g><path d="m458.858 33.962c20.099 11.604 26.986 37.305 15.382 57.404l-4.359 7.549-14.351 13.821-19.314-11.151c3.428-4.785 4.467-10.405 3.193-16.151s-4.933-10.68-10.062-13.567l-8.27-4.775 23.792-41.208z" fill="#2ed0fc"/><path d="m469.832 73.944c-1.385-14.334-9.214-27.26-21.277-35.126 7.204 12.478 2.929 28.434-9.549 35.638-15.598 9.005-35.542 3.661-44.547-11.936-7.862-13.617-6.97-29.881.922-42.289 3.408-5.358 8.118-10 13.998-13.395 24.371-14.071 55.535-5.721 69.605 18.651 17.588 30.464 7.01 69.662-23.454 87.25 10.334-10.03 15.686-24.459 14.302-38.793z" fill="#7ce3ff"/></g></g><g><path d="m62.861 94.647-62.861 58.589 62.861 58.589c13.624-.955 26.979-6.641 37.395-17.058 11.468-11.468 17.201-26.5 17.201-41.531 0-14.264-5.163-28.528-15.49-39.748-10.519-11.428-24.56-17.821-39.106-18.841z" fill="#70dcba"/><path d="m37.373 153.236c0-21.586 8.669-42.897 25.488-58.589-1.376-.096-2.754-.14-4.133-.14-32.421 0-58.728 26.264-58.728 58.729 0 32.422 26.263 58.729 58.729 58.729 1.378 0 2.757-.044 4.133-.14-16.326-15.231-25.489-36.324-25.489-58.589z" fill="#30cd9c"/></g><g><path d="m62.861 94.647-62.861 58.589 62.861 58.589c13.624-.955 26.979-6.641 37.395-17.058 11.468-11.468 17.201-26.5 17.201-41.531 0-14.264-5.163-28.528-15.49-39.748-10.519-11.428-24.56-17.821-39.106-18.841z" fill="#70dcba"/><path d="m37.373 153.236c0-21.586 8.669-42.897 25.488-58.589-1.376-.096-2.754-.14-4.133-.14-32.421 0-58.728 26.264-58.728 58.729 0 32.422 26.263 58.729 58.729 58.729 1.378 0 2.757-.044 4.133-.14-16.326-15.231-25.489-36.324-25.489-58.589z" fill="#30cd9c"/></g><g><path d="m48.729 178.736c12.406 0 22.5-10.094 22.5-22.5v-6c0-12.406-10.094-22.5-22.5-22.5s-22.5 10.094-22.5 22.5v6c0 12.406 10.094 22.5 22.5 22.5z" fill="#efedff"/><path d="m48.728 142.735c4.143 0 7.5 3.358 7.5 7.5v6c0 4.142-3.357 7.5-7.5 7.5s-7.5-3.358-7.5-7.5v-6c0-4.142 3.358-7.5 7.5-7.5z" fill="#313d40"/></g><g><path d="m110.467 113.488h-8.5c-14.39 0-25.625 13.509-21.715 28.536 2.543 9.776 11.579 16.464 21.68 16.464h31.035v-22.5c0-8.706-4.945-16.257-12.179-19.998-3.091-1.599-6.601-2.502-10.321-2.502z" fill="#ffb357"/><path d="m101.967 183.488c-12.427 0-22.5 10.074-22.5 22.5 0 12.427 10.073 22.5 22.5 22.5h31v-45s-24.775 0-31 0z" fill="#ffb357"/><path d="m101.967 148.488c-12.427 0-22.5 10.074-22.5 22.5 0 12.427 10.073 22.5 22.5 22.5h31v-45s-24.775 0-31 0z" fill="#ffce71"/><path d="m101.967 253.488c-12.427 0-22.5 10.074-22.5 22.5 0 12.427 10.073 22.5 22.5 22.5h31v-45s-24.775 0-31 0z" fill="#ffb357"/><g fill="#ffce71"><path d="m101.967 218.488c-12.427 0-22.5 10.074-22.5 22.5 0 12.427 10.073 22.5 22.5 22.5h31v-45s-24.775 0-31 0z"/><path d="m101.967 288.488c-12.427 0-22.5 10.074-22.5 22.5 0 12.427 10.073 22.5 22.5 22.5h31v-45s-24.775 0-31 0z"/></g></g><g><path d="m65 208.158c13.807 0 25 13.432 25 30s-11.193 30-25 30h-43v-60z" fill="#efedff"/><g fill="#d4d4ff"><path d="m15 253.158 7.5 5 7.5-5v-30l-7.5-5-7.5 5z"/><path d="m45 253.158 7.5 5 7.5-5v-30l-7.5-5-7.5 5z"/></g><path d="m15 283.158h44.202c25.181 0 46.223-20.606 45.791-45.783-.419-24.454-20.441-44.217-44.993-44.217h-45c-8.284 0-15 6.716-15 15 0 8.284 6.716 15 15 15h44.565c8.068 0 15.019 6.187 15.416 14.245.424 8.613-6.46 15.755-14.981 15.755h-45c-8.284 0-15 6.716-15 15 0 8.285 6.716 15 15 15z" fill="#ea5b70"/></g><g><path d="m442.403 94.647-62.861 58.589 62.861 58.589c13.624-.955 26.979-6.641 37.395-17.058 11.468-11.468 17.201-26.5 17.201-41.531 0-14.264-5.163-28.528-15.49-39.748-10.519-11.428-24.56-17.821-39.106-18.841z" fill="#70dcba"/><path d="m416.915 153.236c0-21.586 8.669-42.897 25.488-58.589-1.376-.096-2.754-.14-4.133-.14-32.422 0-58.729 26.264-58.729 58.729 0 32.422 26.263 58.729 58.729 58.729 1.378 0 2.757-.044 4.133-.14-16.325-15.231-25.488-36.324-25.488-58.589z" fill="#30cd9c"/></g><g><path d="m448.271 178.736c-12.406 0-22.5-10.094-22.5-22.5v-6c0-12.406 10.094-22.5 22.5-22.5s22.5 10.094 22.5 22.5v6c0 12.406-10.094 22.5-22.5 22.5z" fill="#efedff"/><path d="m448.272 142.735c-4.143 0-7.5 3.358-7.5 7.5v6c0 4.142 3.357 7.5 7.5 7.5s7.5-3.358 7.5-7.5v-6c0-4.142-3.358-7.5-7.5-7.5z" fill="#313d40"/></g><g><path d="m386.533 113.487h8.5c14.39 0 25.625 13.509 21.715 28.536-2.543 9.776-11.579 16.464-21.68 16.464h-31.035v-22.5c0-8.706 4.945-16.257 12.179-19.998 3.092-1.599 6.601-2.502 10.321-2.502z" fill="#ffce71"/><path d="m395.033 183.487c12.427 0 22.5 10.074 22.5 22.5 0 12.427-10.073 22.5-22.5 22.5h-31v-45z" fill="#ffce71"/><path d="m395.033 148.487c12.427 0 22.5 10.074 22.5 22.5 0 12.427-10.073 22.5-22.5 22.5h-31v-45z" fill="#fce3a0"/><path d="m395.033 253.487c12.427 0 22.5 10.074 22.5 22.5 0 12.427-10.073 22.5-22.5 22.5h-31v-45z" fill="#ffce71"/><g fill="#fce3a0"><path d="m395.033 218.487c12.427 0 22.5 10.074 22.5 22.5 0 12.427-10.073 22.5-22.5 22.5h-31v-45z"/><path d="m395.033 288.487c12.427 0 22.5 10.074 22.5 22.5 0 12.427-10.073 22.5-22.5 22.5h-31v-45z"/></g></g><g><path d="m283.5 379.019h-67.493v117.927h114.987v-59.242c-.001-28.847-20.362-52.93-47.494-58.685z" fill="#ffce71"/><path d="m283.5 379.019c-4.035-.855-8.217-1.314-12.507-1.314h-44.987c-33.137 0-60 26.863-60 60v59.242h70v-59.242c.001-28.848 20.362-52.931 47.494-58.686z" fill="#ffb357"/></g><path d="m206.007 497v-59.296c0-11.028 8.972-20 20-20h44.986c11.028 0 20 8.972 20 20v59.296z" fill="#4c5699"/><g><path d="m432 208.158c-13.807 0-25 13.432-25 30s11.193 30 25 30h43v-60z" fill="#efedff"/><g fill="#d4d4ff"><path d="m482 253.158-7.5 5-7.5-5v-30l7.5-5 7.5 5z"/><path d="m452 253.158-7.5 5-7.5-5v-30l7.5-5 7.5 5z"/></g><path d="m482 283.158h-44.202c-25.181 0-46.223-20.606-45.791-45.783.419-24.454 20.441-44.217 44.993-44.217h45c8.284 0 15 6.716 15 15 0 8.284-6.716 15-15 15h-44.565c-8.068 0-15.019 6.187-15.416 14.245-.424 8.613 6.46 15.755 14.981 15.755h45c8.284 0 15 6.716 15 15 0 8.285-6.716 15-15 15z" fill="#ea5b70"/></g><g><path d="m254.243 216.225-87.364 81.426 87.364 81.426c18.935-1.328 37.495-9.23 51.971-23.707 15.937-15.939 23.906-36.829 23.906-57.719 0-19.824-7.176-39.648-21.528-55.241-14.619-15.883-34.133-24.768-54.349-26.185z" fill="#70dcba"/><path d="m218.82 297.65c0-30 12.047-59.617 35.423-81.426-1.912-.134-3.828-.195-5.743-.195-45.06 0-81.621 36.502-81.621 81.621 0 45.06 36.5 81.621 81.621 81.621 1.916 0 3.831-.061 5.743-.195-22.688-21.168-35.423-50.481-35.423-81.426z" fill="#30cd9c"/></g><g><g><path d="m291 318.488c-10.502 0-74.354 0-85 0-13.807 0-25 13.432-25 30s11.193 30 25 30h85c13.807 0 25-13.432 25-30s-11.193-30-25-30z" fill="#efedff"/></g><g fill="#d4d4ff"><path d="m211 333.488v30l7.5 5 7.5-5v-30l-7.5-5z"/><path d="m241 333.488v30l7.5 5 7.5-5v-30l-7.5-5z"/><path d="m278.5 328.488-7.5 5v30l7.5 5 7.5-5v-30z"/></g><g><path d="m211.435 333.488h44.565v-30h-45c-24.552 0-44.574 19.763-44.993 44.217-.432 25.177 20.61 45.783 45.791 45.783h44.202v-30h-45c-8.522 0-15.406-7.142-14.981-15.755.396-8.058 7.348-14.245 15.416-14.245z" fill="#ea5b70"/><path d="m255 303.488h30.202c25.181 0 46.223 20.606 45.791 45.783-.419 24.454-20.441 44.217-44.993 44.217h-31c-8.284 0-15-6.716-15-15 0-8.284 6.716-15 15-15h30.565c8.068 0 15.019-6.187 15.416-14.245.424-8.613-6.46-15.755-14.981-15.755h-31c-8.284 0-15-6.716-15-15 0-8.285 6.716-15 15-15z" fill="#ff8e9e"/></g></g><g><g><path d="m105.5 403.5c-4.142 0-7.5 3.358-7.5 7.5v18.5h15v-18.5c0-4.142-3.358-7.5-7.5-7.5z" fill="#fc8a3d"/><ellipse cx="105.5" cy="437" fill="#ffb357" rx="20" ry="15"/><g><path d="m126.713 458.589c-5.321-3.991-12.143-6.169-19.102-6.535l-32.111 22.446 32.111 22.446c6.96-.366 13.782-2.544 19.102-6.535 5.858-4.394 8.787-10.152 8.787-15.911s-2.929-11.517-8.787-15.911z" fill="#ffce71"/><path d="m94.591 474.5c0-8.27 4.428-16.434 13.02-22.446-.703-.037-1.407-.054-2.111-.054-16.562 0-30 10.062-30 22.5 0 12.422 13.416 22.5 30 22.5.704 0 1.408-.017 2.111-.054-8.339-5.835-13.02-13.916-13.02-22.446z" fill="#ffb357"/></g></g><g><path d="m391.5 403.5c-4.142 0-7.5 3.358-7.5 7.5v18.5h15v-18.5c0-4.142-3.358-7.5-7.5-7.5z" fill="#ffb357"/><ellipse cx="391.5" cy="437" fill="#ffce71" rx="20" ry="15"/><g><path d="m412.713 458.589c-5.321-3.991-12.143-6.169-19.102-6.535l-32.111 22.446 32.111 22.446c6.96-.366 13.782-2.544 19.102-6.535 5.858-4.394 8.787-10.152 8.787-15.911s-2.929-11.517-8.787-15.911z" fill="#fce3a0"/><path d="m380.591 474.5c0-8.27 4.428-16.434 13.02-22.446-.703-.037-1.407-.054-2.111-.054-16.562 0-30 10.062-30 22.5 0 12.422 13.416 22.5 30 22.5.704 0 1.408-.017 2.111-.054-8.339-5.835-13.02-13.916-13.02-22.446z" fill="#ffce71"/></g></g></g><g><g><path d="m213.5 295.464c12.406 0 22.5-10.094 22.5-22.5v-6c0-12.406-10.094-22.5-22.5-22.5s-22.5 10.094-22.5 22.5v6c0 12.407 10.094 22.5 22.5 22.5z" fill="#efedff"/><path d="m213.5 259.464c4.143 0 7.5 3.358 7.5 7.5v6c0 4.142-3.357 7.5-7.5 7.5s-7.5-3.358-7.5-7.5v-6c0-4.142 3.357-7.5 7.5-7.5z" fill="#313d40"/></g><g><path d="m283.5 295.464c12.406 0 22.5-10.094 22.5-22.5v-6c0-12.406-10.094-22.5-22.5-22.5s-22.5 10.094-22.5 22.5v6c0 12.407 10.094 22.5 22.5 22.5z" fill="#efedff"/><path d="m283.5 259.464c4.143 0 7.5 3.358 7.5 7.5v6c0 4.142-3.357 7.5-7.5 7.5s-7.5-3.358-7.5-7.5v-6c0-4.142 3.357-7.5 7.5-7.5z" fill="#313d40"/></g></g><g><path d="m31 347h-8.5c-14.39 0-25.625 13.509-21.715 28.536 2.543 9.776 11.579 16.464 21.68 16.464h31.035v-22.5c0-8.706-4.945-16.257-12.179-19.998-3.091-1.599-6.601-2.502-10.321-2.502z" fill="#ffb357"/><path d="m22.5 417c-12.427 0-22.5 10.074-22.5 22.5 0 12.427 10.073 22.5 22.5 22.5h31v-45s-24.775 0-31 0z" fill="#ffb357"/><g fill="#ffce71"><path d="m22.5 382c-12.427 0-22.5 10.074-22.5 22.5 0 12.427 10.073 22.5 22.5 22.5h31v-45s-24.775 0-31 0z"/><path d="m22.5 452c-12.427 0-22.5 10.074-22.5 22.5 0 12.427 10.073 22.5 22.5 22.5h31v-45s-24.775 0-31 0z"/></g></g><g><path d="m466 347h8.5c14.39 0 25.625 13.509 21.715 28.536-2.543 9.776-11.579 16.464-21.68 16.464h-31.035v-22.5c0-8.706 4.945-16.257 12.179-19.998 3.091-1.599 6.601-2.502 10.321-2.502z" fill="#ffce71"/><path d="m474.5 417c12.427 0 22.5 10.074 22.5 22.5 0 12.427-10.073 22.5-22.5 22.5h-31v-45z" fill="#ffce71"/><g fill="#fce3a0"><path d="m474.5 382c12.427 0 22.5 10.074 22.5 22.5 0 12.427-10.073 22.5-22.5 22.5h-31v-45z"/><path d="m474.5 452c12.427 0 22.5 10.074 22.5 22.5 0 12.427-10.073 22.5-22.5 22.5h-31v-45z"/></g></g></g></svg>