<svg id="Capa_1" enable-background="new 0 0 504.5 504.5" height="512" viewBox="0 0 504.5 504.5" width="512" xmlns="http://www.w3.org/2000/svg"><g><g><path d="m52.25 234.5h60v64.59h-60z" fill="#e8b5b1"/><path d="m392.25 234.5h60v64.59h-60z" fill="#f2d4d3"/></g><g><path d="m347.25 136.492-15-60h-81l-34.255 34.861v86.317l35.255 36.83c28.375 4.763 50 29.427 50 59.155v79.837h90v-74.402c0-17.836 12.975-32.635 30-35.493 17.025 2.858 30 17.656 30 35.493v102.402h29.5v-273z" fill="#e8b5b1"/><path d="m236.995 111.354c0-13.24 5.53-25.877 15.255-34.861h-80l-15 60-134.5-8v273h29.5v-102.403c0-17.836 12.975-32.635 30-35.493 17.025 2.858 30 17.656 30 35.493v74.402h90v-79.837c0-29.728 21.625-54.392 50-59.155-9.768-9.768-15.255-23.016-15.255-36.83z" fill="#d6948c"/></g><g fill="#e8b5b1"><path d="m18.75 204.5c-8.284 0-15 6.716-15 15s6.716 15 15 15h123.5l15-15-15-15z"/><path d="m18.75 151.492h123.5l15-15-15-15h-123.5c-8.284 0-15 6.716-15 15s6.716 15 15 15z"/></g><g fill="#f2d4d3"><path d="m485.75 151.492h-123.5l-10-16.746 10-13.254h123.5c8.284 0 15 6.716 15 15 0 8.284-6.716 15-15 15z"/><path d="m485.75 234.5h-123.5l-10-15.004 10-14.996h123.5c8.284 0 15 6.716 15 15 0 8.284-6.716 15-15 15z"/></g><g><path d="m172.25 52.5-15-10-15 10v122h30z" fill="#f2d4d3"/><path d="m362.25 52.5-15-10-15 10v122h30z" fill="#d6948c"/></g><g fill="#f2d4d3"><path d="m157.25 0c-4.143 0-7.5 3.357-7.5 7.5v20h15v-20c0-4.143-3.357-7.5-7.5-7.5z"/><path d="m347.25 0c-4.143 0-7.5 3.357-7.5 7.5v20h15v-20c0-4.143-3.357-7.5-7.5-7.5z"/></g><g fill="#e8b5b1"><path d="m157.25 17.5c-8.284 0-15 6.716-15 15v20h30v-20c0-8.284-6.716-15-15-15z"/><path d="m347.25 17.5c-8.284 0-15 6.716-15 15v20h30v-20c0-8.284-6.716-15-15-15z"/></g><g><path d="m172.25 204.5-15-10-15 10v138.992l15 10 15-10z" fill="#f2d4d3"/><path d="m362.25 204.5-15-10-15 10v138.992l15 10 15-10z" fill="#d6948c"/></g><g><path d="m178.75 324.207h-11.21l-22.29 22.29v54.996h57v-48c0-14.336-10.058-26.316-23.5-29.286z" fill="#f2d4d3"/><path d="m178.75 324.207c-2.094-.463-4.267-.714-6.5-.714h-30c-16.569 0-30 13.432-30 30v48h43v-48c0-14.336 10.058-26.316 23.5-29.286z" fill="#e8b5b1"/></g><g><path d="m368.75 324.207h-11.21l-22.29 22.29v54.996h57v-48c0-14.336-10.058-26.316-23.5-29.286z" fill="#f2d4d3"/><path d="m368.75 324.207c-2.094-.463-4.267-.714-6.5-.714h-30c-16.569 0-30 13.432-30 30v48h43v-48c0-14.336 10.058-26.316 23.5-29.286z" fill="#e8b5b1"/></g><g><path d="m362.25 174.5h-145l-15 15 15 15h145c8.284 0 15-6.716 15-15s-6.716-15-15-15z" fill="#f2d4d3"/><path d="m222.25 189.5c0-8.284 6.716-15 15-15h-95c-8.284 0-15 6.716-15 15s6.716 15 15 15h95c-8.284 0-15-6.716-15-15z" fill="#e8b5b1"/></g><g fill="#313d40"><path d="m202.802 115.246c-4.143 0-7.5 3.357-7.5 7.5v12c0 4.143 3.357 7.5 7.5 7.5s7.5-3.357 7.5-7.5v-12c0-4.142-3.358-7.5-7.5-7.5z"/><path d="m301.698 115.246c-4.143 0-7.5 3.357-7.5 7.5v12c0 4.143 3.357 7.5 7.5 7.5s7.5-3.357 7.5-7.5v-12c0-4.142-3.357-7.5-7.5-7.5z"/><path d="m273.641 124.734c-3.123-2.722-7.86-2.397-10.581.728-5.725 6.569-15.899 6.564-21.619 0-2.721-3.124-7.459-3.448-10.581-.728-3.123 2.721-3.449 7.459-.728 10.581 11.702 13.431 32.545 13.419 44.236 0 2.722-3.122 2.396-7.86-.727-10.581z"/></g><g><path d="m483.75 368.768h-281.755l-20 30 20 36h298.755v-49c0-9.389-7.611-17-17-17z" fill="#e8b5b1"/><path d="m20.75 368.768c-9.389 0-17 7.611-17 17v49h198.245c0-17.677 0-50.51 0-66z" fill="#d6948c"/></g><g><path d="m231.995 504.5h208.755c33.137 0 60-26.863 60-60 0-.342 0-.451 0-.442v-7.558-1.732c-14.824-.125-29.61-5.883-40.853-17.294-21.427-21.857-56.121-23.165-79.147-3.402-6.579 5.648-22.945 26.557-58.576 18.439-10.96-1.567-21.012-6.641-29.342-15.121-22.8-23.209-60.027-22.892-82.895.25-2.474 2.503-5.136 4.736-7.943 6.705l-8.712 13.987v52z" fill="#7ce3ff"/><path d="m201.995 446.201c0-2.677 0-9.483 0-21.854-13.932 9.776-31.488 12.904-47.955 8.589.015-.015.029-.03.043-.045-9.773-2.544-19.104-7.698-26.731-15.479-22.672-23.011-59.915-23.115-82.689 0l-.061.062c-11.242 11.411-26.028 17.169-40.852 17.294v1.732 8c0 33.137 26.863 60 60 60h168.245c-18.827-13.449-30-35.162-30-58.299z" fill="#2ed0fc"/></g></g></svg>