<svg id="Capa_1" enable-background="new 0 0 497 497" height="512" viewBox="0 0 497 497" width="512" xmlns="http://www.w3.org/2000/svg"><g><g><path d="m487.152 119.306-10-10h-89.879v89.879l10.244 9.756c13.13 13.13 34.418 13.13 47.549 0l42.085-42.086c13.131-13.13 13.131-34.419.001-47.549z" fill="#ffce71"/><path d="m421.177 53.33c-27.743-27.744-65.371-43.33-104.607-43.33h-13.475c-8.808 0-16.888 5.103-20.464 13.152-13.045 29.358-37.85 52.328-68.434 62.941v94.201h153.24l19.836 18.89 89.879-89.879z" fill="#ffb5c0"/></g><g><path d="m9.848 119.306c-13.13 13.13-13.13 34.419 0 47.549l42.086 42.086c13.13 13.13 34.419 13.13 47.549 0l7.34-7.538v-89.535h-89.536z" fill="#ffb357"/><path d="m87.741 41.412-70.455 70.455 89.536 89.535 20.554-21.107h53.054v-170.295c-39.236 0-64.945 3.668-92.689 31.412z" fill="#ff8e9e"/></g><g><path d="m248.5 348.356h-37.809v128.169l73.192 19.224c23.688-1.668 46.921-4.988 69.578-9.861 18.389-3.955 31.482-20.279 31.482-39.089v-41.281z" fill="#70dcba"/><path d="m230.691 405.834v-48.007l-127.291 67.69v19.337c0 18.598 12.824 34.71 30.929 38.966 31.095 7.311 63.32 11.688 96.362 12.854 5.912.208 11.846.326 17.809.326 11.898 0 23.695-.428 35.384-1.251-32.807-18.024-53.193-52.484-53.193-89.915z" fill="#30cd9c"/></g><g><path d="m240.691 72.896c-18.856-14.707-33.078-35.081-40.106-58.562-2.541-8.49-10.312-14.334-19.174-14.334h-48.01c-11.046 0-20 8.954-20 20v83.942c0 28.797 1.42 57.25 13.975 81.353 4.324 8.3 10.333 16.644 17.562 23.546-.149.113-.297-.113-.446 0-26.017 19.932-41.092 46.987-41.092 79.762v136.915c43.738 0 86.707-7.303 127.291-21.21v-15.95l39.451-.001c36.867 11.271 75.524 17.161 114.801 17.161v-98.934z" fill="#ffb357"/><path d="m352.409 208.841c-.116-.089-.231.088-.347 0 6.917-6.604 11.999-13.782 15.375-23.546 8.56-24.751 7.506-58.745 7.506-87.77h-62.533c-27.039 0-51.931-9.195-71.719-24.63v31.047c0 28.797 1.419 57.25 13.975 81.353 4.324 8.3 10.333 16.644 17.562 23.546-.148.113-.297-.113-.446 0-26.017 19.932-41.091 46.987-41.091 79.762v115.705c13.431-4.602 26.601-9.926 39.451-15.951 42.473-19.915 81.447-47.471 114.801-81.772v-17.981c0-25.956-11.926-63.987-32.534-79.763z" fill="#ffce71"/></g><g fill="#ff8e9e"><path d="m168.943 134.983c-16.212 0-29.355 10.466-29.355 23.376 0 12.911 13.142 23.377 29.355 23.377 16.212 0 29.355-10.466 29.355-23.377 0-12.91-13.143-23.376-29.355-23.376z"/><path d="m328.057 134.983c-16.212 0-29.355 10.466-29.355 23.376 0 12.911 13.143 23.377 29.355 23.377s29.355-10.466 29.355-23.377c-.001-12.91-13.143-23.376-29.355-23.376z"/></g><g fill="#313d40"><path d="m186.051 116.356c-4.143 0-7.5 3.357-7.5 7.5v12c0 4.143 3.357 7.5 7.5 7.5s7.5-3.357 7.5-7.5v-12c0-4.142-3.358-7.5-7.5-7.5z"/><path d="m310.948 116.356c-4.143 0-7.5 3.357-7.5 7.5v12c0 4.143 3.357 7.5 7.5 7.5s7.5-3.357 7.5-7.5v-12c0-4.142-3.357-7.5-7.5-7.5z"/><path d="m269.891 129.845c-3.122-2.722-7.861-2.397-10.581.728-5.726 6.569-15.898 6.563-21.619 0-2.721-3.124-7.459-3.448-10.581-.728-3.123 2.721-3.449 7.459-.728 10.581 11.702 13.431 32.545 13.419 44.236 0 2.722-3.122 2.396-7.861-.727-10.581z"/></g></g></svg>