<svg id="Capa_1" enable-background="new 0 0 497 497" height="512" viewBox="0 0 497 497" width="512" xmlns="http://www.w3.org/2000/svg"><g><g><path d="m437.201 155.194-65.383 13.044-72.7 72.701 111.837-9.292 49.868-4.143c19.938-1.657 35.308-18.97 35.527-38.975.021-30.229-33.469-49.281-59.149-33.335z" fill="#fce3a0"/><path d="m384.862 102.854c15.946-25.68-3.107-59.17-33.335-59.149-20.005.219-37.318 15.59-38.975 35.527l-2.786 33.53c2.647-31.907-36.214-49.611-58.975-27.092-10.23 10.261-13.103 26.278-6.873 39.36l55.199 115.908 73.117-73.117z" fill="#ffb357"/><path d="m454.16 85.896c-18.424-18.295-49.489-14.942-63.186 7.116l-91.856 147.926 147.926-91.856c22.058-13.697 25.411-44.762 7.116-63.186z" fill="#ffce71"/></g><g><path d="m61.388 256.498-.025 174.543c61.292 14.792 124.008 22.279 187.137 22.253 62.301-.025 125.003-7.366 187.137-22.253l.212-174.543z" fill="#ff6f4d"/><path d="m495.225 319.584c-4.844-30.699-36.968-68.432-84.27-87.937l-162.341.005v60.552c76.85 35.585 133.737 71.669 187.022 138.838 22.895-11.587 43.087-28.491 53.566-52.806 7.194-16.69 9.911-36.284 6.023-58.652z" fill="#fad5cb"/><path d="m373.076 177.15c-35.939-13.182-82.489-22.565-124.488-22.563l-140.699 41.879v138.709l22.736 26.754c37.593-29.077 80.377-54.029 128.752-74.366 48.995-21.144 103.857-37.489 151.578-55.916 0-24.307-15.059-46.127-37.879-54.497z" fill="#ffb39d"/><path d="m248.588 154.587c-50.066-.13-99.183 12.137-137.029 32.498-74.322 38.879-108.212 99.279-111.262 146.1-1.269 16.876 1.592 31.904 7.34 45.075 10.65 24.405 31.182 41.187 53.726 52.781 21.759-28.285 41.948-47.376 66.526-66.982.905-.71 1.828-1.404 2.739-2.109-8.099-81.502 36.175-161.815 117.96-207.363z" fill="#ff8f71"/></g><g><g><g><ellipse cx="168.943" cy="384.922" fill="#ffdbe0" rx="29.355" ry="23.377"/></g><g><ellipse cx="328.056" cy="384.922" fill="#ffdbe0" rx="29.355" ry="23.377"/></g></g></g><g fill="#313d40"><path d="m186.051 353.918c-4.142 0-7.5 3.357-7.5 7.5v12c0 4.143 3.358 7.5 7.5 7.5s7.5-3.357 7.5-7.5v-12c0-4.142-3.358-7.5-7.5-7.5z"/><path d="m310.949 353.918c-4.142 0-7.5 3.357-7.5 7.5v12c0 4.143 3.358 7.5 7.5 7.5s7.5-3.357 7.5-7.5v-12c0-4.142-3.358-7.5-7.5-7.5z"/><path d="m269.892 367.407c-3.123-2.721-7.861-2.396-10.582.727-5.725 6.569-15.901 6.564-21.62 0-2.722-3.122-7.459-3.447-10.582-.727-3.123 2.722-3.448 7.459-.727 10.582 11.703 13.429 32.545 13.416 44.237 0 2.722-3.123 2.397-7.86-.726-10.582z"/></g></g></svg>