<svg id="Capa_1" enable-background="new 0 0 497 497" height="512" viewBox="0 0 497 497" width="512" xmlns="http://www.w3.org/2000/svg"><g><path d="m37.828 308.31v86.261l.035.173c116.296 116.266 304.824 116.352 421.228.193v-86.627z" fill="#fc8a3d"/><g><g><path d="m410.503 74.696c-13.707-11.782-28.384-21.822-43.736-30.137l-118.285 144.367v129.926c58.84 48.888 133.255 76.085 210.608 76.085 65.208-104.079 44.559-240.175-48.587-320.241z" fill="#ffce71"/><g><path d="m366.099 44.851c-36.749-19.903-77.402-29.853-118.055-29.851l-179.037 83.881v249.204l38.937 38.926c51.353-11.207 99.442-34.603 140.086-68.368 10.392-8.632 20.306-17.929 29.653-27.888 14.134-15.057 26.69-31.301 37.616-48.463 37.141-58.337 55.255-127.393 50.8-197.441z" fill="#ffb357"/><g><path d="m248.044 15c-40.656.002-81.313 9.958-118.063 29.866-15.311 8.294-29.952 18.303-43.624 30.053-92.984 79.911-113.608 215.756-48.528 319.652 23.772 0 47.267-2.573 70.115-7.56-50.743-141.572 8.564-299.05 140.1-372.011z" fill="#fc8a3d"/></g></g></g></g><g><g><g><ellipse cx="168.943" cy="424.063" fill="#ffdbe0" rx="29.355" ry="23.377"/></g><g><ellipse cx="328.057" cy="424.063" fill="#ffdbe0" rx="29.355" ry="23.377"/></g></g></g><g fill="#313d40"><path d="m186.051 389.06c-4.143 0-7.5 3.358-7.5 7.5v12c0 4.142 3.357 7.5 7.5 7.5s7.5-3.358 7.5-7.5v-12c0-4.142-3.358-7.5-7.5-7.5z"/><path d="m310.948 389.06c-4.143 0-7.5 3.358-7.5 7.5v12c0 4.142 3.357 7.5 7.5 7.5s7.5-3.358 7.5-7.5v-12c0-4.142-3.357-7.5-7.5-7.5z"/><path d="m269.891 402.548c-3.123-2.721-7.86-2.396-10.581.727-2.729 3.132-6.669 4.928-10.81 4.928s-8.08-1.796-10.81-4.928c-2.721-3.123-7.459-3.448-10.581-.727-3.123 2.721-3.449 7.458-.728 10.582 5.578 6.402 13.641 10.074 22.118 10.074s16.54-3.672 22.118-10.074c2.723-3.123 2.397-7.86-.726-10.582z"/></g><g><path d="m288.74 190.214 16.202-12.238c2.249-1.699 3.414-4.043 3.24-6.441-3.942-54.25-29.168-111.535-59.701-111.535l-27.802 111.563 27.802 98.437c30.648 0 55.946-22.079 59.742-70.894.375-4.822-4.711-8.892-11.107-8.892z" fill="#efedff"/><path d="m214.58 98.077 10.773 8.137h-13.266c-5 0-9.384 2.518-10.722 6.157-8.212 22.328-13.122 48.89-13.122 73.629 0 57.99 26.97 84 60.239 84v-210c-13.611 0-26.165 11.387-36.251 28.81-1.826 3.153-.872 6.834 2.349 9.267z" fill="#d4d4ff"/></g><g><g><path d="m275.93 236.669-41.666 10.997v84.678l41.666 10.997c19.322-9.978 32.57-30.133 32.57-53.336 0-23.204-13.248-43.358-32.57-53.336z" fill="#ff8e9e"/></g><path d="m256.515 327.433c-8.222-10.27-13.156-23.28-13.156-37.428s4.934-27.16 13.157-37.429c5.262-6.572 11.874-12.013 19.414-15.906-8.228-4.249-17.549-6.664-27.43-6.664-33.084 0-60 26.916-60 60s26.916 60 60 60c9.881 0 19.202-2.416 27.43-6.664-7.541-3.895-14.152-9.336-19.415-15.909z" fill="#ea5b70"/></g></g></svg>