<svg id="Capa_1" enable-background="new 0 0 497 497" height="512" viewBox="0 0 497 497" width="512" xmlns="http://www.w3.org/2000/svg"><g><g fill="#676fb2"><path d="m215 175c-5.858 5.858-5.858 15.355 0 21.213l42.894 42.894 21.213-21.213-42.894-42.894c-5.858-5.858-15.355-5.858-21.213 0z"/><path d="m255 135c-5.858 5.858-5.858 15.355 0 21.213l42.894 42.894 21.213-21.213-42.894-42.894c-5.858-5.858-15.355-5.858-21.213 0z"/><path d="m295 95c-5.858 5.858-5.858 15.355 0 21.213l42.894 42.894 21.213-21.213-42.894-42.894c-5.858-5.858-15.355-5.858-21.213 0z"/><path d="m356.213 55c-5.858-5.858-15.355-5.858-21.213 0s-5.858 15.355 0 21.213l42.894 42.894 21.213-21.213z"/></g><g><path d="m492.247 45.494-40.741-40.741c-3.044-3.043-7.171-4.753-11.475-4.753s-8.431 1.71-11.475 4.753l-207.473 207.474c-11.594 11.594-28.134 16.786-44.263 13.84h-60v227.895h134.03c30.5-30.5 28.579-87.272 20.084-133.781-2.946-16.13 2.246-32.669 13.839-44.263l207.474-207.475c3.044-3.043 4.753-7.17 4.753-11.474s-1.709-8.432-4.753-11.475z" fill="#ffb357"/><path d="m144.013 362.695c-15.621-48.089-2.946-100.876 32.807-136.629-46.508-8.495-103.281-10.416-133.781 20.083-57.385 57.385-57.385 150.426 0 207.811s150.426 57.385 207.811 0c-49.939-7.915-91.215-43.176-106.837-91.265z" fill="#fc8a3d"/></g><g><path d="m173.519 387.227 11.247-11.247c5.858-5.858 5.858-15.355 0-21.213l-42.477-42.477c-5.858-5.858-15.355-5.858-21.213 0l-11.247 11.247c-5.858 5.858-5.858 15.355 0 21.213l42.477 42.477c5.857 5.858 15.355 5.858 21.213 0z" fill="#d4d4ff"/><g fill="#efedff"><path d="m433.61 74.068-387.742 387.743c-2.929 2.929-2.929 7.678 0 10.606 1.465 1.464 3.385 2.197 5.304 2.197s3.839-.732 5.304-2.197l387.741-387.742z"/><path d="m412.38 52.838-387.742 387.743c-2.929 2.929-2.929 7.678 0 10.606 1.465 1.464 3.385 2.197 5.304 2.197s3.839-.732 5.304-2.197l387.741-387.743z"/></g></g><g><g><g><g><ellipse cx="100.31" cy="274.884" fill="#ffdbe0" rx="21.525" ry="27.03" transform="matrix(.707 -.707 .707 .707 -164.993 151.442)"/></g><g><ellipse cx="223.91" cy="398.484" fill="#ffdbe0" rx="21.525" ry="27.03" transform="matrix(.707 -.707 .707 .707 -216.189 275.04)"/></g></g></g></g><g><path d="m492.607 111.393-58.557-58.555h-21.195v21.23l58.539 58.538c2.928 2.929 6.767 4.394 10.606 4.394s7.678-1.465 10.606-4.394c5.859-5.857 5.859-15.355.001-21.213z" fill="#8288cb"/><path d="m385.607 4.393c-5.857-5.857-15.355-5.857-21.213 0s-5.858 15.355 0 21.213l48.461 48.462c0-11.712 9.484-21.211 21.195-21.23z" fill="#676fb2"/></g><g fill="#313d40"><path d="m234.469 392.879c3.907 0 7.203-3.029 7.475-6.987 1.083-15.771-12.018-28.807-27.72-27.719-4.133.284-7.252 3.864-6.969 7.996.284 4.132 3.871 7.256 7.996 6.969 6.665-.457 12.186 5.055 11.728 11.727-.297 4.322 3.125 8.014 7.49 8.014z"/><path d="m133.147 291.557c3.907 0 7.203-3.029 7.475-6.987.516-7.507-2.236-14.859-7.548-20.171s-12.665-8.066-20.172-7.548c-4.133.284-7.252 3.864-6.969 7.996s3.882 7.243 7.996 6.969c3.18-.22 6.293.944 8.537 3.189 2.246 2.246 3.409 5.357 3.19 8.538-.296 4.323 3.125 8.014 7.491 8.014z"/></g></g></svg>