<svg id="Capa_1" enable-background="new 0 0 497 497" height="512" viewBox="0 0 497 497" width="512" xmlns="http://www.w3.org/2000/svg"><g><path d="m488.213 8.787c-11.715-11.716-30.711-11.716-42.426 0l-36.099 36.099-36.194 36.194 42.426 42.427 36.195-36.195 36.098-36.098c11.716-11.716 11.716-30.711 0-42.427z" fill="#ce857a"/><g><path d="m452.115 87.312c-11.151-16.825-25.601-31.275-42.426-42.426h-42.427l-289.948 289.948.03 84.823s-.001.001-.001.001l-.049.049c-16.987 16.987-18.22 44.485-2.152 62.343 17.388 19.324 47.173 19.914 65.318 1.77l148.3-148.3c10.074-10.074 23.85-15.541 38.097-15.52 82.842 0 150.143-67.156 150.144-149.998 0-30.547-9.168-58.973-24.886-82.69z" fill="#d6948c"/><path d="m286.017 157.677c17.312-57.5 64.825-100.833 123.671-112.792-23.716-15.718-52.142-24.885-82.69-24.885-82.842.001-149.998 67.158-149.998 150v.216c.021 14.247-5.447 27.951-15.521 38.025l-148.3 148.3c-17.754 17.755-17.572 46.654.549 64.179 17.738 17.155 46.164 16.386 63.613-1.062l.001-.001 143.591-143.591c22.423 22.424 51.917 37.769 84.846 42.433 6.933.982 13.871 1.501 21.076 1.501-42.46-42.461-58.15-104.823-40.838-162.323z" fill="#ce857a"/></g><g fill="#ac6757"><circle cx="149.85" cy="283.511" r="15"/><path d="m118.03 315.331c-5.858-5.858-15.355-5.858-21.213 0s-5.858 15.355 0 21.213 15.355 5.858 21.213 0 5.858-15.355 0-21.213z"/><path d="m54.39 357.757c-5.858 5.858-5.858 15.355 0 21.213s15.355 5.858 21.213 0 5.858-15.355 0-21.213c-5.857-5.858-15.355-5.858-21.213 0z"/><path d="m118.03 421.397c-5.858 5.858-5.858 15.355 0 21.213s15.355 5.858 21.213 0 5.858-15.355 0-21.213-15.355-5.858-21.213 0z"/></g><g><g><g><ellipse cx="232.245" cy="152.245" fill="#ffdbe0" rx="23.377" ry="29.355" transform="matrix(.707 -.707 .707 .707 -39.63 208.815)"/></g><g><ellipse cx="344.755" cy="264.755" fill="#ffdbe0" rx="23.377" ry="29.355" transform="matrix(.707 -.707 .707 .707 -86.234 321.322)"/></g></g></g><g fill="#313d40"><path d="m263.436 134.641-8.485 8.485c-2.929 2.929-2.929 7.678 0 10.606 2.93 2.929 7.678 2.929 10.607 0l8.485-8.485c2.929-2.929 2.929-7.678 0-10.606-2.93-2.928-7.678-2.928-10.607 0z"/><path d="m362.36 222.957c-2.93-2.929-7.678-2.929-10.607 0l-8.485 8.485c-2.929 2.929-2.929 7.678 0 10.606 2.93 2.929 7.678 2.929 10.607 0l8.485-8.485c2.928-2.928 2.928-7.677 0-10.606z"/><path d="m315.793 196.495c-8.675.597-15.885-6.583-15.288-15.288.283-4.132-2.837-7.712-6.969-7.996-4.123-.291-7.713 2.836-7.996 6.969-1.216 17.726 13.48 32.505 31.28 31.279 4.133-.284 7.253-3.864 6.969-7.996-.283-4.133-3.854-7.247-7.996-6.968z"/></g></g></svg>