<svg id="Capa_1" enable-background="new 0 0 497 497" height="512" viewBox="0 0 497 497" width="512" xmlns="http://www.w3.org/2000/svg"><g><g><path d="m160.49 467-65.085-30-69.792 30c10.375 17.929 29.749 30 51.953 30h150z" fill="#30cd9c"/><path d="m488.953 467-155.953-20-172.51 20c16.479 18.41 40.422 30 67.076 30h20 189.434c22.205 0 41.578-12.071 51.953-30z" fill="#70dcba"/></g><g><path d="m92.5 323.872-74.935 30v30l60.435 20 59.565-20 30-30z" fill="#ffb357"/><path d="m137.565 353.872v30l170.547 20 188.888-20v-30l-187.57-30z" fill="#ffce71"/></g><g><path d="m17.565 233.872h113.03v120h-113.03z" fill="#676fb2"/><path d="m467 233.872h-105.465l-69.282 40v80h204.747v-90c0-16.569-13.431-30-30-30z" fill="#8288cb"/></g><g><path d="m231.471 233.872c-36.883 0-66.783 29.9-66.783 66.783v30.339l22.877 22.878h194.688l69.282-120z" fill="#efedff"/><path d="m231.471 233.872h-100.876l-69.282 120h126.252v-54.921c0-28.615 17.372-54.365 43.906-65.079z" fill="#d4d4ff"/></g><g><g><path d="m162.416 70.989-117.989 31.615c-31.966 8.565-50.936 41.422-42.371 73.388l15.509 57.879 109.035-29.216 33.112-17.614 31.096-116.053h-28.392z" fill="#676fb2"/><path d="m495.515 73.387-7.744-28.902c-7.091-26.464-30.513-44.485-56.934-44.485-5.426 0-10.953.641-16.454 2.115l-22.909 6.138-27.321 27.321-24.269 90.573 15.773 15.773 118.644-31.791c16.005-4.287 25.503-20.738 21.214-36.742z" fill="#8288cb"/></g><g><path d="m285.093 38.118c-28.095 7.528-51.485 26.982-64.005 53.235l-10.269 21.531 30 61.167 114.84-32.131 35.815-133.666z" fill="#efedff"/><path d="m162.416 70.989-35.816 133.667 114.218-30.605v-61.167c0-31.137 16.972-59.797 44.274-74.767z" fill="#d4d4ff"/></g></g><circle cx="45.224" cy="233.872" fill="#4c5699" r="45"/><g fill="#ff8e9e"><ellipse cx="168.943" cy="315.003" rx="29.355" ry="23.377"/><ellipse cx="328.057" cy="315.003" rx="29.355" ry="23.377"/></g><g fill="#313d40"><path d="m186.051 279c-4.143 0-7.5 3.358-7.5 7.5v12c0 4.142 3.357 7.5 7.5 7.5s7.5-3.358 7.5-7.5v-12c0-4.142-3.357-7.5-7.5-7.5z"/><path d="m310.949 279c-4.143 0-7.5 3.358-7.5 7.5v12c0 4.142 3.357 7.5 7.5 7.5s7.5-3.358 7.5-7.5v-12c0-4.142-3.358-7.5-7.5-7.5z"/><path d="m269.891 292.488c-3.123-2.721-7.861-2.396-10.581.727-5.737 6.583-15.911 6.55-21.62 0-2.721-3.123-7.459-3.448-10.581-.727-3.123 2.721-3.449 7.458-.728 10.582 11.703 13.431 32.546 13.417 44.237 0 2.722-3.123 2.396-7.861-.727-10.582z"/></g><g><path d="m137.565 383.872h-120v53.128c0 10.933 2.938 21.173 8.047 30h134.878v-60z" fill="#d4d4ff"/><path d="m497 437v-53.128h-359.435v23.128c0 23.052 8.671 44.077 22.924 60h328.463c5.11-8.827 8.048-19.067 8.048-30z" fill="#efedff"/></g><path d="m284.777 425.436c0-4.13-3.359-7.5-7.5-7.5h-1.889l1.339-1.34c1.42-1.41 2.2-3.3 2.2-5.3s-.78-3.89-2.2-5.3c-1.41-1.42-3.3-2.2-5.3-2.2-2.01 0-3.89.78-5.3 2.2l-1.351 1.35v-1.91c0-4.13-3.359-7.5-7.489-7.5-4.141 0-7.5 3.37-7.5 7.5v1.901l-1.341-1.341c-1.42-1.42-3.3-2.2-5.31-2.2-2 0-3.88.78-5.3 2.2-2.92 2.92-2.92 7.68 0 10.6l1.34 1.34h-1.89c-4.141 0-7.5 3.37-7.5 7.5 0 4.14 3.359 7.5 7.5 7.5h1.89l-1.34 1.34c-1.42 1.42-2.2 3.3-2.2 5.31 0 2 .78 3.88 2.2 5.3s3.3 2.2 5.3 2.2c2.01 0 3.89-.78 5.31-2.2l1.341-1.342v1.892c0 4.14 3.359 7.5 7.5 7.5 4.13 0 7.489-3.36 7.489-7.5v-1.9l1.351 1.35c1.41 1.42 3.3 2.2 5.3 2.2s3.89-.78 5.3-2.2c1.42-1.42 2.2-3.3 2.2-5.31 0-2-.78-3.88-2.2-5.3l-1.34-1.34h1.89c4.141 0 7.5-3.36 7.5-7.5z" fill="#1cbbea"/></g></svg>