<svg id="Capa_1" enable-background="new 0 0 497 497" height="512" viewBox="0 0 497 497" width="512" xmlns="http://www.w3.org/2000/svg"><g><g><path d="m151.233 122.939v-15.045h-63.206l-18.669 18.669c-9.771 22.033-18.886 44.41-24.139 68.42h7.978v32.26l10.99 10.99h115.979v-115.294z" fill="#7ce3ff"/><path d="m180.166 107.894h-28.934l-106.013 87.088c-1.581 7.233-2.382 14.561-2.416 21.866l21.384 21.384 115.979-95.294z" fill="#b9f0ff"/></g><g><path d="m414.458 180.971c0-11.102-6.036-20.789-15-25.977h-25v165.977h60z" fill="#676fb2"/><path d="m399.458 154.995c-4.414-2.554-9.534-4.023-15-4.023-16.568 0-30 13.432-30 30v80h-40c-16.568 0-30 13.431-30 30 0 16.568 13.432 30 30 30h70v-140c0-11.103 6.036-20.789 15-25.977z" fill="#4c5699"/></g><g><path d="m414.502 36.029c-21.512 0-50.446.632-84.556 2.572l-40.966 9.275v27l10 8.603c29.055-2.006 53.577-2.443 77.188-2.5 21.139-.051 38.29 17.093 38.29 38.232v97.637l43.104 20 39.438-20v-98.363c0-45.531-36.928-82.456-82.498-82.456z" fill="#ffce71"/><path d="m100.943 67.231c-26.89 5.378-42.138 34.021-31.584 59.331h72.605c8.284 0 15 6.716 15 15v75.286l21.002 20 23.998-20v-96.435c0-15.064 11.177-27.803 26.115-29.749 26.873-3.5 50.052-5.747 70.902-7.186v-3.278c0-19.184 12.588-36.095 30.966-41.6-63.256 3.598-144.329 11.696-229.004 28.631z" fill="#ffb357"/></g><g><path d="m415.806 356.902c-5.278-4.874-11.433-8.812-18.201-11.553h-40v111.244h40c21.985-8.903 37.5-30.444 37.5-55.622 0-17.427-7.433-33.111-19.299-44.069z" fill="#676fb2"/><path d="m360.105 400.971 14.997-14.995 22.503-40.627c-6.95-2.814-14.541-4.378-22.5-4.378-33.137 0-60 26.863-60 60s26.863 60 60 60c7.959 0 15.55-1.563 22.5-4.378-21.985-8.903-37.5-30.444-37.5-55.622z" fill="#4c5699"/><circle cx="375.102" cy="400.973" fill="#d4d4ff" r="15"/></g><g><path d="m121.773 356.902c-5.278-4.874-11.433-8.812-18.201-11.553h-40v111.244h40c21.985-8.903 37.5-30.444 37.5-55.622 0-17.427-7.433-33.111-19.299-44.069z" fill="#676fb2"/><path d="m66.072 400.971 14.997-14.995 22.503-40.627c-6.95-2.814-14.541-4.378-22.5-4.378-33.137 0-60 26.863-60 60s26.863 60 60 60c7.959 0 15.55-1.563 22.5-4.378-21.985-8.903-37.5-30.444-37.5-55.622z" fill="#4c5699"/><circle cx="81.068" cy="400.973" fill="#d4d4ff" r="15"/></g><g><path d="m231.964 340.976c-16.568 0-30-13.431-30-30v-94.128h-159.161c-.086 18.191 4.556 36.236 13.654 52.289l18.183 32.084 5.532 9.761 81.749 56.085c4.611 11.333 15.66 18.908 27.895 18.908h86.363l18.997-45h-63.212z" fill="#30cd9c"/><path d="m414.458 216.848v84.123h-39.353c-32.644 0-61.668 15.734-79.929 40.005-9.745 12.931-16.441 28.281-18.997 45h173.774c25.082 0 46.167-19.651 47.01-44.719.024-.706.036-1.416.036-2.128v-99.031-23.25z" fill="#70dcba"/></g><g><path d="m1.41 356.263c-5.368 14.385 5.259 29.713 20.613 29.713h45.95l6.668-11.856v-72.898c-33.684 2.52-61.897 24.665-73.231 55.041z" fill="#30cd9c"/><path d="m160.724 356.237c-12.096-32.359-43.345-55.261-79.652-55.261-2.164 0-4.308.087-6.431.246-24.524 21.925-27.462 59.263-6.668 84.754h72.148c11.488 0 20.323-8.563 21.801-18.908.498-3.491.159-7.199-1.198-10.831z" fill="#70dcba"/></g><g><ellipse cx="154.008" cy="277.958" fill="#ff8e9e" rx="29.355" ry="23.377"/><path d="m136.9 241.955c-4.143 0-7.5 3.358-7.5 7.5v12c0 4.142 3.357 7.5 7.5 7.5s7.5-3.358 7.5-7.5v-12c0-4.142-3.357-7.5-7.5-7.5z" fill="#313d40"/></g></g></svg>