<svg id="Capa_1" enable-background="new 0 0 497 497" height="512" viewBox="0 0 497 497" width="512" xmlns="http://www.w3.org/2000/svg"><g><g><g><path d="m350.695 314.966h-124.381v49.171c46.149 0 83.734 37.53 83.734 83.68 0 27.119 22.063 49.183 49.184 49.183 27.119 0 49.183-22.063 49.183-49.183 0-52.368-22.207-99.606-57.72-132.851z" fill="#ffce71"/><path d="m408.415 182.061c0-100.389-81.673-182.061-182.061-182.061v98.366c46.149 0 83.695 37.546 83.695 83.695s-37.546 83.695-83.695 83.695h-132.879c-27.119 0-49.183 22.063-49.183 49.184 0 27.12 22.063 49.183 49.183 49.183l132.839.016c48.125 0 91.824-18.68 124.381-49.171 35.513-33.247 57.72-80.54 57.72-132.907z" fill="#ffb357"/></g><g><path d="m403.525 0h-177.171l-29.08 11.302v75.762l29.08 11.302h177.171c27.12 0 49.183-22.063 49.183-49.184-.001-27.119-22.064-49.182-49.183-49.182z" fill="#ffce71"/><path d="m226.354 0h-132.879c-27.119 0-49.182 22.063-49.182 49.183 0 27.121 22.063 49.184 49.183 49.184h132.878c-27.163-27.164-27.163-71.204 0-98.367z" fill="#ffb357"/></g><g><path d="m403.525 0h-177.171l-29.08 11.302v75.762l29.08 11.302h177.171c27.12 0 49.183-22.063 49.183-49.184-.001-27.119-22.064-49.182-49.183-49.182z" fill="#ffce71"/><path d="m226.354 0h-132.879c-27.119 0-49.182 22.063-49.182 49.183 0 27.121 22.063 49.184 49.183 49.184h132.878c-27.163-27.164-27.163-71.204 0-98.367z" fill="#ffb357"/></g><g><path d="m403.525 132.878h-117.171l-29.08 11.302v75.762l29.08 11.302h117.171c27.12 0 49.183-22.063 49.183-49.184-.001-27.118-22.064-49.182-49.183-49.182z" fill="#ffce71"/><path d="m286.354 132.878h-192.879c-27.119 0-49.183 22.063-49.183 49.183 0 27.121 22.063 49.184 49.183 49.184h192.878c-27.162-27.164-27.162-71.204.001-98.367z" fill="#ffb357"/></g></g><g><g><g><g><ellipse cx="168.943" cy="196.563" fill="#ff8e9e" rx="29.355" ry="23.377"/></g><g><ellipse cx="328.057" cy="196.563" fill="#ff8e9e" rx="29.355" ry="23.377"/></g></g></g><g fill="#313d40"><path d="m186.051 161.56c-4.143 0-7.5 3.357-7.5 7.5v12c0 4.143 3.357 7.5 7.5 7.5s7.5-3.357 7.5-7.5v-12c0-4.143-3.358-7.5-7.5-7.5z"/><path d="m310.948 161.56c-4.143 0-7.5 3.357-7.5 7.5v12c0 4.143 3.357 7.5 7.5 7.5s7.5-3.357 7.5-7.5v-12c0-4.143-3.357-7.5-7.5-7.5z"/><path d="m269.892 175.049c-3.123-2.722-7.86-2.396-10.582.727-2.729 3.132-6.669 4.928-10.81 4.928s-8.08-1.796-10.81-4.928c-2.723-3.122-7.46-3.448-10.582-.727-3.123 2.722-3.447 7.46-.727 10.582 5.579 6.401 13.641 10.072 22.118 10.072s16.539-3.671 22.118-10.072c2.722-3.122 2.398-7.86-.725-10.582z"/></g></g></g></svg>