<svg id="Capa_1" enable-background="new 0 0 497 497" height="512" viewBox="0 0 497 497" width="512" xmlns="http://www.w3.org/2000/svg"><g><g><path d="m359.725.152-20 10v59.695h43.239c8.208-7.326 13.38-17.98 13.38-29.848 0-20.951-16.112-38.129-36.619-39.847z" fill="#ff8f71"/><path d="m346.344 30c0-11.867 5.172-22.522 13.38-29.848-1.115-.093-2.24-.152-3.38-.152-22.091 0-40 17.909-40 40s17.909 40 40 40c10.224 0 19.548-3.841 26.62-10.152-20.508-1.718-36.62-18.896-36.62-39.848z" fill="#ff6f4d"/></g><path d="m455.412 254.585c-47.373-47.365-118.911-53.87-172.921-21.647-14.39 8.575-35.649 13.789-54.274 6.976v70.584h48.628c14.814-3.298 29.006-8.829 42.011-16.581 26.76-15.972 62.568-12.907 86.352 10.876 13.41 13.405 20.792 31.234 20.792 50.2 0 39.246-31.744 71-71.001 71-19.608 0-35.5 15.892-35.5 35.5s15.892 35.5 35.5 35.5c78.478 0 142.001-63.497 142.001-142.001 0-37.934-14.773-73.592-41.588-100.407z" fill="#ff6f4d"/><g><path d="m49.093 125.486c-12.901 23.257 3.933 52.011 30.588 52.011 12.915 0 25.108-6.597 31.595-17.765 6.146-10.606 17.608-17.736 30.724-17.736v-71c-39.811 0-74.634 22.047-92.907 54.49z" fill="#ff6f4d"/><path d="m71.001 354.999c0-19.608-15.892-35.5-35.5-35.5s-35.5 15.892-35.5 35.5c-.001 78.299 63.701 142.001 142 142.001v-71c-39.152 0-71-31.849-71-71.001z" fill="#ff6f4d"/><path d="m276.845 310.499c-8.947-27.057-26.566-53.509-48.628-70.584 50.779-69.956.705-168.918-86.215-168.918-19.606 19.606-19.606 51.395 0 71 19.576 0 35.5 15.924 35.5 35.5s-15.924 35.5-35.5 35.5c-19.608 0-35.5 15.892-35.5 35.5s15.892 35.5 35.5 35.5c39.152 0 71 31.849 71 71 0 39.152-31.849 71.001-71 71.001-19.606 19.606-19.606 51.394 0 71 78.299 0 142.001-63.702 142.001-142.001-.001-15.539-2.524-30.493-7.158-44.498z" fill="#ff8f71"/></g><g><path d="m369.233 182.256c31.211-3.041 61.602-16.334 85.617-39.928 14.154-13.906 14.944-37.043.925-51.083-13.864-13.885-36.353-13.891-50.225-.02-10.428 10.428-23.319 16.916-36.815 19.489l-15.848 9.431v55.426z" fill="#ff8f71"/><path d="m368.734 110.714c-14.659 2.794-30.032.966-43.748-5.505-13.682-6.455-29.969-3.86-40.667 6.837-17.238 17.238-12.41 46.475 9.578 57.003 23.626 11.313 49.756 15.699 75.336 13.207-18.94-19.676-19.107-51.65-.499-71.542z" fill="#ff6f4d"/></g><g><g fill="#ffdbe0"><path d="m82.389 128.406c-11.874 0-21.5 7.834-21.5 17.5s9.626 17.5 21.5 17.5 21.5-7.835 21.5-17.5-9.625-17.5-21.5-17.5z"/><path d="m201.329 128.406c-11.874 0-21.5 7.834-21.5 17.5s9.626 17.5 21.5 17.5 21.5-7.835 21.5-17.5-9.626-17.5-21.5-17.5z"/></g></g><g fill="#313d40"><path d="m92.41 111.12c-4.143 0-7.5 3.357-7.5 7.5v12c0 4.143 3.357 7.5 7.5 7.5s7.5-3.357 7.5-7.5v-12c0-4.142-3.357-7.5-7.5-7.5z"/><path d="m191.308 111.12c-4.143 0-7.5 3.357-7.5 7.5v12c0 4.143 3.357 7.5 7.5 7.5s7.5-3.357 7.5-7.5v-12c0-4.142-3.358-7.5-7.5-7.5z"/></g></g></svg>