<svg id="Capa_1" enable-background="new 0 0 497.001 497.001" height="512" viewBox="0 0 497.001 497.001" width="512" xmlns="http://www.w3.org/2000/svg"><g><g><path d="m489.292 409.855c-15.434-25.326-16.51-58.946-3.594-112.419 6.068-25.126.865-50.572-14.281-69.809-16.163-20.531-41.265-31.838-70.688-31.838h-99.517v-75.883c50.169 9.239 109.186 10.93 163.508-22.175 24.858-15.151 32.732-47.584 17.584-72.442-15.152-24.863-47.585-32.729-72.443-17.583-25.332 15.44-58.958 16.51-112.421 3.597-25.137-6.077-50.575-.865-69.809 14.281-20.534 16.163-31.841 41.265-31.841 70.688v204.938h181.304c-9.233 50.169-10.927 109.186 22.178 163.508 9.927 16.293 27.282 25.287 45.06 25.287 9.348 0 18.813-2.488 27.382-7.709 24.858-15.148 32.729-47.583 17.578-72.441z" fill="#ff8e9e"/><path d="m195.79 195.79h-75.88c9.233-50.169 10.927-109.186-22.181-163.511-15.149-24.861-47.578-32.733-72.442-17.578-24.858 15.148-32.729 47.583-17.578 72.441 15.437 25.329 16.513 58.949 3.597 112.419-5.848 24.205-.429 49.228 14.86 68.653 16.507 20.969 42.062 32.997 70.109 32.997h99.514v75.88c-50.166-9.236-109.189-10.927-163.511 22.181-24.857 15.148-32.728 47.583-17.577 72.441 9.927 16.293 27.282 25.287 45.06 25.287 9.348 0 18.813-2.488 27.382-7.709 25.329-15.434 58.949-16.51 112.421-3.597 24.199 5.848 49.231.429 68.653-14.86 20.966-16.507 32.994-42.062 32.994-70.109v-99.514c-58.223 0-105.421-47.199-105.421-105.421z" fill="#ea5b70"/></g><g fill="#ffdbe0"><ellipse cx="175.244" cy="257.29" rx="27.03" ry="21.525"/><ellipse cx="321.757" cy="257.29" rx="27.03" ry="21.525"/></g><g fill="#313d40"><path d="m209.872 232.532c-3.123-2.722-7.86-2.396-10.582.727-4.391 5.041-12.197 5.037-16.585 0-2.723-3.122-7.46-3.447-10.582-.727-3.122 2.722-3.448 7.459-.727 10.582 10.371 11.899 28.839 11.89 39.202 0 2.722-3.123 2.396-7.861-.726-10.582z"/><path d="m324.878 232.532c-3.123-2.722-7.86-2.396-10.582.727-4.391 5.041-12.197 5.037-16.585 0-2.723-3.122-7.46-3.447-10.582-.727-3.122 2.722-3.448 7.459-.727 10.582 10.372 11.9 28.839 11.89 39.202 0 2.723-3.123 2.396-7.861-.726-10.582z"/><path d="m270.645 240.696c-3.125-2.722-7.862-2.396-10.582.727-6.166 7.075-17.121 7.067-23.279 0-2.723-3.122-7.461-3.447-10.582-.727-3.122 2.722-3.448 7.459-.727 10.582 12.144 13.935 33.766 13.92 45.896 0 2.722-3.123 2.396-7.861-.726-10.582z"/></g></g></svg>