<svg id="Capa_1" enable-background="new 0 0 497 497" height="512" viewBox="0 0 497 497" width="512" xmlns="http://www.w3.org/2000/svg"><g><g><path d="m270.863 302.615-14.083 15.707v82.054l43.78 34.253c46.539 14.173 93.058 25.737 139.5 16.59 32.744-6.449 56.94-25.667 56.94-59.673v-85.833z" fill="#70dcba"/><path d="m272.502 150.474-15.723 7.198v130.65l14.083 14.293c9.705 3.003 19.369 6.057 28.975 9.004 46.981 14.411 93.946 26.259 140.829 16.843 20.389-4.072 39.421-11.897 56.333-22.749v-152.65z" fill="#efedff"/><g><path d="m440.664 53.146c-46.884 9.417-93.845-2.416-140.826-16.827l-43.059 18.755v80.598l15.723 14.802c9.154 2.838 18.27 5.715 27.335 8.495 46.981 14.412 93.946 26.259 140.829 16.843 20.389-4.072 39.421-11.897 56.333-22.749v-53.37c.001-30.274-27.906-52.256-56.335-46.547z" fill="#ffce71"/><path d="m60 30-26.944 138.203 239.446-17.729c4.927-42.095 14.058-73.672 27.335-114.155-78.736-24.152-161.264-55.55-239.837-6.319z" fill="#ffb357"/></g><path d="m272.502 150.474c-70.353-21.818-142.976-41.387-212.502 2.176l-26.944 15.553-9.32 61.263 14.312 88.505 232.815-15.356c-1.558-16.938-2.455-44.102-2.64-61.461-.288-27.005 1.15-63.947 4.279-90.68z" fill="#d4d4ff"/><path d="m60 305.3-21.952 12.671 21.952 110.421c78.812-49.381 161.582-17.815 240.559 6.237-14.888-44.843-25.138-82.457-29.696-132.013-69.842-21.61-141.877-40.54-210.863 2.684z" fill="#30cd9c"/></g><path d="m302.456 260.359c8.892-9.17 14.382-21.657 14.382-35.409 0-13.75-5.489-26.235-14.379-35.405-.165-.204-.341-.402-.531-.591s-.387-.365-.59-.53c-9.169-8.891-21.655-14.38-35.406-14.38-13.752 0-26.239 5.49-35.409 14.383-.203.164-.399.34-.588.528s-.364.385-.528.588c-8.892 9.169-14.382 21.656-14.382 35.407 0 13.75 5.489 26.235 14.379 35.405.165.204.341.402.531.592.189.189.388.366.592.531 9.169 8.891 21.655 14.379 35.405 14.379 13.751 0 26.238-5.49 35.407-14.382.203-.165.399-.34.588-.528s.364-.385.529-.588zm-66.644-54.921 12.012 12.012h-17.006c.928-4.346 2.647-8.4 4.994-12.012zm65.232 12.012h-17.005l12.011-12.011c2.348 3.611 4.067 7.665 4.994 12.011zm-27.612-10.607v-17.005c4.346.927 8.4 2.646 12.011 4.994zm-15 .001-12.012-12.012c3.611-2.348 7.666-4.066 12.012-4.994zm-27.614 25.606h17.006l-12.012 12.012c-2.347-3.611-4.066-7.666-4.994-12.012zm27.614 10.608v17.006c-4.347-.927-8.401-2.646-12.012-4.994zm15 0 12.012 12.012c-3.611 2.348-7.666 4.066-12.012 4.994zm10.606-10.608h17.006c-.927 4.347-2.646 8.4-4.994 12.012z" fill="#1cbbea"/><path d="m30 0c-16.568 0-30 13.431-30 30v437c0 16.569 13.432 30 30 30s30-13.431 30-30v-38.608-398.392c0-16.569-13.431-30-30-30z" fill="#d6948c"/></g></svg>