<svg id="Capa_1" enable-background="new 0 0 497 497" height="512" viewBox="0 0 497 497" width="512" xmlns="http://www.w3.org/2000/svg"><g><path d="m469.355 101.713h-6.592c-9.2 0-18.023 3.668-24.528 10.196l-18.993 19.061c-4.337 4.352-6.773 10.255-6.773 16.409v6.385h-23.866c-9.578 0-17.343 7.792-17.343 17.405 0 9.612 7.765 17.405 17.343 17.405h23.866v31.667c0 9.564 7.324 17.793 16.843 18.243 10.164.48 18.555-7.648 18.555-17.742v-30.486l41.037-41.183c5.184-5.203 8.097-12.26 8.097-19.618-.001-15.321-12.378-27.742-27.646-27.742z" fill="#ffce71"/><g><path d="m322.701 162.085-104.752-30.83v-23.905c0-12.256-9.9-22.192-22.113-22.192h-12.381v-62.123c0-12.722-10.276-23.035-22.952-23.035l-46.851 25.549v163.026l101.312 20 125.367-20v-2.865c-.001-10.929-7.18-20.549-17.63-23.625z" fill="#ffce71"/><path d="m160.503 0h-43.736c-12.677 0-22.954 10.313-22.954 23.036v72.155c0 5.297-2.097 10.377-5.829 14.122l-20.655 20.729c-3.735 3.749-8.804 5.846-14.086 5.85-10.984.008-19.886 8.947-19.886 19.971v32.712l39.218 20 41.077-20c.377-64.472 15.832-129.156 46.851-188.575z" fill="#ffb357"/></g><g><path d="m113.651 188.575v164.557l48.573 32.246 18.12 10 17.704-10 132.122-132.592c6.505-6.528 10.16-15.382 10.16-24.615v-39.596z" fill="#efedff"/><path d="m113.651 188.575h-80.295v14.265c-18.422 0-33.356 14.987-33.356 33.474v3.137c0 18.487 14.934 33.475 33.356 33.475h39.61v83.352c0 9.894 1.596 19.713 4.684 29.099l40.584 20 43.991-20c-32.603-61.083-48.972-128.824-48.574-196.802z" fill="#d4d4ff"/></g><g fill="#ff8e9e"><path d="m117.747 232.687c-16.212 0-29.355 10.466-29.355 23.376 0 12.911 13.143 23.377 29.355 23.377s29.355-10.466 29.355-23.377c0-12.91-13.143-23.376-29.355-23.376z"/><path d="m266.86 232.687c-16.212 0-29.354 10.466-29.354 23.376 0 12.911 13.143 23.377 29.354 23.377 16.212 0 29.355-10.466 29.355-23.377 0-12.91-13.143-23.376-29.355-23.376z"/></g><g><g><path d="m77.649 385.377c.222.674.431 1.352.668 2.021l27.646 77.971c7.116 20.07 26.736 33.086 48.199 31.5 24.908-1.841 43.885-23.267 43.885-48.331v-7.35c-13.557-17.8-25.502-36.473-35.824-55.812h-84.574z" fill="#30cd9c"/></g><path d="m162.224 385.377h35.824v55.812h-35.824z" fill="#70dcba"/><g><path d="m77.649 385.377c.222.674.431 1.352.668 2.021l27.646 77.971c7.116 20.07 26.736 33.086 48.199 31.5 24.908-1.841 43.885-23.267 43.885-48.331v-7.35c-13.557-17.8-25.502-36.473-35.824-55.812h-84.574z" fill="#30cd9c"/></g></g><g fill="#313d40"><path d="m134.855 214.06c-4.143 0-7.5 3.357-7.5 7.5v12c0 4.143 3.357 7.5 7.5 7.5s7.5-3.357 7.5-7.5v-12c0-4.143-3.358-7.5-7.5-7.5z"/><path d="m249.752 214.06c-4.143 0-7.5 3.357-7.5 7.5v12c0 4.143 3.357 7.5 7.5 7.5s7.5-3.357 7.5-7.5v-12c0-4.143-3.357-7.5-7.5-7.5z"/><path d="m213.694 227.549c-3.123-2.722-7.861-2.397-10.581.728-5.724 6.568-15.899 6.563-21.62-.001-2.722-3.124-7.46-3.447-10.582-.727-3.123 2.722-3.447 7.46-.727 10.582 11.703 13.428 32.546 13.417 44.237-.001 2.723-3.122 2.396-7.86-.727-10.581z"/></g></g></svg>