<svg id="Capa_1" enable-background="new 0 0 497 497" height="512" viewBox="0 0 497 497" width="512" xmlns="http://www.w3.org/2000/svg"><g><g><path d="m194.007 325.167v84.233h109.526l55.937-19c10.615-7.747 20.998-15.784 32.337-25.102 14.482-11.9 29.596-25.215 43.703-40.131l-128.104-20z" fill="#70dcba"/><path d="m356.43 48.5c-12.122 0-23.875 1.554-35.096 4.433-16.042 4.116-30.984 10.964-44.273 20.056-17.253 11.802-39.866 11.802-57.119 0-13.29-9.091-28.232-15.94-44.274-20.056h-40.282l-60 40v64.901l26.521 14 207.217 40 186.849-40c-8.4-69.485-67.668-123.334-139.543-123.334z" fill="#ffce71"/><path d="m495.972 171.834h-394.067l-26.521 20v111.842l118.623 21.491h241.503c33.603-35.529 61.49-80.141 61.49-136.35 0-5.75-.354-11.416-1.028-16.983z" fill="#efedff"/></g><g><path d="m105.194 365.298c23.841 19.59 44.027 33.923 70.473 51.338 8.986 5.918 18.692 12.19 29.513 19.147 26.38 16.961 60.269 16.952 86.648-.01 10.898-7.007 20.593-13.271 29.506-19.135 14.121-9.291 26.275-17.583 38.137-26.239-12.902 0-25.588-1.141-38.137-3.2-51.373-8.429-87.83-29.215-127.326-62.033l-66.039-20-66.477 20c14.106 14.917 29.22 28.232 43.702 40.132z" fill="#30cd9c"/><path d="m175.667 52.933c-11.22-2.879-22.974-4.433-35.095-4.433-71.876 0-131.145 53.849-139.544 123.334l47.953 20 52.924-20c-1.154-54.574 28.658-99.365 73.762-118.901z" fill="#ffb357"/><path d="m101.905 171.834h-100.877c-.674 5.567-1.028 11.233-1.028 16.982 0 56.209 27.888 100.821 61.491 136.35h132.516c-6.234-5.176-12.375-10.479-18.341-15.942-41.264-37.791-72.579-81.621-73.761-137.39z" fill="#d4d4ff"/></g><path d="m302.666 248.5c0-29.835-24.312-54.166-54.166-54.166-29.835 0-54.166 24.312-54.166 54.166 0 29.673 24.099 54.167 54.166 54.167 29.834 0 54.166-24.311 54.166-54.167zm-92.604 7.5h20.331l-14.37 14.37c-2.883-4.269-4.941-9.137-5.961-14.37zm5.961-29.37 14.37 14.37h-20.33c1.019-5.234 3.077-10.102 5.96-14.37zm70.915 14.37h-20.33l14.37-14.37c2.882 4.268 4.94 9.136 5.96 14.37zm-30.938-10.608v-20.33c5.234 1.02 10.101 3.077 14.37 5.96zm-15 0-14.37-14.37c4.269-2.883 9.136-4.941 14.37-5.96zm0 36.215v20.331c-5.234-1.02-10.101-3.077-14.369-5.961zm15 0 14.369 14.37c-4.268 2.884-9.135 4.941-14.369 5.961zm10.607-10.607h20.331c-1.02 5.234-3.077 10.102-5.961 14.37z" fill="#1cbbea"/><g fill="#ff8e9e"><ellipse cx="175.244" cy="136.268" rx="27.03" ry="21.525"/><ellipse cx="321.756" cy="136.268" rx="27.03" ry="21.525"/></g><g fill="#313d40"><path d="m209.872 102.511c-3.124-2.723-7.861-2.397-10.582.725-2.096 2.403-5.118 3.782-8.293 3.782-3.176 0-6.198-1.379-8.294-3.782-2.721-3.122-7.458-3.448-10.582-.725-3.122 2.722-3.446 7.459-.725 10.582 4.944 5.672 12.089 8.925 19.601 8.925s14.655-3.253 19.6-8.925c2.721-3.123 2.397-7.86-.725-10.582z"/><path d="m324.879 102.511c-3.124-2.723-7.861-2.397-10.582.725-2.096 2.403-5.118 3.782-8.294 3.782-3.175 0-6.197-1.379-8.293-3.782-2.721-3.122-7.458-3.448-10.582-.725-3.122 2.722-3.446 7.459-.725 10.582 4.944 5.672 12.088 8.925 19.6 8.925s14.656-3.253 19.601-8.925c2.721-3.123 2.397-7.86-.725-10.582z"/><path d="m270.645 110.674c-3.125-2.722-7.862-2.396-10.582.727-2.938 3.372-7.182 5.307-11.64 5.307s-8.701-1.935-11.64-5.307c-2.723-3.122-7.46-3.447-10.582-.727-3.122 2.722-3.448 7.459-.727 10.582 5.788 6.642 14.152 10.451 22.948 10.451s17.16-3.81 22.948-10.451c2.723-3.123 2.397-7.86-.725-10.582z"/></g></g></svg>