<svg id="Capa_1" enable-background="new 0 0 497 497" height="512" viewBox="0 0 497 497" width="512" xmlns="http://www.w3.org/2000/svg"><g><g><path d="m192.146 58.167-53.582-58.167h-69.282l13.582 58.167 72.751 104.734h81.161z" fill="#efedff"/><path d="m222.28 25c-8.932-15.47-25.438-25-43.301-25h-40.415l94.051 162.901h69.282z" fill="#30cd9c"/><path d="m34.641 60 59.41 102.901h69.282l-94.051-162.901c-30.792 0-50.037 33.333-34.641 60z" fill="#ffb357"/></g><g><path d="m414.135 58.167 13.583-58.167h-69.282l-53.583 58.167-44.629 104.734h81.161z" fill="#efedff"/><path d="m358.436 0h-40.415c-17.863 0-34.37 9.53-43.301 25l-79.617 137.901h69.282z" fill="#70dcba"/><path d="m462.359 60c15.396-26.667-3.849-60-34.641-60l-94.051 162.901h69.282z" fill="#ffce71"/></g><g><g><path d="m453.499 291.337c-.104-32.591-32.245-55.47-63.24-45.398 30.977-10.065 43.579-47.461 24.504-73.865-25.245-34.944-61.233-61.615-103.125-75.165-31.183-10.086-63.139 13.218-63.139 45.992h-58.822v269.699h146.444c19.258 26.507 58.771 26.562 78.086.096 24.709-33.857 39.293-75.571 39.293-120.696 0-.221 0-.442-.001-.663z" fill="#fce3a0"/><path d="m336.122 412.601c-10.334-1.637-20.346-4.285-29.946-7.81-45.303-16.633-81.242-53.234-96.498-100.194-14.246-43.847-8.593-90.986 14.096-129.673 6.759-11.526 15.014-22.31 24.727-32.023 0-32.774-31.957-56.079-63.139-45.992-41.891 13.55-77.88 40.221-103.125 75.165-19.074 26.404-6.472 63.799 24.505 73.865-30.995-10.072-63.136 12.807-63.24 45.398-.002.221-.002.442-.002.663 0 45.125 14.584 86.839 39.292 120.696 19.315 26.467 58.828 26.412 78.086-.096-19.36 26.646-6.935 64.303 24.396 74.457 19.913 6.455 41.162 9.943 63.226 9.943s43.312-3.488 63.226-9.942c31.33-10.154 43.755-47.811 24.396-74.457z" fill="#ffce71"/></g><g><path d="m248.5 172.443c-8.469 0-16.738.855-24.727 2.481l-34.096 20v209.867h116.498c39.046-20.699 65.648-61.752 65.648-109.024.001-68.11-55.213-123.324-123.323-123.324z" fill="#ffce71"/><path d="m125.176 295.767c0 68.11 55.214 123.324 123.324 123.324 20.838 0 40.464-5.176 57.676-14.3-45.303-16.633-81.242-53.234-96.498-100.194-14.246-43.847-8.593-90.986 14.096-129.673-56.26 11.451-98.598 61.202-98.598 120.843z" fill="#ffb357"/></g></g><g fill="#ff8e9e"><path d="m174.935 288.758c-17.029 0-30.834 10.993-30.834 24.554 0 13.562 13.805 24.555 30.834 24.555s30.833-10.993 30.833-24.555c.001-13.561-13.804-24.554-30.833-24.554z"/><path d="m322.065 288.758c-17.029 0-30.833 10.993-30.833 24.554 0 13.562 13.805 24.555 30.833 24.555 17.029 0 30.834-10.993 30.834-24.555 0-13.561-13.805-24.554-30.834-24.554z"/></g><g fill="#313d40"><path d="m192.904 281.873c-4.143 0-7.5 3.357-7.5 7.5v12c0 4.143 3.357 7.5 7.5 7.5s7.5-3.357 7.5-7.5v-12c0-4.143-3.357-7.5-7.5-7.5z"/><path d="m268.428 296.17c-3.122-2.723-7.86-2.397-10.581.726-2.36 2.708-5.768 4.261-9.347 4.261s-6.986-1.553-9.347-4.261c-2.721-3.122-7.459-3.448-10.581-.726-3.123 2.722-3.447 7.459-.726 10.581 5.209 5.978 12.737 9.405 20.653 9.405s15.444-3.428 20.653-9.405c2.723-3.122 2.399-7.859-.724-10.581z"/><path d="m306.412 279.633c-11.804 0-21.406 9.603-21.406 21.406 0 4.143 3.357 7.5 7.5 7.5s7.5-3.357 7.5-7.5c0-3.532 2.874-6.406 6.406-6.406s6.406 2.874 6.406 6.406c0 4.143 3.357 7.5 7.5 7.5s7.5-3.357 7.5-7.5c0-11.804-9.602-21.406-21.406-21.406z"/></g></g></svg>