<svg id="Capa_1" enable-background="new 0 0 497 497" height="512" viewBox="0 0 497 497" width="512" xmlns="http://www.w3.org/2000/svg"><g><g><g><g><path d="m300.25 7.617h-66.897l-78.225 78.225v243.161l145.128 145.128c4.5-4.939 8.302-10.524 11.252-16.6l97.663-201.176c11.423-23.528 17.829-49.943 17.829-77.855 0-80.587-53.403-148.7-126.75-170.883z" fill="#2ed0fc"/></g></g><path d="m288.992 457.532-80.542-165.907-12.557-25.866-4.565-9.403c-11.422-23.529-17.828-49.944-17.828-77.856 0-31.875 8.362-61.795 23.002-87.697 5.596-9.902 12.111-19.216 19.428-27.827 21.933-25.812 51.076-45.304 84.319-55.359-16.38-4.955-33.751-7.617-51.749-7.617-98.583 0-178.5 79.917-178.5 178.5 0 27.912 6.406 54.327 17.829 77.855l97.663 201.176c11.341 23.363 35.294 39.469 63.008 39.469 20.507 0 38.954-8.818 51.756-22.869-4.5-4.938-8.315-10.524-11.264-16.599z" fill="#1cbbea"/></g><g fill="#313d40"><path d="m186.051 322.06c-4.143 0-7.5 3.358-7.5 7.5v12c0 4.142 3.357 7.5 7.5 7.5s7.5-3.358 7.5-7.5v-12c0-4.142-3.358-7.5-7.5-7.5z"/><path d="m310.948 322.06c-4.143 0-7.5 3.358-7.5 7.5v12c0 4.142 3.357 7.5 7.5 7.5s7.5-3.358 7.5-7.5v-12c0-4.142-3.357-7.5-7.5-7.5z"/><path d="m269.891 335.548c-3.123-2.721-7.86-2.396-10.581.727-2.729 3.132-6.669 4.928-10.81 4.928s-8.08-1.796-10.81-4.928c-2.721-3.123-7.459-3.448-10.581-.727-3.123 2.721-3.449 7.458-.728 10.582 5.578 6.402 13.641 10.074 22.118 10.074s16.54-3.672 22.118-10.074c2.723-3.123 2.397-7.86-.726-10.582z"/></g><g><g><g><path d="m186 76.047c-17.104 10.457-31.382 25.08-41.435 42.453l28.935 10 25.402-10 49.598-20v-40c-22.897 0-44.295 6.417-62.5 17.547z" fill="#ffb357"/></g><path d="m248.5 58.5c-21.955 15.381-38.925 36.227-49.598 60l78.373 20 75.165-20c-20.775-35.899-59.606-60-103.94-60z" fill="#ffce71"/></g><g><path d="m144.563 238.5c10.07 17.383 24.367 31.975 41.437 42.413 18.262 11.167 39.69 17.587 62.5 17.587v-34l-49.598-26-25.402-10z" fill="#30cd9c"/><path d="m198.902 238.5c10.673 23.773 27.643 44.619 49.598 60 44.334 0 83.165-24.101 103.941-60l-75.165-20z" fill="#70dcba"/></g><g><path d="m218.5 138.5-19.598-20h-54.337c-10.214 17.651-16.065 38.141-16.065 60 0 21.927 5.864 42.395 16.063 60h54.339l19.598-20z" fill="#d4d4ff"/><path d="m368.5 178.5c0-21.876-5.851-42.362-16.059-60h-153.539c-8.355 18.611-12.852 39.015-12.852 60s4.497 41.389 12.852 60h153.539c10.208-17.639 16.059-38.124 16.059-60z" fill="#efedff"/></g></g><path d="m275.995 178.5c0-4.13-3.359-7.5-7.5-7.5h-1.889l1.339-1.34c1.42-1.41 2.2-3.3 2.2-5.3s-.78-3.89-2.2-5.3c-1.41-1.42-3.3-2.2-5.3-2.2-2.01 0-3.89.78-5.3 2.2l-1.351 1.35v-1.91c0-4.13-3.359-7.5-7.489-7.5-4.141 0-7.5 3.37-7.5 7.5v1.901l-1.341-1.341c-1.42-1.42-3.3-2.2-5.31-2.2-2 0-3.88.78-5.3 2.2-2.92 2.92-2.92 7.68 0 10.6l1.34 1.34h-1.89c-4.141 0-7.5 3.37-7.5 7.5 0 4.14 3.359 7.5 7.5 7.5h1.89l-1.34 1.34c-1.42 1.42-2.2 3.3-2.2 5.31 0 2 .78 3.88 2.2 5.3s3.3 2.2 5.3 2.2c2.01 0 3.89-.78 5.31-2.2l1.341-1.342v1.892c0 4.14 3.359 7.5 7.5 7.5 4.13 0 7.489-3.36 7.489-7.5v-1.9l1.351 1.35c1.41 1.42 3.3 2.2 5.3 2.2s3.89-.78 5.3-2.2c1.42-1.42 2.2-3.3 2.2-5.31 0-2-.78-3.88-2.2-5.3l-1.34-1.34h1.89c4.14 0 7.5-3.361 7.5-7.5z" fill="#1cbbea"/></g></svg>