<svg id="Capa_1" enable-background="new 0 0 497 497" height="512" viewBox="0 0 497 497" width="512" xmlns="http://www.w3.org/2000/svg"><g><g><path d="m424.254 72.746c-37.686-37.686-85.383-61.755-137.122-69.77h-16.132v43.274c-.008 14.346 9.623 26.907 23.479 30.623 13.856 3.717 28.48-2.338 35.653-14.762l-59.132 102.418v167.941l59.131 102.418c-7.173-12.424-21.797-18.479-35.653-14.762-13.855 3.716-23.486 16.277-23.479 30.623v43.273h16.132c51.739-8.015 99.436-32.084 137.122-69.77 46.912-46.909 72.747-109.326 72.747-175.752s-25.835-128.843-72.746-175.754zm10.635 94.123c-12.423 7.173-18.479 21.797-14.762 35.652 3.716 13.855 16.277 23.486 30.623 23.479h-118.279zm-65.821-82.199c-7.167 12.414-5.103 28.094 5.033 38.229 10.136 10.136 25.815 12.2 38.229 5.033l-102.359 59.098zm5.034 289.432c-10.136 10.135-12.2 25.814-5.033 38.229l-59.098-102.359 102.359 59.098c-12.413-7.169-28.093-5.104-38.228 5.032zm60.787-43.971-102.418-59.131h118.279c-14.341 0-26.896 9.631-30.611 23.482s2.334 28.472 14.75 35.649z" fill="#2ed0fc"/><path d="m271 404.167v-71.696-167.942-79.859-38.42c0-15.947 5.771-31.29 16.132-43.273-12.666-1.963-25.57-2.977-38.632-2.977-66.426 0-128.843 25.835-175.754 72.746s-72.746 109.328-72.746 175.754 25.835 128.843 72.746 175.754 109.328 72.746 175.754 72.746c13.062 0 25.966-1.014 38.632-2.977-10.361-11.983-16.132-27.326-16.132-43.273zm-148.101-281.269c10.136-10.135 12.2-25.814 5.033-38.229l59.097 102.359-102.359-59.096c12.413 7.167 28.093 5.102 38.229-5.034zm-60.788 43.971 102.418 59.131h-118.279c14.345.008 26.906-9.623 30.623-23.479 3.717-13.855-2.339-28.479-14.762-35.652zm0 163.262c12.416-7.177 18.465-21.798 14.75-35.648-3.715-13.852-16.27-23.483-30.611-23.483h118.279zm60.788 43.971c-10.136-10.136-25.815-12.2-38.229-5.033l102.36-59.098-59.098 102.359c7.167-12.414 5.102-28.094-5.033-38.228zm103.101 76.648c.008-14.346-9.623-26.907-23.479-30.623-13.856-3.717-28.48 2.338-35.653 14.762l59.132-102.418zm0-286.221-59.131-102.418c7.173 12.424 21.797 18.479 35.653 14.762 13.855-3.716 23.486-16.277 23.478-30.623z" fill="#1cbbea"/></g><g><path d="m270.669 140.734-132.169 107.766 132.501 107.696c49.959-10.384 87.499-54.656 87.499-107.696 0-53.157-37.706-97.509-87.831-107.766z" fill="#55dafe"/><path d="m270.669 140.734c-7.161-1.465-14.575-2.234-22.169-2.234-60.751 0-110 49.249-110 110s49.249 110 110 110c7.711 0 15.237-.794 22.501-2.304-59.72-59.352-59.868-155.925-.332-215.462z" fill="#2ed0fc"/></g><g fill="#ffdbe0"><ellipse cx="178.943" cy="264.063" rx="29.355" ry="23.377"/><ellipse cx="318.057" cy="264.063" rx="29.355" ry="23.377"/></g><g fill="#313d40"><path d="m196.051 222.06c-4.143 0-7.5 3.357-7.5 7.5v12c0 4.143 3.357 7.5 7.5 7.5s7.5-3.357 7.5-7.5v-12c0-4.143-3.358-7.5-7.5-7.5z"/><path d="m300.948 222.06c-4.143 0-7.5 3.357-7.5 7.5v12c0 4.143 3.357 7.5 7.5 7.5s7.5-3.357 7.5-7.5v-12c0-4.143-3.357-7.5-7.5-7.5z"/><path d="m269.891 235.549c-3.123-2.722-7.86-2.397-10.581.728-5.724 6.568-15.9 6.562-21.619 0-2.721-3.124-7.459-3.448-10.581-.728-3.123 2.721-3.449 7.459-.728 10.581 11.701 13.43 32.545 13.418 44.236 0 2.722-3.122 2.396-7.86-.727-10.581z"/></g></g></svg>